<svg xmlns="http://www.w3.org/2000/svg" viewBox="0 0 40.1 40.1"><defs><style>.cls-1,.cls-2{fill:none;}.cls-2{stroke:#fff;stroke-width:3px;}.cls-3{fill:#fff;}</style></defs><g id="Capa_2" data-name="Capa 2"><g id="Grillas"><g id="Grupo_11" data-name="Grupo 11"><g id="Elipse_6" data-name="Elipse 6"><circle class="cls-1" cx="20.05" cy="20.05" r="19.6"/><circle class="cls-2" cx="20.05" cy="20.05" r="18.55"/></g><path id="Icon_awesome-linkedin-in" data-name="Icon awesome-linkedin-in" class="cls-3" d="M14.69,28.78H10.93V16.66h3.76ZM12.81,15A2.19,2.19,0,1,1,15,12.81,2.19,2.19,0,0,1,12.81,15Zm16,13.77H25v-5.9c0-1.4,0-3.21-1.95-3.21s-2.26,1.53-2.26,3.11v6H17.05V16.66h3.61v1.66h.05a4,4,0,0,1,3.56-2c3.81,0,4.51,2.51,4.51,5.76v6.66Z"/></g></g></g></svg>