<svg xmlns="http://www.w3.org/2000/svg" viewBox="0 0 60.8 60.8"><defs><style>.cls-1{fill:#ef433f;}</style></defs><g id="Capa_2" data-name="Capa 2"><g id="Grillas"><path class="cls-1" d="M44.68,53.13l-5-13.9a5.73,5.73,0,0,1,3.45-7.33L57,26.9a5.74,5.74,0,0,0,3.45-7.34h0a5.73,5.73,0,0,0-7.33-3.44l-13.89,5a5.74,5.74,0,0,1-7.34-3.45l-5-13.89A5.74,5.74,0,0,0,19.56.34h0a5.73,5.73,0,0,0-3.44,7.33l5,13.9a5.73,5.73,0,0,1-3.45,7.33l-13.89,5A5.74,5.74,0,0,0,.34,41.24h0a5.72,5.72,0,0,0,7.33,3.44l13.9-5a5.73,5.73,0,0,1,7.33,3.45l5,13.89a5.73,5.73,0,0,0,7.33,3.45h0A5.72,5.72,0,0,0,44.68,53.13Z"/></g></g></svg>