<svg xmlns="http://www.w3.org/2000/svg" xmlns:xlink="http://www.w3.org/1999/xlink" viewBox="0 0 1433.55 1325.49"><defs><style>.cls-1{fill:none;}.cls-2{clip-path:url(#clip-path);}.cls-3{fill:#ef433f;}.cls-4{isolation:isolate;opacity:0.62;fill:url(#Degradado_sin_nombre_142);}</style><clipPath id="clip-path" transform="translate(386.73 353.16)"><rect class="cls-1" width="395.53" height="711.26"/></clipPath><linearGradient id="Degradado_sin_nombre_142" x1="-6306.13" y1="-2786.76" x2="-6306.13" y2="-2787.46" gradientTransform="matrix(-395.18, -1029.47, -2094.19, 803.88, -8328426.84, -4250926.12)" gradientUnits="userSpaceOnUse"><stop offset="0" stop-color="#ef433f"/><stop offset="1" stop-color="#782220"/></linearGradient></defs><g id="Capa_2" data-name="Capa 2"><g id="Grillas"><g class="cls-2"><g id="Enmascarar_grupo_3" data-name="Enmascarar grupo 3"><path id="Intersecci贸n_99" data-name="Intersecci贸n 99" class="cls-3" d="M189.21,536.66c-237-230.36-373-551.4-397.34-875.29,277.61-51.52,572.94,33.38,810,263.74s367.63,559.4,383.36,896C716.18,859.92,426.24,767,189.21,536.66Z" transform="translate(386.73 353.16)"/><path id="Intersecci贸n_100" data-name="Intersecci贸n 100" class="cls-4" d="M443.55,883.54c-284.75,131.19-584.41,112-830.28-24.67,101.62-314.29,310.55-578.79,595.3-710s587.49-102.4,838.25,49.56C940.3,497.48,728.3,752.37,443.55,883.54Z" transform="translate(386.73 353.16)"/></g></g></g></g></svg>