<svg xmlns="http://www.w3.org/2000/svg" viewBox="0 0 191.49 38.73"><defs><style>.cls-1{fill:#8f1c21;}</style></defs><g id="Capa_2" data-name="Capa 2"><g id="Grillas"><g id="Layer_1" data-name="Layer 1"><path class="cls-1" d="M28.22,38.72H17V31.26h6.57L17.08,9.57,7.93,38.73H0L12.82,0h8.62L31.93,33.19A4.26,4.26,0,0,1,28.22,38.72Z"/><path class="cls-1" d="M61.24,31.26,59,38.73H42a5.86,5.86,0,0,1-5.94-5.62V5.67A5.9,5.9,0,0,1,42,0H59l2.27,7.48H43.57V31.26Z"/><path class="cls-1" d="M116.92,22.19h-7.36V38.73h-7.48V.06h19.21a5.86,5.86,0,0,1,5.93,5.63V16.52A5.81,5.81,0,0,1,123,22a5.38,5.38,0,0,1,2.58,3.2l4.16,13.58h-7.78Zm-7.36-7.48h10.19V7.54H109.56Z"/><path class="cls-1" d="M159.38,33.06a5.67,5.67,0,0,1-5.67,5.67H140.18a5.86,5.86,0,0,1-5.94-5.62V5.67A5.9,5.9,0,0,1,140.18,0h18.28V7.48H141.72V31.26h10.19V23.1h-5.84V15.63h13.31V33.06Z"/><path class="cls-1" d="M191.49,5.63V33.06a5.9,5.9,0,0,1-5.94,5.67H172.28a5.86,5.86,0,0,1-5.94-5.62V5.67A5.9,5.9,0,0,1,172.28,0h13.27A5.86,5.86,0,0,1,191.49,5.63ZM184,7.48H173.82V31.26H184Z"/><path class="cls-1" d="M96.55,33.19,86.06,0H77.44l-9,27.24c.22-3.5-.33-12.23-11.08-14.74,0,0-2,14.2,10.61,16.15L64.62,38.73h7.93L81.7,9.57l6.45,21.69H81.58v7.47H92.84A4.26,4.26,0,0,0,96.55,33.19Z"/></g></g></g></svg>