<svg xmlns="http://www.w3.org/2000/svg" viewBox="0 0 40.1 40.1"><defs><style>.cls-1,.cls-2{fill:none;}.cls-2{stroke:#fff;stroke-width:3px;}.cls-3{fill:#fff;}</style></defs><g id="Capa_2" data-name="Capa 2"><g id="Grillas"><g id="Grupo_11" data-name="Grupo 11"><g id="Elipse_5" data-name="Elipse 5"><circle class="cls-1" cx="20.05" cy="20.05" r="19.6"/><circle class="cls-2" cx="20.05" cy="20.05" r="18.55"/></g><path id="Icon_awesome-instagram" data-name="Icon awesome-instagram" class="cls-3" d="M19.85,14.75a5,5,0,1,0,5,5h0a5,5,0,0,0-5-5Zm0,8.23a3.24,3.24,0,1,1,3.25-3.24h0A3.25,3.25,0,0,1,19.85,23Zm6.36-8.43A1.17,1.17,0,1,1,25,13.39a1.17,1.17,0,0,1,1.17,1.16Zm3.3,1.18a5.77,5.77,0,0,0-1.57-4.08,5.86,5.86,0,0,0-4.08-1.57c-1.6-.09-6.42-.09-8,0a5.79,5.79,0,0,0-4.07,1.57,5.77,5.77,0,0,0-1.57,4.08c-.09,1.61-.09,6.42,0,8a5.75,5.75,0,0,0,1.57,4.07,5.75,5.75,0,0,0,4.07,1.57c1.61.09,6.43.09,8,0a5.77,5.77,0,0,0,4.08-1.57,5.8,5.8,0,0,0,1.57-4.08c.09-1.6.09-6.41,0-8Zm-2.08,9.75a3.3,3.3,0,0,1-1.85,1.85c-1.28.5-4.31.39-5.73.39s-4.46.11-5.73-.39a3.3,3.3,0,0,1-1.85-1.85c-.51-1.28-.4-4.32-.4-5.74s-.11-4.46.39-5.73a3.3,3.3,0,0,1,1.85-1.85c1.28-.51,4.32-.39,5.74-.39s4.46-.11,5.73.39A3.24,3.24,0,0,1,27.43,14c.51,1.28.39,4.32.39,5.73S27.94,24.2,27.43,25.48Z"/></g></g></g></svg>