<svg xmlns="http://www.w3.org/2000/svg" viewBox="0 0 483.2 534.04"><defs><style>.cls-1{fill:#fbfbfb;stroke:#ccc;stroke-miterlimit:10;}.cls-2{fill:#1a2e35;}.cls-3{fill:#e1e1e1;}.cls-4{opacity:0.3;}.cls-5{fill:#911a1d;}.cls-6{fill:#375a64;}.cls-7{opacity:0.1;}.cls-8{fill:#fff;}.cls-9{fill:#c9655f;}.cls-10{fill:#a24640;}.cls-11{fill:#ff735d;}.cls-12{opacity:0.6;}.cls-13{fill:#cc675d;}.cls-14{fill:#9c4741;}.cls-15{fill:#ef443f;}</style></defs><g id="Capa_2" data-name="Capa 2"><g id="Grillas"><path class="cls-1" d="M384.74,550.53v81.9H81.3v-81.9H183.66V281.82q0-10.23.37-20.65t1.1-21L124.44,290.6q-8.06,6.21-15.91,7.49a42.73,42.73,0,0,1-14.8,0,34.49,34.49,0,0,1-12.43-4.75,27.88,27.88,0,0,1-8-7.13L37.42,238.68l166-139.29H297V550.53Z" transform="translate(-36.74 -98.89)"/><path class="cls-2" d="M519.94,631.48c0,.14-99,.25-221.06.25s-221.07-.11-221.07-.25,99-.25,221.07-.25S519.94,631.34,519.94,631.48Z" transform="translate(-36.74 -98.89)"/><polygon class="cls-3" points="249.5 141.06 204.13 309.52 204.13 532.59 408.03 532.59 408.03 142.02 249.5 141.06"/><polygon class="cls-3" points="211.02 313.58 245.93 178.08 265.25 203.34 239.99 302.5 211.02 313.58"/><polygon class="cls-3" points="245.93 178.08 342.08 178.08 337.45 203.24 265.25 203.34 245.93 178.08"/><g class="cls-4"><polygon points="211.02 313.58 245.93 178.08 265.25 203.34 239.99 302.5 211.02 313.58"/></g><g class="cls-4"><polygon points="245.93 178.08 342.08 178.08 337.45 203.24 265.25 203.34 245.93 178.08"/></g><polygon class="cls-3" points="239.99 302.5 319.58 302.5 337.45 203.24 265.25 203.34 239.99 302.5"/><polygon class="cls-3" points="211.02 313.58 319.63 313.58 319.63 302.5 239.99 302.5 211.02 313.58"/><path class="cls-2" d="M256,610.24l1.72,0,5,0,19.13-.05,69.7-.1-.2.19c0-43.54,0-100.09-.05-161.7h0l.25.25H256l.23-.24c0,47.4-.08,87.79-.11,116.35,0,14.29-.05,25.62-.06,33.39,0,3.87,0,6.86,0,8.89,0,1,0,1.77,0,2.3s0,.78,0,.78,0-.25,0-.76,0-1.27,0-2.27c0-2,0-5,0-8.84,0-7.75,0-19.06-.06-33.33,0-28.6-.07-69-.11-116.51v-.23H256l95.56,0h.25v.25h0c0,61.61,0,118.16-.06,161.7v.2h-.19l-69.82-.1-19.09-.05-5,0C256.56,610.26,256,610.24,256,610.24Z" transform="translate(-36.74 -98.89)"/><g class="cls-4"><polygon points="329.35 532.59 329.35 302.5 358.53 141.72 408.03 142.02 408.03 532.59 329.35 532.59"/></g><polygon class="cls-5" points="253.31 169.91 257.66 153.46 345.9 153.46 341.65 169.91 253.31 169.91"/><path class="cls-2" d="M247.76,412.47s.17-.09.51-.23l1.5-.6,5.78-2.27,21.11-8.17-.12.14c3.46-13.49,7.93-30.91,12.79-49.87,4.74-18.31,9.11-35.18,12.54-48.46l0,.17-14-19.05-3.83-5.26-1-1.39c-.22-.31-.32-.48-.32-.48l.37.45,1,1.35,3.92,5.19c3.38,4.54,8.23,11,14.15,18.95l.06.08,0,.09L289.82,351.6c-4.9,18.95-9.41,36.36-12.9,49.83l0,.1-.1,0-21.17,8-5.82,2.16-1.52.56C248,412.42,247.76,412.47,247.76,412.47Z" transform="translate(-36.74 -98.89)"/><path class="cls-6" d="M300.21,335.48c-.29,1-5.41,20.48-5.41,20.48h12l5.31-20.48Z" transform="translate(-36.74 -98.89)"/><polygon class="cls-6" points="276.42 234.37 263.48 234.37 264.21 231.85 277.15 231.85 276.42 234.37"/><path class="cls-2" d="M313.62,331.93a40.84,40.84,0,0,1-6.46.26,40.92,40.92,0,0,1-6.47-.26,41.72,41.72,0,0,1,6.47-.25A41.64,41.64,0,0,1,313.62,331.93Z" transform="translate(-36.74 -98.89)"/><polygon class="cls-6" points="267.62 265.4 254.69 265.4 255.41 262.88 268.35 262.88 267.62 265.4"/><path class="cls-2" d="M304.83,363a41,41,0,0,1-6.47.26,40.92,40.92,0,0,1-6.47-.26,41.72,41.72,0,0,1,6.47-.25A41.82,41.82,0,0,1,304.83,363Z" transform="translate(-36.74 -98.89)"/><polygon class="cls-6" points="286.72 295.43 249.5 295.43 250.66 289.15 287.89 289.15 286.72 295.43"/><path class="cls-2" d="M322.21,391.18c0,.14-7.51.25-16.78.25s-16.78-.11-16.78-.25,7.52-.25,16.78-.25S322.21,391,322.21,391.18Z" transform="translate(-36.74 -98.89)"/><polygon class="cls-2" points="263.95 244.32 271.09 244.32 268.48 240.16 263.95 244.32"/><path class="cls-2" d="M302,343.21s-2.58,9.22-2.58,9.22h5l2.07-9.22Z" transform="translate(-36.74 -98.89)"/><polygon class="cls-2" points="285.8 215.81 271.87 272.83 324.92 272.83 335.44 216.07 285.8 215.81"/><polygon class="cls-6" points="291.77 221.46 280.98 266.64 326.05 266.72 334.48 221.28 291.77 221.46"/><path class="cls-6" d="M322.66,315.05a16.35,16.35,0,0,1,3.1,2.53,15.73,15.73,0,0,1,2.75,2.89,30.91,30.91,0,0,1-5.85-5.42Z" transform="translate(-36.74 -98.89)"/><path class="cls-6" d="M317.46,365.23a20,20,0,0,1-4.12,3.81,19.38,19.38,0,0,1-4.78,2.93c-.07-.13,2-1.47,4.48-3.33S317.36,365.12,317.46,365.23Z" transform="translate(-36.74 -98.89)"/><g class="cls-7"><polygon points="211.02 313.58 319.63 313.58 319.63 302.5 239.99 302.5 211.02 313.58"/></g><path class="cls-8" d="M337.89,339.72a6.33,6.33,0,0,0,1.2.4,11.8,11.8,0,0,1,1.5.47,2.6,2.6,0,0,1,1,.73,1.88,1.88,0,0,1,.43,1.28,2.83,2.83,0,0,1-1,2.21,4.71,4.71,0,0,1-2.68,1.06l-.29,1.44h-1.59l.29-1.44a8.71,8.71,0,0,1-1.76-.34,4.78,4.78,0,0,1-1.34-.63l1.05-1.95a5.72,5.72,0,0,0,3.09.91,2.66,2.66,0,0,0,1.17-.21.68.68,0,0,0,.42-.61.59.59,0,0,0-.38-.52,7.14,7.14,0,0,0-1.19-.39,13.27,13.27,0,0,1-1.5-.49,2.79,2.79,0,0,1-1-.75,2,2,0,0,1-.43-1.32,2.87,2.87,0,0,1,1-2.27,4.75,4.75,0,0,1,2.8-1l.27-1.44h1.6l-.3,1.46a5.62,5.62,0,0,1,2.42.76l-1,1.94a4.15,4.15,0,0,0-1.19-.53,5,5,0,0,0-1.34-.18,2.6,2.6,0,0,0-1.23.25.78.78,0,0,0-.46.65A.57.57,0,0,0,337.89,339.72Z" transform="translate(-36.74 -98.89)"/><path class="cls-8" d="M346.48,339.72a6.48,6.48,0,0,0,1.21.4,11.1,11.1,0,0,1,1.49.47,2.63,2.63,0,0,1,1,.73,1.88,1.88,0,0,1,.42,1.28,2.86,2.86,0,0,1-1,2.21,4.74,4.74,0,0,1-2.68,1.06l-.29,1.44h-1.59l.29-1.44a8.58,8.58,0,0,1-1.76-.34,5,5,0,0,1-1.35-.63l1.05-1.95a5.72,5.72,0,0,0,1.49.68,5.48,5.48,0,0,0,1.6.23,2.68,2.68,0,0,0,1.18-.21A.67.67,0,0,0,348,343a.58.58,0,0,0-.37-.52,7.47,7.47,0,0,0-1.19-.39,13.27,13.27,0,0,1-1.5-.49,2.82,2.82,0,0,1-1-.75,2,2,0,0,1-.43-1.32,2.87,2.87,0,0,1,1-2.27,4.78,4.78,0,0,1,2.8-1l.28-1.44h1.59l-.29,1.46a5.57,5.57,0,0,1,2.41.76l-1,1.94a4.28,4.28,0,0,0-1.19-.53,5.11,5.11,0,0,0-1.35-.18,2.55,2.55,0,0,0-1.22.25.78.78,0,0,0-.46.65A.58.58,0,0,0,346.48,339.72Z" transform="translate(-36.74 -98.89)"/><path class="cls-8" d="M355.08,339.72a6.48,6.48,0,0,0,1.21.4,11.1,11.1,0,0,1,1.49.47,2.6,2.6,0,0,1,1,.73,1.84,1.84,0,0,1,.43,1.28,2.86,2.86,0,0,1-1,2.21,4.77,4.77,0,0,1-2.68,1.06l-.3,1.44h-1.59l.29-1.44a8.61,8.61,0,0,1-1.75-.34,4.71,4.71,0,0,1-1.35-.63l1.05-1.95a5.57,5.57,0,0,0,1.49.68,5.48,5.48,0,0,0,1.6.23,2.63,2.63,0,0,0,1.17-.21.68.68,0,0,0,.42-.61.57.57,0,0,0-.38-.52,7,7,0,0,0-1.18-.39,12,12,0,0,1-1.5-.49,2.82,2.82,0,0,1-1-.75,2,2,0,0,1-.43-1.32,2.87,2.87,0,0,1,1-2.27,4.75,4.75,0,0,1,2.8-1l.28-1.44h1.59l-.29,1.46a5.62,5.62,0,0,1,2.41.76l-1,1.94a4.21,4.21,0,0,0-1.18-.53,5.11,5.11,0,0,0-1.35-.18,2.62,2.62,0,0,0-1.23.25.8.8,0,0,0-.46.65A.57.57,0,0,0,355.08,339.72Z" transform="translate(-36.74 -98.89)"/><path class="cls-8" d="M326,264h-4l-1.07,1.8h-2.78l6-9.28h2.59l2.24,9.28h-2.61Zm-.4-1.94-.63-3-1.77,3Z" transform="translate(-36.74 -98.89)"/><path class="cls-8" d="M332.64,258.61h-2.85l.42-2.08h8.32l-.42,2.08h-2.84l-1.45,7.2H331.2Z" transform="translate(-36.74 -98.89)"/><path class="cls-8" d="M350.29,256.53l-1.84,9.28H346l1-4.89-3.09,4h-1.15l-1.69-4-1,4.89h-2.41l1.85-9.28h2.14l2.17,5.37,4.22-5.37Z" transform="translate(-36.74 -98.89)"/><g class="cls-4"><path d="M341.72,519.71a4.47,4.47,0,1,1-4.47-4.47A4.47,4.47,0,0,1,341.72,519.71Z" transform="translate(-36.74 -98.89)"/></g><path class="cls-2" d="M356.32,401.38c0,.14-17.79.26-39.72.26s-39.72-.12-39.72-.26,17.78-.25,39.72-.25S356.32,401.25,356.32,401.38Z" transform="translate(-36.74 -98.89)"/><path class="cls-2" d="M375.1,302.14c0,.14-16.37.25-36.56.25s-36.57-.11-36.57-.25,16.37-.26,36.57-.26S375.1,302,375.1,302.14Z" transform="translate(-36.74 -98.89)"/><path class="cls-2" d="M282.22,429.58a5.62,5.62,0,0,1,0-.63c0-.45,0-1,0-1.78,0-1.58,0-3.8-.08-6.59l.15.15c-7.6.06-19.7.1-33.29.1.11-.11-.26.25.25-.25h0v4.57c0,1.5,0,3,0,4.42l-.24-.24,23.7.11,7,.07,1.9,0,.68,0a4.52,4.52,0,0,1-.62,0l-1.85,0-6.95.07-23.87.11h-.25v-.25c0-1.44,0-2.92,0-4.42v-4.57h0l.26-.26c13.59,0,25.69,0,33.29.1h.16v.16c0,2.83-.07,5.08-.09,6.68,0,.73,0,1.31,0,1.74A3.83,3.83,0,0,1,282.22,429.58Z" transform="translate(-36.74 -98.89)"/><path class="cls-2" d="M279.85,424.81c0,.13-6.24.25-13.93.25s-13.92-.12-13.92-.25,6.23-.26,13.92-.26S279.85,424.67,279.85,424.81Z" transform="translate(-36.74 -98.89)"/><path class="cls-8" d="M243.24,275.75c-5.87.34-9.84-.74-15.29-3.54l-9.21,3.12L221.4,266c-3.33-4-4.19-8.18-4.52-13.74a25,25,0,1,1,26.36,23.47Z" transform="translate(-36.74 -98.89)"/><path class="cls-2" d="M243.24,275.75l.43-.07,1.26-.16c.28,0,.59-.06.93-.12l1.1-.25,1.28-.28,1.42-.47a28,28,0,0,0,3.24-1.34l1.75-1c.6-.35,1.18-.8,1.8-1.22a24.76,24.76,0,0,0,10.08-19.23,25.42,25.42,0,0,0-.15-3.36,16.33,16.33,0,0,0-.23-1.71l-.36-1.72a25.35,25.35,0,0,0-2.77-6.68,26.54,26.54,0,0,0-4.86-5.84,25.41,25.41,0,0,0-6.71-4.2,24.75,24.75,0,0,0-16.37-1,25.91,25.91,0,0,0-6.1,2.65,24.79,24.79,0,0,0-5,4.09l-.56.57-.51.62-1,1.24-.88,1.32-.43.66-.37.69c-.25.46-.49.92-.73,1.38l-.6,1.43a25.14,25.14,0,0,0-1,2.89,29.46,29.46,0,0,0-.39,11.61,21.61,21.61,0,0,0,1.38,5.27,17.74,17.74,0,0,0,2.68,4.4l.07.08,0,.1c-1,3.34-1.85,6.43-2.67,9.31l-.24-.22,9.22-3.09.06,0,.06,0a37.15,37.15,0,0,0,6.17,2.62,23.27,23.27,0,0,0,4.88.95c1.35.12,2.4.11,3.1.11h1.07a22.31,22.31,0,0,1-4.18.06,23.21,23.21,0,0,1-4.93-.89,36.46,36.46,0,0,1-6.25-2.58H228l-9.2,3.15-.33.11.1-.33L221.2,266l0,.19a17.68,17.68,0,0,1-2.77-4.5,22,22,0,0,1-1.43-5.36,29.69,29.69,0,0,1,.38-11.8,26.14,26.14,0,0,1,1-3c.2-.49.4-1,.61-1.46s.49-.93.74-1.41l.38-.7.44-.67c.29-.45.59-.9.89-1.35l1-1.26.52-.64.57-.58a25.2,25.2,0,0,1,5.15-4.18,26.77,26.77,0,0,1,6.22-2.71,25.27,25.27,0,0,1,16.7,1.07,25.87,25.87,0,0,1,6.84,4.3,26.48,26.48,0,0,1,4.93,6,25.68,25.68,0,0,1,2.81,6.82c.12.58.24,1.16.37,1.74s.14,1.17.22,1.74a26.45,26.45,0,0,1,.14,3.43,25.53,25.53,0,0,1-3.45,11.88,25.21,25.21,0,0,1-6.89,7.56c-.63.42-1.21.86-1.82,1.22l-1.78,1a27.18,27.18,0,0,1-3.29,1.32l-1.44.44-1.29.27-1.11.22c-.34.05-.66.07-.94.1l-1.26.11A1.83,1.83,0,0,1,243.24,275.75Z" transform="translate(-36.74 -98.89)"/><path class="cls-2" d="M246.15,255.18a5.5,5.5,0,0,1-3.23,1.45v2.08h-2.25v-2a11.39,11.39,0,0,1-2.66-.48,7.6,7.6,0,0,1-2.08-1l1.22-2.73a8.17,8.17,0,0,0,4.33,1.29c1.42,0,2.13-.35,2.13-1.07a.88.88,0,0,0-.61-.83,11.3,11.3,0,0,0-1.95-.57,18.84,18.84,0,0,1-2.48-.68,4.26,4.26,0,0,1-1.7-1.17,3.16,3.16,0,0,1-.71-2.18,3.73,3.73,0,0,1,1.16-2.76,5.48,5.48,0,0,1,3.35-1.41v-2.06h2.25v2a11.41,11.41,0,0,1,2.05.37,7.73,7.73,0,0,1,1.75.73L245.58,247a7.57,7.57,0,0,0-3.64-1,3.06,3.06,0,0,0-1.61.32,1,1,0,0,0-.5.86.84.84,0,0,0,.6.78,10.45,10.45,0,0,0,1.93.55,18.84,18.84,0,0,1,2.48.68,4.27,4.27,0,0,1,1.7,1.16,3.1,3.1,0,0,1,.72,2.16A3.7,3.7,0,0,1,246.15,255.18Z" transform="translate(-36.74 -98.89)"/><path class="cls-9" d="M151.88,334.09l-.54-44.6c-.5-11.09,5.54-20.62,16.64-20.81l1,0a19.85,19.85,0,0,1,19,19c.37,9.61.67,20.24.39,25.38-.57,10.64-11.28,11.86-11.28,11.86s-.07,6.47-.06,9.6l-6.26,5.17h0Z" transform="translate(-36.74 -98.89)"/><path class="cls-10" d="M177.14,325a25.79,25.79,0,0,1-13.69-4.67s3,8.14,13.66,7.62Z" transform="translate(-36.74 -98.89)"/><path class="cls-2" d="M184.64,297.31a1.53,1.53,0,0,1-1.53,1.47,1.45,1.45,0,0,1-1.51-1.43,1.52,1.52,0,0,1,1.53-1.48A1.46,1.46,0,0,1,184.64,297.31Z" transform="translate(-36.74 -98.89)"/><path class="cls-2" d="M185.57,292.38c-.2.19-1.31-.71-2.95-.78s-2.87.71-3,.5.13-.44.67-.8a4.12,4.12,0,0,1,2.44-.64,3.88,3.88,0,0,1,2.33.86C185.51,291.92,185.67,292.29,185.57,292.38Z" transform="translate(-36.74 -98.89)"/><path class="cls-2" d="M169.69,297a1.52,1.52,0,0,1-1.53,1.47,1.45,1.45,0,0,1-1.51-1.43,1.53,1.53,0,0,1,1.53-1.48A1.46,1.46,0,0,1,169.69,297Z" transform="translate(-36.74 -98.89)"/><path class="cls-2" d="M169.52,292.09c-.2.19-1.31-.71-3-.77s-2.87.7-3,.5.13-.44.67-.8a4.19,4.19,0,0,1,2.44-.65,4,4,0,0,1,2.33.86C169.46,291.64,169.62,292,169.52,292.09Z" transform="translate(-36.74 -98.89)"/><path class="cls-2" d="M174.87,304.9a11.55,11.55,0,0,1,2.68-.37c.42,0,.81-.09.9-.37a2.15,2.15,0,0,0-.23-1.25c-.35-1-.72-2.1-1.11-3.23-1.52-4.6-2.61-8.38-2.43-8.44s1.58,3.62,3.11,8.22c.36,1.14.72,2.22,1.05,3.25a2.41,2.41,0,0,1,.15,1.65,1,1,0,0,1-.71.58,2.77,2.77,0,0,1-.72.07A10.19,10.19,0,0,1,174.87,304.9Z" transform="translate(-36.74 -98.89)"/><path class="cls-2" d="M170.26,287c-.24.41-1.81-.1-3.74-.22s-3.55.11-3.73-.33c-.08-.21.27-.57,1-.88a6.27,6.27,0,0,1,2.89-.45,6.21,6.21,0,0,1,2.8.87C170.08,286.39,170.37,286.8,170.26,287Z" transform="translate(-36.74 -98.89)"/><path class="cls-2" d="M185.84,287.57c-.35.36-1.67-.06-3.27-.12s-3,.17-3.27-.23c-.13-.19.09-.55.7-.89a5.45,5.45,0,0,1,5.27.28C185.82,287,186,287.39,185.84,287.57Z" transform="translate(-36.74 -98.89)"/><path class="cls-9" d="M151.88,297.41c-.17-.09-7.22-2.47-7.29,4.82s7.26,5.85,7.28,5.64S151.88,297.41,151.88,297.41Z" transform="translate(-36.74 -98.89)"/><path class="cls-10" d="M149.67,305.09s-.13.09-.35.18a1.2,1.2,0,0,1-.94,0,3.11,3.11,0,0,1-1.43-2.83,4.21,4.21,0,0,1,.37-1.81,1.5,1.5,0,0,1,1-1,.66.66,0,0,1,.75.36c.1.2.05.35.09.36s.15-.12.1-.42a.79.79,0,0,0-.28-.46,1,1,0,0,0-.7-.19,1.75,1.75,0,0,0-1.34,1.12,4.27,4.27,0,0,0-.46,2c0,1.47.77,2.85,1.82,3.17a1.41,1.41,0,0,0,1.17-.19C149.65,305.27,149.69,305.1,149.67,305.09Z" transform="translate(-36.74 -98.89)"/><path class="cls-2" d="M169.73,305.92c.25,0,.26,1.65,1.7,2.83s3.22,1,3.23,1.23-.39.32-1.15.35a4.18,4.18,0,0,1-2.69-.93A3.6,3.6,0,0,1,169.5,307C169.43,306.32,169.62,305.91,169.73,305.92Z" transform="translate(-36.74 -98.89)"/><path class="cls-2" d="M202.73,278.18a1.73,1.73,0,0,0-.8-1,5.36,5.36,0,0,0-2.72-.47,15.27,15.27,0,0,1-6.64-1.75,7.66,7.66,0,0,0,2-1.35,4.59,4.59,0,0,0,1.37-4.54,1.05,1.05,0,0,0-.56-.7c-.48-.15-.9.31-1.23.68a3.92,3.92,0,0,1-3.72,1.52,6.39,6.39,0,0,1-2.76-.85.81.81,0,0,1-.09-.1l-1.1-1.14h0c-2.71-2.75-5-4.66-7.46-5.66-3.54-1.48-9.48-2.13-13.2-1.19s-7.09,3.9-7.65,7.69c-2.06-1.78-5.18-1.8-7.72-.81l-.07,0c-2.83,1-4.47,3.94-5.33,6.8,0,.16-.09.32-.14.48A11.18,11.18,0,0,1,141,279.4c-.28.16-.59.35-.63.66s.22.57.47.76a5.63,5.63,0,0,0,2.28,1,12.92,12.92,0,0,1-1,2c-.33.53-.71,1.17-.44,1.74a1.19,1.19,0,0,0,1.24.55,3.32,3.32,0,0,0,1.32-.58l-1,2.25a6.64,6.64,0,0,0,3.07-.17c.57,2.7,1,7.69,1.64,9.52,1.93.06,2.4-.15,3.37.19,1.26.43.75,2.66,2.4,2,.84-.31,2.16-3.46,2.45-4.31a41.52,41.52,0,0,0,2-17.59,13.38,13.38,0,0,1,4.17-2.94l-.13.12c3-1,6.37-2,9.18-.55,2.18,1.11,3.45,3.4,5.07,5.23a15.21,15.21,0,0,0,11.19,5.6c.38,3.23.44,8.49.57,11.49l2.63-6v0a10.72,10.72,0,0,0,.55-1.06l.06-.11h0a18.19,18.19,0,0,1,.87-1.7l0,0a1.88,1.88,0,0,0,2.77-2.48,4.32,4.32,0,0,0-.89-.92,3,3,0,0,0,2.82.76,2.33,2.33,0,0,0,1.67-2.28,2,2,0,0,0-1.16-1.6,6.66,6.66,0,0,0,3.81-.79C202.23,279.83,203,279.13,202.73,278.18Z" transform="translate(-36.74 -98.89)"/><path class="cls-6" d="M161.48,270.56a10.09,10.09,0,0,0-1.09,1,7.64,7.64,0,0,0-1.67,3.52,14,14,0,0,0-.31,2.71c0,1,.06,2,.12,3.14a28.92,28.92,0,0,1,0,3.5,11.64,11.64,0,0,1-.26,1.84,3.74,3.74,0,0,1-.78,1.78,1.6,1.6,0,0,1-1.51.49,2.38,2.38,0,0,1-1.34-.78,5.49,5.49,0,0,1-1-2.72l.23,0a9,9,0,0,1-1.33,2.22,3.15,3.15,0,0,1-2.08,1.1,2,2,0,0,1-1.1-.2,1.73,1.73,0,0,1-.74-.75,1.78,1.78,0,0,1-.22-.94,1.34,1.34,0,0,1,.36-.83l.11.1a7.1,7.1,0,0,1-2.31,1.7,6.89,6.89,0,0,1-.72.26.8.8,0,0,1-.25.06l.24-.1a6,6,0,0,0,.69-.3,7.05,7.05,0,0,0,2.23-1.72l.12.11a1.34,1.34,0,0,0-.09,1.58,1.56,1.56,0,0,0,.66.66,1.88,1.88,0,0,0,1,.17,3,3,0,0,0,1.94-1.05,8.85,8.85,0,0,0,1.27-2.17l.16-.34.06.37a5.54,5.54,0,0,0,1,2.6,2.19,2.19,0,0,0,1.21.7,1.37,1.37,0,0,0,1.28-.42,3.61,3.61,0,0,0,.72-1.66,14.09,14.09,0,0,0,.26-1.81,30.73,30.73,0,0,0,0-3.47c-.06-1.1-.12-2.16-.09-3.16a13.5,13.5,0,0,1,.34-2.74,7.61,7.61,0,0,1,1.77-3.55A4.39,4.39,0,0,1,161.48,270.56Z" transform="translate(-36.74 -98.89)"/><path class="cls-6" d="M194.35,281.32l-.09.07-.27.19c-.12.08-.27.18-.45.28a5.71,5.71,0,0,1-.66.34,9.43,9.43,0,0,1-4.57.77,12.16,12.16,0,0,1-6.41-2.45,21.07,21.07,0,0,1-5.46-6.44c-.76-1.3-1.37-2.63-2.06-3.86A14,14,0,0,0,172,267a7.23,7.23,0,0,0-3-1.9,5.12,5.12,0,0,0-1.62-.21,5.47,5.47,0,0,0-1.49.27,6.13,6.13,0,0,0-3.46,2.86,7.94,7.94,0,0,0-.57,1.59.87.87,0,0,1,0-.11c0-.09,0-.19.06-.33a4.9,4.9,0,0,1,.42-1.19,5.78,5.78,0,0,1,1.21-1.61,6.2,6.2,0,0,1,2.28-1.38,6.11,6.11,0,0,1,1.53-.29,5.44,5.44,0,0,1,1.68.2,7.46,7.46,0,0,1,3.16,1.93,14.41,14.41,0,0,1,2.4,3.32c.69,1.24,1.31,2.57,2.06,3.86a21,21,0,0,0,5.38,6.37,12,12,0,0,0,6.28,2.46,9.67,9.67,0,0,0,4.52-.68C193.85,281.67,194.33,281.28,194.35,281.32Z" transform="translate(-36.74 -98.89)"/><path class="cls-6" d="M195.37,276.64s-.13.11-.39.26a7.37,7.37,0,0,1-1.13.56,10.35,10.35,0,0,1-1.8.57,12.48,12.48,0,0,1-2.3.28,12.89,12.89,0,0,1-2.31-.18,9.83,9.83,0,0,1-1.82-.5,7.61,7.61,0,0,1-1.16-.51,1.65,1.65,0,0,1-.4-.25s.61.27,1.62.6a13.69,13.69,0,0,0,1.8.43,13.43,13.43,0,0,0,2.26.16,14.07,14.07,0,0,0,2.26-.25,12.54,12.54,0,0,0,1.78-.51C194.77,276.93,195.35,276.6,195.37,276.64Z" transform="translate(-36.74 -98.89)"/><path class="cls-11" d="M147,594.46l-17.32,13.93s9.55,21.2,6.6,24.09l-29.42-31.54L133,578.13Z" transform="translate(-36.74 -98.89)"/><g class="cls-12"><path class="cls-8" d="M122.38,597.08a1.77,1.77,0,0,0-2.32.39,1.69,1.69,0,0,0,.37,2.3,1.85,1.85,0,0,0,2.45-.43,1.76,1.76,0,0,0-.65-2.35" transform="translate(-36.74 -98.89)"/></g><g class="cls-12"><path class="cls-8" d="M106.87,600.94l2.63-2.29,27.35,31.43a3,3,0,0,1-.64,2.77Z" transform="translate(-36.74 -98.89)"/></g><path class="cls-2" d="M130.31,608.77c-.16.13-.92-.6-2.11-.94s-2.22-.18-2.29-.38,1.06-.76,2.5-.32S130.49,608.68,130.31,608.77Z" transform="translate(-36.74 -98.89)"/><path class="cls-2" d="M131.86,613.42c-.13.17-1-.29-2.13-.25s-2,.5-2.12.34.68-1,2.1-1.07S132,613.28,131.86,613.42Z" transform="translate(-36.74 -98.89)"/><path class="cls-2" d="M129.44,618.9c-.15-.12.45-1,1.67-1.37s2.22.1,2.15.28-.94.12-1.94.42S129.6,619,129.44,618.9Z" transform="translate(-36.74 -98.89)"/><path class="cls-2" d="M133.91,605.16c-.21.06-.62-.86-1.46-1.71s-1.73-1.3-1.66-1.5,1.21,0,2.19,1S134.1,605.13,133.91,605.16Z" transform="translate(-36.74 -98.89)"/><g class="cls-4"><polygon points="106.83 498.32 103.75 500.81 88.96 485.6 92.71 482.3 106.83 498.32"/></g><path class="cls-2" d="M137.35,602.28c-.07.06-.71-.48-1.41-1.64a9.75,9.75,0,0,1-.95-2.16,9.46,9.46,0,0,1-.31-1.37,2.61,2.61,0,0,1-.05-.82.93.93,0,0,1,.79-.81,1.17,1.17,0,0,1,1,.38,3,3,0,0,1,.44.69,7.28,7.28,0,0,1,.53,1.32,7.48,7.48,0,0,1,.32,2.36,3.56,3.56,0,0,1-.5,2.1c-.11,0,.07-.82,0-2.09a8.88,8.88,0,0,0-.44-2.17,9.35,9.35,0,0,0-.52-1.19c-.21-.42-.46-.72-.69-.67s-.12,0-.16.19a2.25,2.25,0,0,0,0,.61,11.4,11.4,0,0,0,1,3.39A14.85,14.85,0,0,1,137.35,602.28Z" transform="translate(-36.74 -98.89)"/><path class="cls-2" d="M136.94,602.27c-.07,0,.23-.84,1.21-1.79a7,7,0,0,1,2-1.33,7.37,7.37,0,0,1,1.35-.44,1.76,1.76,0,0,1,1.72.33,1,1,0,0,1,.14,1.08,3.08,3.08,0,0,1-.45.68,4.93,4.93,0,0,1-1.1,1,5.11,5.11,0,0,1-2.29.76c-1.4.09-2.17-.41-2.12-.47a16,16,0,0,0,2.05,0,4.89,4.89,0,0,0,2-.81,4.55,4.55,0,0,0,.92-.84c.3-.36.47-.73.32-.83a1.26,1.26,0,0,0-1-.11,7.66,7.66,0,0,0-1.23.37,7.36,7.36,0,0,0-1.9,1.09C137.49,601.65,137,602.34,136.94,602.27Z" transform="translate(-36.74 -98.89)"/><path class="cls-11" d="M146,597.29l1.68,22.16s-22,7.54-22.09,11.66l43.13-.09-1.2-34.64Z" transform="translate(-36.74 -98.89)"/><g class="cls-12"><path class="cls-8" d="M160.89,617.06a1.76,1.76,0,0,1,1.3,2,1.69,1.69,0,0,1-1.93,1.3,1.87,1.87,0,0,1-1.37-2.08,1.76,1.76,0,0,1,2.16-1.13" transform="translate(-36.74 -98.89)"/></g><g class="cls-12"><path class="cls-8" d="M168.68,631l-.12-3.49-41.64,1.54a3,3,0,0,0-1.58,2.36Z" transform="translate(-36.74 -98.89)"/></g><path class="cls-2" d="M146.94,619.26c0,.21,1.07.27,2.13.9s1.65,1.5,1.84,1.41-.17-1.29-1.47-2S146.88,619.07,146.94,619.26Z" transform="translate(-36.74 -98.89)"/><path class="cls-2" d="M142.49,621.31c0,.21.89.53,1.64,1.39s1,1.8,1.2,1.78.29-1.22-.66-2.27S142.49,621.11,142.49,621.31Z" transform="translate(-36.74 -98.89)"/><path class="cls-2" d="M140.14,626.82c.19,0,.44-1-.14-2.15s-1.59-1.55-1.67-1.37.55.77,1,1.7S139.93,626.81,140.14,626.82Z" transform="translate(-36.74 -98.89)"/><path class="cls-2" d="M147.11,614.17c.1.19,1-.14,2.24-.11s2.14.37,2.24.19-.82-.9-2.22-.92S147,614,147.11,614.17Z" transform="translate(-36.74 -98.89)"/><g class="cls-4"><polygon points="110.19 511.1 110.49 515.05 131.34 514.68 131.19 510.46 110.19 511.1"/></g><path class="cls-2" d="M146.86,609.69a3.94,3.94,0,0,0,2.15-.09,9.87,9.87,0,0,0,2.23-.79,11.84,11.84,0,0,0,1.22-.7,2.93,2.93,0,0,0,.63-.54.92.92,0,0,0,0-1.12,1.18,1.18,0,0,0-.94-.45,3.08,3.08,0,0,0-.81.15,7.54,7.54,0,0,0-3.26,1.9c-1,1-1.27,1.76-1.2,1.8s.56-.61,1.55-1.42a8.43,8.43,0,0,1,1.88-1.16,8.75,8.75,0,0,1,1.22-.43c.46-.14.84-.16,1,0s0,.11,0,.25a2.43,2.43,0,0,1-.46.39,11.3,11.3,0,0,1-1.12.69,11.47,11.47,0,0,1-2.05.89A15.52,15.52,0,0,0,146.86,609.69Z" transform="translate(-36.74 -98.89)"/><path class="cls-2" d="M147.14,610a3.35,3.35,0,0,0,.49-2.1,7,7,0,0,0-1-3.64,1.78,1.78,0,0,0-1.42-1,1,1,0,0,0-.88.64,3,3,0,0,0-.19.8,4.63,4.63,0,0,0,.06,1.45,5,5,0,0,0,1,2.2c.88,1.08,1.77,1.3,1.79,1.22s-.69-.48-1.37-1.53a5,5,0,0,1-.77-2,4.74,4.74,0,0,1,0-1.25c0-.46.21-.84.38-.8s.6.32.79.68a8.86,8.86,0,0,1,.58,1.15,7.62,7.62,0,0,1,.5,2.14C147.22,609.16,147,610,147.14,610Z" transform="translate(-36.74 -98.89)"/><path class="cls-2" d="M129.92,437.73s4.67,66.37,6.49,81.59c1.16,9.68,6.75,91,6.75,91l28.13-.87-4.53-128.84V441.11Z" transform="translate(-36.74 -98.89)"/><path class="cls-2" d="M126.14,579.76l18.63,18.89s56.4-55,58.69-59.08,1.6-55,1.6-55l-1.65-45.56-40.27,2.05,4,45.32,5.37,41.69Z" transform="translate(-36.74 -98.89)"/><path class="cls-6" d="M177.31,566.63s-.19.21-.58.61L175,569l-6.56,6.53L144.9,598.79l-.14.13-.13-.14L126,579.92l-.14-.15.14-.16,15-16.76L172.34,528l-.05.16c-1.68-14.22-3.09-26.09-4.07-34.42-.48-4.14-.85-7.41-1.11-9.66-.12-1.1-.21-1.95-.28-2.54,0-.28-.05-.49-.06-.66a.92.92,0,0,1,0-.22,1.73,1.73,0,0,1,0,.22c0,.16,0,.37.09.65.08.59.19,1.44.34,2.54.28,2.24.7,5.5,1.22,9.64,1,8.33,2.48,20.19,4.23,34.4v.09l-.06.07-31.28,34.91-15,16.75v-.3l18.61,18.9h-.28l23.66-23.17,6.64-6.46,1.76-1.69C177.09,566.81,177.31,566.63,177.31,566.63Z" transform="translate(-36.74 -98.89)"/><path class="cls-6" d="M181.31,532.09a22.11,22.11,0,0,1-4.11-1.77,22,22,0,0,1-3.9-2.17,20.88,20.88,0,0,1,4.11,1.76A21.68,21.68,0,0,1,181.31,532.09Z" transform="translate(-36.74 -98.89)"/><path class="cls-6" d="M170.19,478.42a9.36,9.36,0,0,1-1.69.17l-4.53.24h-.2v-.21c0-2.34,0-5.2-.07-8.29-.08-4-.23-7.64-.35-10.27,0-1.24-.1-2.28-.13-3.11a5.74,5.74,0,0,1,0-1.15,6.32,6.32,0,0,1,.18,1.14c.08.73.18,1.79.28,3.1.2,2.63.4,6.26.48,10.28.06,3.1,0,6,0,8.31l-.2-.19,4.54-.08A10.32,10.32,0,0,1,170.19,478.42Z" transform="translate(-36.74 -98.89)"/><path class="cls-6" d="M168.23,457.34s.16-.08.45,0a2,2,0,0,1,1.1.56,2.2,2.2,0,0,1,.67,1.72,2.08,2.08,0,0,1-1.49,1.7,2.05,2.05,0,0,1-2.19-.54,2.22,2.22,0,0,1-.44-1.8,2,2,0,0,1,.59-1.09c.22-.19.39-.23.4-.21a2.59,2.59,0,0,0-.67,1.35,2,2,0,0,0,.44,1.47,1.79,1.79,0,0,0,2.94-.92,2,2,0,0,0-.48-1.46A2.7,2.7,0,0,0,168.23,457.34Z" transform="translate(-36.74 -98.89)"/><polygon class="cls-13" points="225.29 272.82 197.72 284.02 198.78 297.43 227.06 285.12 229.52 278.11 225.29 272.82"/><polyline class="cls-2" points="240.74 274.03 240.74 272.82 257.38 272.82 257.38 274.03"/><path class="cls-13" d="M262,371.7l10.06-3.22,10.63,1.31s.29,1.53-1.65,1.91a34.25,34.25,0,0,1-6.49,0s-.1,5.16-6.23,6.62l-4,.48Z" transform="translate(-36.74 -98.89)"/><path class="cls-13" d="M278.09,371.87s.45-.06.75,1.22a6.65,6.65,0,0,1-.37,3.12s.51,1.91-.38,2.59l-.89.69s-.06,2.89-.95,3.67S268,386.5,268,386.5l-5.57-2.28,2.12-6.18,8.79-5.45,1.22-.89Z" transform="translate(-36.74 -98.89)"/><path class="cls-14" d="M277.15,378.8a4.51,4.51,0,0,1-1-.69c-.64-.47-1.54-1.15-2.6-2l.21,0a1.53,1.53,0,0,0-.86,1.1,2.68,2.68,0,0,0,.35,1.59,5.36,5.36,0,0,0,.59.92l.53.67-.78-.33a3.14,3.14,0,0,0-2.84.2l-.2.12-.07-.22a3,3,0,0,0-1.65-1.82c-.57-.25-.94-.24-.94-.29a1.57,1.57,0,0,1,1,.1,3.1,3.1,0,0,1,1.92,1.9l-.28-.1a3.5,3.5,0,0,1,3.21-.29l-.25.34a6.13,6.13,0,0,1-.65-1,3.09,3.09,0,0,1-.38-1.86,1.94,1.94,0,0,1,1.1-1.38l.12-.06.1.08c1,.85,1.9,1.58,2.5,2.1A5.19,5.19,0,0,1,277.15,378.8Z" transform="translate(-36.74 -98.89)"/><path class="cls-14" d="M273.62,376a2.43,2.43,0,0,1-.74-1.19,1.88,1.88,0,0,1,.15-1.58,2.74,2.74,0,0,1,1.6-1.12l.11,0,.09.08.2.18a28.52,28.52,0,0,1,3.56,3.49,29.35,29.35,0,0,1-3.85-3.16l-.2-.18.2,0a2.47,2.47,0,0,0-1.38.91,1.64,1.64,0,0,0-.19,1.29C273.37,375.51,273.7,376,273.62,376Z" transform="translate(-36.74 -98.89)"/><path class="cls-14" d="M274.85,372.57s-.35-.35-.46-1.12a3.23,3.23,0,0,1,.13-1.34,1,1,0,0,1,.25-.4.6.6,0,0,1,.57-.1,3.93,3.93,0,0,1,.74.47,9.69,9.69,0,0,1,2.83,2.9c-.1.09-1.32-1.24-3.09-2.55a4.35,4.35,0,0,0-.62-.41.15.15,0,0,0-.16,0,.56.56,0,0,0-.14.22,3.28,3.28,0,0,0-.2,1.18C274.72,372.13,274.92,372.54,274.85,372.57Z" transform="translate(-36.74 -98.89)"/><path class="cls-14" d="M274.8,371.55s-.12.15-.41.12-.65-.16-.84.22a10.48,10.48,0,0,1-1.93,3.08,10,10,0,0,1-2.94,2.18,3.58,3.58,0,0,1-1.45.45,15.42,15.42,0,0,0,4.07-2.93,13.25,13.25,0,0,0,2-2.95.68.68,0,0,1,.65-.33,2.42,2.42,0,0,1,.47.12C274.65,371.58,274.78,371.52,274.8,371.55Z" transform="translate(-36.74 -98.89)"/><path class="cls-15" d="M200.69,336.71a27.35,27.35,0,0,1,6.5,9.68c1.58,4.24,11.15,36.62,11.15,36.62l33.32-7.09,5.54,15.4s-37.47,14.89-43,15c-7.35.18-13.42-4.88-13.52-12.66S200.69,336.71,200.69,336.71Z" transform="translate(-36.74 -98.89)"/><path class="cls-3" d="M152.08,328.62s7.31,8,26.47,1.62L190.66,348,203.11,448.8l-40.81,6.59-31.78-5.05L140.65,348Z" transform="translate(-36.74 -98.89)"/><path class="cls-15" d="M153.81,329.67c1.55,3.41,5.31,11.44,5.31,11.44s-9.47,62.87-10.47,72.81c-1.1,10.95,5.68,49.71,5.68,49.71l-33.23-5.19,9.35-102.51-4.54-19.78a106,106,0,0,1,16.14-5l7-1,1.56-3.47,1.19-2.06Z" transform="translate(-36.74 -98.89)"/><g class="cls-4"><path d="M155.54,406.35c-4.06-.09-15.89,3.32-19.93,3.76s-7,1-10.39,3.44l-.51,5.35c2.36,1.17,5,1.45,7.62,1.89a9.26,9.26,0,0,0,7.47-1.64c1.1-.93,1.91-2.2,3.14-2.95s2.35-1.8,3.65-1.54C156.38,416.56,158.87,408.12,155.54,406.35Z" transform="translate(-36.74 -98.89)"/></g><path class="cls-2" d="M149.81,330.8a4.15,4.15,0,0,1,.31.92c.17.6.4,1.47.68,2.55.54,2.15,1.27,5.14,2,8.44l.8,3.45h-.43a14,14,0,0,1,1.28-3.3,6.91,6.91,0,0,1,1.69-2.25,1.63,1.63,0,0,1,1.05-.33,1.39,1.39,0,0,1,.77.3c.35.3.31.6.3.59a1.28,1.28,0,0,0-.39-.47,1.31,1.31,0,0,0-1.56.13,7.12,7.12,0,0,0-1.53,2.2,14.29,14.29,0,0,0-1.18,3.24l-.21.91-.22-.91c-.26-1.09-.53-2.25-.82-3.46-.78-3.3-1.45-6.29-1.92-8.47-.24-1.08-.42-2-.53-2.58A3.94,3.94,0,0,1,149.81,330.8Z" transform="translate(-36.74 -98.89)"/><path class="cls-5" d="M129.58,415.61l8.42,2.45a47.49,47.49,0,0,1,3.22,13.71c.5,7.34-2.72,60.49-2.72,60.49l-27-1.16-.82-2.46a9.88,9.88,0,0,1-.48-3.89c.68-8.74,1.88-39.05,8.44-56.7C121.77,419.65,129.58,415.61,129.58,415.61Z" transform="translate(-36.74 -98.89)"/><path class="cls-5" d="M139,331.29s2.56,4.83,2.26,15.47-15.06,84.72-15.06,84.72l9.4.82s9.57-61.52,10.07-67.71,4-28.76,0-33.69C145.68,330.9,141.76,329.18,139,331.29Z" transform="translate(-36.74 -98.89)"/><path class="cls-5" d="M122.79,421.18s-9.89,12.33-13.19,35.59l4.37,1Z" transform="translate(-36.74 -98.89)"/><path class="cls-2" d="M128.53,426.51a1.53,1.53,0,0,1,0,.45c-.05.35-.12.77-.2,1.28-.17,1.12-.43,2.72-.71,4.71-.57,4-1.11,9.53-2.25,15.58-.29,1.51-.59,3-.94,4.4a10.45,10.45,0,0,1-1.72,3.87,4.34,4.34,0,0,1-3.39,1.74,19.92,19.92,0,0,1-3.31-.39c-2-.35-3.55-.82-4.66-1l-1.27-.25a1.43,1.43,0,0,1-.44-.12,2.64,2.64,0,0,1,.46,0c.29,0,.72.08,1.28.16,1.13.15,2.71.57,4.69.87a20.16,20.16,0,0,0,3.23.33,4,4,0,0,0,3.08-1.62,10.09,10.09,0,0,0,1.61-3.73c.34-1.39.64-2.87.93-4.37,1.13-6,1.72-11.56,2.38-15.53.32-2,.63-3.6.85-4.7.12-.51.21-.92.29-1.26A1.59,1.59,0,0,1,128.53,426.51Z" transform="translate(-36.74 -98.89)"/><path class="cls-2" d="M138.19,418.56a9.81,9.81,0,0,1-.07,1.45c-.1,1-.23,2.35-.38,3.95-.09.84-.19,1.75-.29,2.73a24.1,24.1,0,0,1-.44,3.14,5.07,5.07,0,0,1-1.9,3,4.47,4.47,0,0,1-3.72.8,4.29,4.29,0,0,1-2.93-2.43,7.21,7.21,0,0,1-.32-3.53c.23-2.21.53-4.19.85-5.84s.62-3,.86-3.87a8.33,8.33,0,0,1,.43-1.4A10.73,10.73,0,0,1,130,418c-.19.91-.45,2.24-.72,3.89s-.55,3.62-.75,5.82a7.1,7.1,0,0,0,.32,3.32,3.82,3.82,0,0,0,2.62,2.15,4,4,0,0,0,3.34-.71,4.67,4.67,0,0,0,1.76-2.74,25,25,0,0,0,.47-3.08c.12-1,.24-1.88.34-2.71.22-1.6.39-2.93.53-3.94A8.76,8.76,0,0,1,138.19,418.56Z" transform="translate(-36.74 -98.89)"/><path class="cls-2" d="M138.56,492.32a7.65,7.65,0,0,1-1-1c-.62-.64-1.52-1.56-2.65-2.67s-2.52-2.41-4.1-3.78c-.8-.69-1.64-1.4-2.53-2.12a7.87,7.87,0,0,0-3-1.67,3,3,0,0,0-1.65.08,4.92,4.92,0,0,0-1.42.85l-2.49,2.15-4.25,3.64-2.9,2.42a9.07,9.07,0,0,1-1.1.84,7.78,7.78,0,0,1,1-1l2.8-2.53c1.21-1.07,2.63-2.32,4.18-3.71l2.5-2.18a5.35,5.35,0,0,1,1.55-.94,3.5,3.5,0,0,1,1.9-.09,8.29,8.29,0,0,1,3.16,1.77c.89.73,1.73,1.45,2.52,2.15,1.57,1.4,2.94,2.73,4.05,3.87s2,2.1,2.55,2.78A7.36,7.36,0,0,1,138.56,492.32Z" transform="translate(-36.74 -98.89)"/><path class="cls-2" d="M131,434c.12,0-1.23,10.47-3,23.33s-3.35,23.29-3.48,23.27,1.23-10.46,3-23.33S130.83,434,131,434Z" transform="translate(-36.74 -98.89)"/><path class="cls-2" d="M135,429s-.05-.22-.16-.58a2.48,2.48,0,0,0-.91-1.24,2.25,2.25,0,1,0,0,3.64,2.48,2.48,0,0,0,.91-1.24c.11-.36.12-.58.16-.58a1,1,0,0,1,0,.62,2.5,2.5,0,0,1-.88,1.46,2.61,2.61,0,0,1-2.49.42,2.65,2.65,0,0,1,0-5,2.61,2.61,0,0,1,2.49.42,2.5,2.5,0,0,1,.88,1.46A1,1,0,0,1,135,429Z" transform="translate(-36.74 -98.89)"/><path class="cls-15" d="M206.85,463.63s-3.27-50.09-3-50.74-.56-31.57,0-32.06-3.13-44.12-3.13-44.12l-19.22-5.95.25,0-4.41-4.65s-5.51,17.91-5.3,18.12c8,8,18.65,61.88,10.54,98.25,0,.65-1,21.11-1,21.11Z" transform="translate(-36.74 -98.89)"/><path class="cls-2" d="M203,383.65a3.53,3.53,0,0,1-.65.51l-1.94,1.37,0,0-.06,0-10.21-4.94-.11,0v-.12c-.25-3.32-.53-7.08-.83-11.05-.26-3.72-.51-7.26-.74-10.44v-.18l.17,0a26.14,26.14,0,0,1,10.92.08,23.81,23.81,0,0,1,3,.85,4.66,4.66,0,0,1,1,.45s-.37-.11-1.06-.32a28.42,28.42,0,0,0-13.79-.65l.17-.22c.24,3.18.5,6.71.78,10.44.28,4,.55,7.73.79,11.05l-.12-.17,10.13,5.12h-.11l2-1.27A5.47,5.47,0,0,1,203,383.65Z" transform="translate(-36.74 -98.89)"/><path class="cls-2" d="M203.28,352.2a7.53,7.53,0,0,1,.14,1.31c.06.84.12,2.07.17,3.58.11,3,.14,7.2.11,11.81s0,8.79,0,11.81c0,1.45,0,2.65,0,3.58a6,6,0,0,1,0,1.32,8.41,8.41,0,0,1-.13-1.31c-.07-.85-.13-2.07-.18-3.58-.11-3-.14-7.2-.11-11.82s0-8.78,0-11.8c0-1.45,0-2.65,0-3.58A6.81,6.81,0,0,1,203.28,352.2Z" transform="translate(-36.74 -98.89)"/><path class="cls-2" d="M181.72,330.8a6,6,0,0,1-.06,1.2c-.07.77-.18,1.88-.34,3.25-.31,2.74-.79,6.52-1.44,10.67-.23,1.5-.47,2.95-.72,4.28l-.11.64-.3-.58a41.54,41.54,0,0,0-2.18-3.75c-.36-.55-.71-1.06-1-1.53a5.72,5.72,0,0,0-1-1.17,1.54,1.54,0,0,0-1.1-.41,1.31,1.31,0,0,0-.8.37,1.12,1.12,0,0,0-.28.7s-.2-.33.17-.8a1.5,1.5,0,0,1,.89-.49,1.74,1.74,0,0,1,1.29.41,5.55,5.55,0,0,1,1.1,1.2c.35.46.72,1,1.09,1.51a36.94,36.94,0,0,1,2.26,3.76l-.41.06c.22-1.34.46-2.78.7-4.27.65-4.15,1.17-7.92,1.57-10.64.19-1.3.35-2.38.48-3.23A5.93,5.93,0,0,1,181.72,330.8Z" transform="translate(-36.74 -98.89)"/><path class="cls-2" d="M203.32,364a12.14,12.14,0,0,1-2.1-.25c-1.29-.18-3.08-.39-5.06-.5s-3.78-.1-5.08-.06a11.4,11.4,0,0,1-2.12,0,7.86,7.86,0,0,1,2.1-.34,36.91,36.91,0,0,1,10.21.57A8.18,8.18,0,0,1,203.32,364Z" transform="translate(-36.74 -98.89)"/><path class="cls-15" d="M126.68,335.88s-4.14.75-8.06,9-14,35.62-14.67,37.45L124.57,396l11.64-34.5Z" transform="translate(-36.74 -98.89)"/><path class="cls-15" d="M137.44,410.23l.17-11.7L124.29,394l2.52-8.32L106.29,376s-9.18,24-9.12,28.43c0,1.63,3.67,9.92,11.31,10.66,5,.48,16.23,1.14,23.8,1.41A5,5,0,0,0,137.44,410.23Z" transform="translate(-36.74 -98.89)"/><path class="cls-2" d="M133.67,367.28c.12,0-1.68,6.12-4,13.59s-4.34,13.5-4.46,13.46,1.68-6.13,4-13.6S133.55,367.24,133.67,367.28Z" transform="translate(-36.74 -98.89)"/><path class="cls-2" d="M130.78,396.21a3.21,3.21,0,0,1-.87-.2c-.55-.15-1.34-.39-2.31-.7s-2.1-.76-3.39-1.1a23.91,23.91,0,0,0-4.26-.79,19.29,19.29,0,0,0-7.76.86c-1.91.66-3,1.34-3,1.26a3.17,3.17,0,0,1,.73-.51,14.59,14.59,0,0,1,2.19-1.06,18,18,0,0,1,7.91-1,26.79,26.79,0,0,1,7.72,2.05c1,.34,1.73.63,2.26.83A3.39,3.39,0,0,1,130.78,396.21Z" transform="translate(-36.74 -98.89)"/><path class="cls-2" d="M117.63,386.74a4.18,4.18,0,0,1,1.57.48,11.13,11.13,0,0,1,3.26,2.27,11.26,11.26,0,0,1,2.26,3.26,4,4,0,0,1,.47,1.58,18.28,18.28,0,0,0-3.06-4.52A18.77,18.77,0,0,0,117.63,386.74Z" transform="translate(-36.74 -98.89)"/><path class="cls-2" d="M133.48,355.81c-.09,0,.07-1.11,0-2.89a21.08,21.08,0,0,0-1.33-6.75,21.55,21.55,0,0,0-3.45-6c-1.13-1.37-2-2.09-1.92-2.15s.25.14.64.45A15.34,15.34,0,0,1,129,340a18.66,18.66,0,0,1,1.91,2.53A21,21,0,0,1,132.6,346a20.75,20.75,0,0,1,1,3.75,19.72,19.72,0,0,1,.23,3.16,13.2,13.2,0,0,1-.18,2.13A2.59,2.59,0,0,1,133.48,355.81Z" transform="translate(-36.74 -98.89)"/><g class="cls-4"><path d="M116.48,391.29A14,14,0,0,0,108,394.5a1,1,0,0,0-.43.65c0,.36.36.63.72.64a2.33,2.33,0,0,0,1-.34,20.23,20.23,0,0,1,15.5-1.22l.28-.26A14,14,0,0,0,116.48,391.29Z" transform="translate(-36.74 -98.89)"/></g><path class="cls-2" d="M137.61,412.6s0,.11,0,.31a4.4,4.4,0,0,1-.25.88,4.84,4.84,0,0,1-4.58,2.95l-2.64,0c-1.86,0-3.9-.13-6-.25-4.28-.24-8.15-.55-11-.8-1.39-.13-2.53-.25-3.31-.34a5.85,5.85,0,0,1-1.2-.19,6,6,0,0,1,1.22,0l3.32.19,11,.67c2.13.12,4.17.22,6,.29l2.63.07a4.45,4.45,0,0,0,2.16-.42,5,5,0,0,0,2.58-3.05A1.15,1.15,0,0,1,137.61,412.6Z" transform="translate(-36.74 -98.89)"/><path class="cls-2" d="M140.38,411.91l11.5.43c1.15,0,2.22-1,2.71-2.66l9-31.54c.57-2.18-.64-3.94-2.6-4.06l-15.2-1c-2.44,0-3.75,1.05-4.19,2.89l-5.92,25C134.43,406.28,136.79,411.78,140.38,411.91Z" transform="translate(-36.74 -98.89)"/><path class="cls-9" d="M130.55,397l3.06-6.47,5-1.68-1.54,6.19c2,.95,4.94,1.44,6.64.5s8.37-7.58,9.63-6.94,2.38,2.16,1.23,3.62-7.4,6-6.11,7.3,8.5-4.52,10.62-4.08,3.41,1.67,2.23,2.57-4.08,3.81-4.6,5.08c.13,1.59.88,3.85.19,4.24a25.92,25.92,0,0,1-5.31,1.84,58.14,58.14,0,0,0-5.53,2.06,12.36,12.36,0,0,1-8.7.2l-1.45-.5a5.55,5.55,0,0,1-3.71-5.3l.05-4.78Z" transform="translate(-36.74 -98.89)"/><path class="cls-6" d="M138.26,395.53a8.7,8.7,0,0,0,.49-1.53c.29-1.08.68-2.49,1.14-4.2s1-3.92,1.62-6.25c.3-1.18.61-2.42.94-3.7s.5-2.71,1.38-3.66,2.36-1,3.63-.93l3.8.28,6.44.46,4.34.27a8.51,8.51,0,0,0,1.6,0,11,11,0,0,0-1.58-.23l-4.33-.43-6.44-.57-3.8-.32a9.16,9.16,0,0,0-2.08.09,3.58,3.58,0,0,0-2,1,4.57,4.57,0,0,0-1,1.94c-.19.68-.34,1.32-.5,2-.32,1.28-.62,2.52-.91,3.7-.56,2.34-1.08,4.46-1.51,6.28s-.73,3.15-1,4.24A10.14,10.14,0,0,0,138.26,395.53Z" transform="translate(-36.74 -98.89)"/><path class="cls-8" d="M152.08,380.27a1.13,1.13,0,1,0,1.12-1.12A1.13,1.13,0,0,0,152.08,380.27Z" transform="translate(-36.74 -98.89)"/><path class="cls-2" d="M203.47,408.62c-.14,0-.29-12.63-.35-28.21s0-28.21.16-28.21.29,12.63.35,28.21S203.61,408.62,203.47,408.62Z" transform="translate(-36.74 -98.89)"/></g></g></svg>