<svg xmlns="http://www.w3.org/2000/svg" viewBox="0 0 192.74 392.95"><defs><style>.cls-1{fill:#ef433f;}</style></defs><g id="Capa_2" data-name="Capa 2"><g id="Grillas"><g id="dots"><path class="cls-1" d="M11.6,6.91A5.85,5.85,0,1,1,6.91.1,5.86,5.86,0,0,1,11.6,6.91Z"/><path class="cls-1" d="M56.86,6.91A5.85,5.85,0,1,1,52.17.1,5.86,5.86,0,0,1,56.86,6.91Z"/><path class="cls-1" d="M102.12,6.91A5.85,5.85,0,1,1,97.43.1,5.86,5.86,0,0,1,102.12,6.91Z"/><path class="cls-1" d="M147.38,6.91A5.85,5.85,0,1,1,142.69.1,5.86,5.86,0,0,1,147.38,6.91Z"/><path class="cls-1" d="M192.64,6.91A5.85,5.85,0,1,1,188,.1,5.86,5.86,0,0,1,192.64,6.91Z"/><path class="cls-1" d="M11.6,45a5.85,5.85,0,1,1-4.69-6.81A5.85,5.85,0,0,1,11.6,45Z"/><path class="cls-1" d="M56.86,45a5.85,5.85,0,1,1-4.69-6.81A5.85,5.85,0,0,1,56.86,45Z"/><path class="cls-1" d="M102.12,45a5.85,5.85,0,1,1-4.69-6.81A5.85,5.85,0,0,1,102.12,45Z"/><path class="cls-1" d="M147.38,45a5.85,5.85,0,1,1-4.69-6.81A5.84,5.84,0,0,1,147.38,45Z"/><path class="cls-1" d="M192.64,45A5.85,5.85,0,1,1,188,38.22,5.84,5.84,0,0,1,192.64,45Z"/><path class="cls-1" d="M11.6,83.16a5.85,5.85,0,1,1-4.69-6.81A5.85,5.85,0,0,1,11.6,83.16Z"/><path class="cls-1" d="M56.86,83.16a5.85,5.85,0,1,1-4.69-6.81A5.85,5.85,0,0,1,56.86,83.16Z"/><path class="cls-1" d="M102.12,83.16a5.85,5.85,0,1,1-4.69-6.81A5.85,5.85,0,0,1,102.12,83.16Z"/><path class="cls-1" d="M147.38,83.16a5.85,5.85,0,1,1-4.69-6.81A5.85,5.85,0,0,1,147.38,83.16Z"/><path class="cls-1" d="M192.64,83.16A5.85,5.85,0,1,1,188,76.35,5.85,5.85,0,0,1,192.64,83.16Z"/><path class="cls-1" d="M11.6,121.29a5.85,5.85,0,1,1-4.69-6.81A5.85,5.85,0,0,1,11.6,121.29Z"/><path class="cls-1" d="M56.86,121.29a5.85,5.85,0,1,1-4.69-6.81A5.85,5.85,0,0,1,56.86,121.29Z"/><path class="cls-1" d="M102.12,121.29a5.85,5.85,0,1,1-4.69-6.81A5.85,5.85,0,0,1,102.12,121.29Z"/><path class="cls-1" d="M147.38,121.29a5.85,5.85,0,1,1-4.69-6.81A5.84,5.84,0,0,1,147.38,121.29Z"/><path class="cls-1" d="M192.64,121.29a5.85,5.85,0,1,1-4.69-6.81A5.84,5.84,0,0,1,192.64,121.29Z"/><path class="cls-1" d="M11.6,159.41a5.85,5.85,0,1,1-4.69-6.81A5.85,5.85,0,0,1,11.6,159.41Z"/><path class="cls-1" d="M56.86,159.41a5.85,5.85,0,1,1-4.69-6.81A5.85,5.85,0,0,1,56.86,159.41Z"/><path class="cls-1" d="M102.12,159.41a5.85,5.85,0,1,1-4.69-6.81A5.85,5.85,0,0,1,102.12,159.41Z"/><path class="cls-1" d="M147.38,159.41a5.85,5.85,0,1,1-4.69-6.81A5.84,5.84,0,0,1,147.38,159.41Z"/><path class="cls-1" d="M192.64,159.41A5.85,5.85,0,1,1,188,152.6,5.84,5.84,0,0,1,192.64,159.41Z"/><path class="cls-1" d="M11.6,197.54a5.85,5.85,0,1,1-4.69-6.81A5.86,5.86,0,0,1,11.6,197.54Z"/><path class="cls-1" d="M56.86,197.54a5.85,5.85,0,1,1-4.69-6.81A5.86,5.86,0,0,1,56.86,197.54Z"/><path class="cls-1" d="M102.12,197.54a5.85,5.85,0,1,1-4.69-6.81A5.86,5.86,0,0,1,102.12,197.54Z"/><path class="cls-1" d="M147.38,197.54a5.85,5.85,0,1,1-4.69-6.81A5.86,5.86,0,0,1,147.38,197.54Z"/><path class="cls-1" d="M192.64,197.54a5.85,5.85,0,1,1-4.69-6.81A5.86,5.86,0,0,1,192.64,197.54Z"/><path class="cls-1" d="M11.6,235.66a5.85,5.85,0,1,1-4.69-6.81A5.85,5.85,0,0,1,11.6,235.66Z"/><path class="cls-1" d="M56.86,235.66a5.85,5.85,0,1,1-4.69-6.81A5.85,5.85,0,0,1,56.86,235.66Z"/><path class="cls-1" d="M102.12,235.66a5.85,5.85,0,1,1-4.69-6.81A5.85,5.85,0,0,1,102.12,235.66Z"/><path class="cls-1" d="M147.38,235.66a5.85,5.85,0,1,1-4.69-6.81A5.84,5.84,0,0,1,147.38,235.66Z"/><path class="cls-1" d="M192.64,235.66a5.85,5.85,0,1,1-4.69-6.81A5.84,5.84,0,0,1,192.64,235.66Z"/><path class="cls-1" d="M11.6,273.79A5.85,5.85,0,1,1,6.91,267,5.85,5.85,0,0,1,11.6,273.79Z"/><path class="cls-1" d="M56.86,273.79A5.85,5.85,0,1,1,52.17,267,5.85,5.85,0,0,1,56.86,273.79Z"/><path class="cls-1" d="M102.12,273.79A5.85,5.85,0,1,1,97.43,267,5.85,5.85,0,0,1,102.12,273.79Z"/><path class="cls-1" d="M147.38,273.79a5.85,5.85,0,1,1-4.69-6.81A5.85,5.85,0,0,1,147.38,273.79Z"/><path class="cls-1" d="M192.64,273.79A5.85,5.85,0,1,1,188,267,5.85,5.85,0,0,1,192.64,273.79Z"/><path class="cls-1" d="M11.6,311.92a5.85,5.85,0,1,1-4.69-6.81A5.85,5.85,0,0,1,11.6,311.92Z"/><circle class="cls-1" cx="51.11" cy="310.86" r="5.85" transform="translate(-166.06 82.64) rotate(-34.24)"/><circle class="cls-1" cx="96.37" cy="310.86" r="5.85" transform="matrix(0.99, -0.14, 0.14, 0.99, -41.09, 15.86)"/><path class="cls-1" d="M147.38,311.92a5.85,5.85,0,1,1-4.69-6.81A5.84,5.84,0,0,1,147.38,311.92Z"/><path class="cls-1" d="M192.64,311.92a5.85,5.85,0,1,1-4.69-6.81A5.84,5.84,0,0,1,192.64,311.92Z"/><path class="cls-1" d="M11.6,350a5.85,5.85,0,1,1-4.69-6.81A5.85,5.85,0,0,1,11.6,350Z"/><circle class="cls-1" cx="51.11" cy="348.98" r="5.85" transform="matrix(0.83, -0.56, 0.56, 0.83, -187.51, 89.25)"/><circle class="cls-1" cx="96.37" cy="348.98" r="5.85" transform="translate(-46.24 16.21) rotate(-7.76)"/><path class="cls-1" d="M147.38,350a5.85,5.85,0,1,1-4.69-6.81A5.84,5.84,0,0,1,147.38,350Z"/><path class="cls-1" d="M192.64,350a5.85,5.85,0,1,1-4.69-6.81A5.84,5.84,0,0,1,192.64,350Z"/><path class="cls-1" d="M11.6,388.17a5.85,5.85,0,1,1-4.69-6.81A5.86,5.86,0,0,1,11.6,388.17Z"/><circle class="cls-1" cx="51.11" cy="387.11" r="5.85" transform="translate(-208.96 95.86) rotate(-34.24)"/><circle class="cls-1" cx="96.37" cy="387.11" r="5.85" transform="matrix(0.99, -0.14, 0.14, 0.99, -51.38, 16.56)"/><path class="cls-1" d="M147.38,388.17a5.85,5.85,0,1,1-4.69-6.81A5.86,5.86,0,0,1,147.38,388.17Z"/><path class="cls-1" d="M192.64,388.17a5.85,5.85,0,1,1-4.69-6.81A5.86,5.86,0,0,1,192.64,388.17Z"/></g></g></g></svg>