<svg xmlns="http://www.w3.org/2000/svg" viewBox="0 0 40.1 40.1"><defs><style>.cls-1,.cls-2{fill:none;}.cls-2{stroke:#fff;stroke-width:3px;}.cls-3{fill:#fff;}</style></defs><g id="Capa_2" data-name="Capa 2"><g id="Grillas"><g id="Grupo_11" data-name="Grupo 11"><g id="Elipse_4" data-name="Elipse 4"><circle class="cls-1" cx="20.05" cy="20.05" r="19.6"/><circle class="cls-2" cx="20.05" cy="20.05" r="18.55"/></g><path id="Icon_awesome-twitter" data-name="Icon awesome-twitter" class="cls-3" d="M27.54,16.08c0,.17,0,.33,0,.5A10.85,10.85,0,0,1,16.77,27.5h-.14a10.8,10.8,0,0,1-5.89-1.72,7,7,0,0,0,.92,0,7.64,7.64,0,0,0,4.77-1.64,3.84,3.84,0,0,1-3.59-2.66,4.37,4.37,0,0,0,.72.06,3.73,3.73,0,0,0,1-.13,3.84,3.84,0,0,1-3.08-3.76v-.05a4,4,0,0,0,1.74.49A3.86,3.86,0,0,1,12,13,10.93,10.93,0,0,0,20,17a3.71,3.71,0,0,1-.1-.88,3.85,3.85,0,0,1,6.65-2.63,7.31,7.31,0,0,0,2.43-.92,3.86,3.86,0,0,1-1.68,2.11,7.8,7.8,0,0,0,2.21-.6A8.29,8.29,0,0,1,27.54,16.08Z"/></g></g></g></svg>