<svg xmlns="http://www.w3.org/2000/svg" xmlns:xlink="http://www.w3.org/1999/xlink" viewBox="0 0 499.11 555.09"><defs><style>.cls-1{fill:#fbfbfb;stroke:#ccc;stroke-miterlimit:10;}.cls-2{fill:#1a2e35;}.cls-3{fill:#fff;}.cls-4{fill:#e1e1e1;}.cls-5{fill:url(#Degradado_sin_nombre_44);}.cls-6{fill:url(#Degradado_sin_nombre_44-2);}.cls-7{fill:url(#Degradado_sin_nombre_44-3);}.cls-8{fill:#ffc19d;}.cls-9{fill:#ff9c6a;}.cls-10{fill:#375a64;}.cls-11{opacity:0.6;}.cls-12{fill:#ef443f;}.cls-13{opacity:0.3;}</style><linearGradient id="Degradado_sin_nombre_44" x1="165.63" y1="268.02" x2="206.06" y2="268.02" gradientUnits="userSpaceOnUse"><stop offset="0.01" stop-color="#911a1d"/><stop offset="0.04" stop-color="#a82425"/><stop offset="0.09" stop-color="#c12f2e"/><stop offset="0.15" stop-color="#d53735"/><stop offset="0.21" stop-color="#e33d3a"/><stop offset="0.29" stop-color="#eb413d"/><stop offset="0.44" stop-color="#ed423e"/><stop offset="0.44" stop-color="#ed423e"/><stop offset="0.79" stop-color="#ef433f"/></linearGradient><linearGradient id="Degradado_sin_nombre_44-2" x1="126.49" y1="394.96" x2="148.75" y2="394.96" xlink:href="#Degradado_sin_nombre_44"/><linearGradient id="Degradado_sin_nombre_44-3" x1="179.84" y1="457.56" x2="255.83" y2="457.56" xlink:href="#Degradado_sin_nombre_44"/></defs><g id="Capa_2" data-name="Capa 2"><g id="Grillas"><path class="cls-1" d="M459.12,530.06q18.28,0,28.88,10.05t10.61,26.51v65.81H124.24V595.87a66.58,66.58,0,0,1,4.38-22.67Q133,561.14,144,551.27L297.53,396.62A507.73,507.73,0,0,0,331.89,359,233.34,233.34,0,0,0,356,323.68,160.47,160.47,0,0,0,370.28,289,138.49,138.49,0,0,0,375,252.21q0-31.82-15.17-48.81t-46.25-17q-25.22,0-42.59,13.34a68.3,68.3,0,0,0-23.94,33.09Q239.4,252.95,227,259.52t-35.47,2.92l-59.95-10.6Q137.39,212,154,182.38T195.34,133a167.71,167.71,0,0,1,56.49-29.43A233.78,233.78,0,0,1,320.2,93.9q39.48,0,71.1,11.52t53.93,32a137.82,137.82,0,0,1,34.18,48.81q11.88,28.34,11.88,62.33,0,29.25-8.22,54.11A212.87,212.87,0,0,1,460.58,350a330.11,330.11,0,0,1-33.08,43.51q-18.84,21-40,42.59L283.27,542.86a302.6,302.6,0,0,1,39.85-9.51,223.81,223.81,0,0,1,36.56-3.29Z" transform="translate(0 -93.4)"/><path class="cls-2" d="M248.92,630.81,120,630.73c-15.5,0-28.06-13.22-28.06-29.51L92,261.66c0-16.29,12.58-29.5,28.09-29.49l128.89.08c15.5,0,28.06,13.22,28.06,29.51L277,601.32C277,617.62,264.43,630.82,248.92,630.81Z" transform="translate(0 -93.4)"/><path class="cls-3" d="M248.88,244.26l-25,0c-3.35,0-6.07,3-6.07,6.66v4.77c0,3.68-2.72,6.66-6.07,6.66l-48.7,0c-3.35,0-6.07-3-6.07-6.67v-4.76c0-3.69-2.71-6.67-6.07-6.67H120.26c-10.87,0-19.68,9.24-19.68,20.66l-.06,331.43c0,11.41,8.79,20.66,19.65,20.67L248.8,617c10.86,0,19.67-9.25,19.67-20.66l.06-331.44C268.53,253.51,259.74,244.26,248.88,244.26Z" transform="translate(0 -93.4)"/><path class="cls-4" d="M127.75,590.8v9.73a1.07,1.07,0,0,1-1.64.9l-7.64-4.86a1.07,1.07,0,0,1,0-1.81l7.64-4.86A1.07,1.07,0,0,1,127.75,590.8Z" transform="translate(0 -93.4)"/><path class="cls-4" d="M190.59,595.57a6.71,6.71,0,1,1-6.71-6.72A6.71,6.71,0,0,1,190.59,595.57Z" transform="translate(0 -93.4)"/><rect class="cls-4" x="238.72" y="496.32" width="12.37" height="12.4" rx="1.87"/><path class="cls-2" d="M257.52,283.1a1.67,1.67,0,1,1-3.33,0,1.67,1.67,0,0,1,3.33,0Z" transform="translate(0 -93.4)"/><circle class="cls-2" cx="255.85" cy="194.25" r="1.67"/><circle class="cls-2" cx="255.85" cy="198.81" r="1.67"/><path class="cls-4" d="M267.39,302.13c0,.14-37.49.25-83.73.25s-83.74-.11-83.74-.25,37.49-.24,83.74-.24S267.39,302,267.39,302.13Z" transform="translate(0 -93.4)"/><path class="cls-2" d="M124.14,327a3.41,3.41,0,1,1,3.41-3.41A3.41,3.41,0,0,1,124.14,327Zm0-5.85a2.44,2.44,0,1,0,2.44,2.44A2.44,2.44,0,0,0,124.14,321.19Z" transform="translate(0 -93.4)"/><path class="cls-2" d="M122.18,329.34a3.41,3.41,0,0,1-1.2-6.6l.34.9a2.44,2.44,0,1,0,3.26,2.74l1,.18A3.41,3.41,0,0,1,122.18,329.34Z" transform="translate(0 -93.4)"/><path class="cls-2" d="M120.23,331.33a3.41,3.41,0,0,1-1.2-6.6l.34.91a2.44,2.44,0,1,0,3.25,2.73l1,.18A3.41,3.41,0,0,1,120.23,331.33Z" transform="translate(0 -93.4)"/><rect class="cls-5" x="165.63" y="248.64" width="40.43" height="38.77" rx="4.45"/><path class="cls-3" d="M184.57,364.42v1.81h-8.48V364.8l4.57-4.34c1.12-1.07,1.31-1.74,1.31-2.38,0-1.06-.72-1.66-2.13-1.66a3.23,3.23,0,0,0-2.7,1.2l-1.49-1.16a5.32,5.32,0,0,1,4.37-1.9c2.5,0,4.11,1.26,4.11,3.3,0,1.12-.32,2.14-1.91,3.63l-3.07,2.93Z" transform="translate(0 -93.4)"/><path class="cls-3" d="M185.75,360.48c0-3.79,2.07-5.92,4.8-5.92s4.82,2.13,4.82,5.92-2.07,5.91-4.82,5.91S185.75,364.26,185.75,360.48Zm7.46,0c0-2.78-1.08-4.06-2.66-4.06s-2.65,1.28-2.65,4.06,1.09,4.06,2.65,4.06S193.21,363.25,193.21,360.48Z" transform="translate(0 -93.4)"/><path class="cls-2" d="M137.33,354.72v11.51H135.2v-9.72h-2.44v-1.79Z" transform="translate(0 -93.4)"/><path class="cls-2" d="M139.62,360.48c0-3.78,2.07-5.92,4.8-5.92s4.81,2.14,4.81,5.92-2.07,5.91-4.81,5.91S139.62,364.26,139.62,360.48Zm7.46,0c0-2.78-1.09-4.06-2.66-4.06s-2.65,1.28-2.65,4.06,1.08,4.06,2.65,4.06S147.08,363.25,147.08,360.48Z" transform="translate(0 -93.4)"/><path class="cls-4" d="M157.19,381.29h-31.8a4.8,4.8,0,0,1-4.8-4.8V346.35a4.8,4.8,0,0,1,4.8-4.79h31.8a4.8,4.8,0,0,1,4.8,4.79v30.14A4.8,4.8,0,0,1,157.19,381.29Zm-31.8-38.76a3.83,3.83,0,0,0-3.83,3.82v30.14a3.84,3.84,0,0,0,3.83,3.83h31.8a3.83,3.83,0,0,0,3.83-3.83V346.35a3.82,3.82,0,0,0-3.83-3.82Z" transform="translate(0 -93.4)"/><path class="cls-4" d="M246.29,381.29h-31.8a4.8,4.8,0,0,1-4.8-4.8V346.35a4.8,4.8,0,0,1,4.8-4.79h31.8a4.8,4.8,0,0,1,4.8,4.79v30.14A4.8,4.8,0,0,1,246.29,381.29Zm-31.8-38.76a3.83,3.83,0,0,0-3.83,3.82v30.14a3.84,3.84,0,0,0,3.83,3.83h31.8a3.83,3.83,0,0,0,3.83-3.83V346.35a3.82,3.82,0,0,0-3.83-3.82Z" transform="translate(0 -93.4)"/><path class="cls-2" d="M229.15,362.69c0,2-1.46,3.7-4.55,3.7a7.16,7.16,0,0,1-4.32-1.33l.9-1.66a5.47,5.47,0,0,0,3.39,1.14c1.53,0,2.43-.68,2.43-1.76s-.71-1.8-3.09-1.8h-2.78l.59-6.26h6.76v1.79h-4.95l-.25,2.67h1.11C227.79,359.18,229.15,360.66,229.15,362.69Z" transform="translate(0 -93.4)"/><path class="cls-2" d="M230.38,360.48c0-3.79,2.07-5.92,4.8-5.92s4.82,2.13,4.82,5.92-2.07,5.91-4.82,5.91S230.38,364.26,230.38,360.48Zm7.47,0c0-2.78-1.09-4.06-2.67-4.06s-2.64,1.28-2.64,4.06,1.08,4.06,2.64,4.06S237.85,363.25,237.85,360.48Z" transform="translate(0 -93.4)"/><path class="cls-4" d="M201.74,426.49h-31.8a4.81,4.81,0,0,1-4.8-4.8V391.55a4.8,4.8,0,0,1,4.8-4.8h31.8a4.8,4.8,0,0,1,4.8,4.8v30.14A4.81,4.81,0,0,1,201.74,426.49Zm-31.8-38.77a3.84,3.84,0,0,0-3.83,3.83v30.14a3.84,3.84,0,0,0,3.83,3.83h31.8a3.83,3.83,0,0,0,3.83-3.83V391.55a3.83,3.83,0,0,0-3.83-3.83Z" transform="translate(0 -93.4)"/><path class="cls-2" d="M179.08,409.62v1.8H170.6V410l4.57-4.33c1.12-1.07,1.32-1.75,1.32-2.39,0-1-.73-1.66-2.14-1.66a3.27,3.27,0,0,0-2.7,1.2l-1.49-1.15a5.31,5.31,0,0,1,4.37-1.91c2.5,0,4.11,1.27,4.11,3.31,0,1.12-.31,2.14-1.91,3.63l-3.07,2.93Z" transform="translate(0 -93.4)"/><path class="cls-2" d="M180.26,405.67c0-3.78,2.07-5.92,4.8-5.92s4.82,2.14,4.82,5.92-2.07,5.92-4.82,5.92S180.26,409.45,180.26,405.67Zm7.47,0c0-2.78-1.09-4.06-2.67-4.06s-2.64,1.28-2.64,4.06,1.08,4.06,2.64,4.06S187.73,408.45,187.73,405.67Z" transform="translate(0 -93.4)"/><path class="cls-2" d="M191.32,405.67c0-3.78,2.07-5.92,4.8-5.92s4.82,2.14,4.82,5.92-2.07,5.92-4.82,5.92S191.32,409.45,191.32,405.67Zm7.46,0c0-2.78-1.08-4.06-2.66-4.06s-2.64,1.28-2.64,4.06,1.08,4.06,2.64,4.06S198.78,408.45,198.78,405.67Z" transform="translate(0 -93.4)"/><path class="cls-2" d="M131.8,399.92v11.5h-2.13v-9.71h-2.44v-1.79Z" transform="translate(0 -93.4)"/><path class="cls-2" d="M134.09,405.67c0-3.78,2.07-5.92,4.8-5.92s4.81,2.14,4.81,5.92-2.07,5.92-4.81,5.92S134.09,409.45,134.09,405.67Zm7.46,0c0-2.78-1.09-4.06-2.66-4.06s-2.65,1.28-2.65,4.06,1.08,4.06,2.65,4.06S141.55,408.45,141.55,405.67Z" transform="translate(0 -93.4)"/><path class="cls-2" d="M145.14,405.67c0-3.78,2.08-5.92,4.8-5.92s4.82,2.14,4.82,5.92-2.07,5.92-4.82,5.92S145.14,409.45,145.14,405.67Zm7.47,0c0-2.78-1.09-4.06-2.67-4.06s-2.64,1.28-2.64,4.06,1.08,4.06,2.64,4.06S152.61,408.45,152.61,405.67Z" transform="translate(0 -93.4)"/><path class="cls-4" d="M157.19,426.49h-31.8a4.81,4.81,0,0,1-4.8-4.8V391.55a4.8,4.8,0,0,1,4.8-4.8h31.8a4.8,4.8,0,0,1,4.8,4.8v30.14A4.81,4.81,0,0,1,157.19,426.49Zm-31.8-38.77a3.84,3.84,0,0,0-3.83,3.83v30.14a3.84,3.84,0,0,0,3.83,3.83h31.8a3.83,3.83,0,0,0,3.83-3.83V391.55a3.83,3.83,0,0,0-3.83-3.83Z" transform="translate(0 -93.4)"/><path class="cls-4" d="M246.29,426.49h-31.8a4.81,4.81,0,0,1-4.8-4.8V391.55a4.8,4.8,0,0,1,4.8-4.8h31.8a4.8,4.8,0,0,1,4.8,4.8v30.14A4.81,4.81,0,0,1,246.29,426.49Zm-31.8-38.77a3.84,3.84,0,0,0-3.83,3.83v30.14a3.84,3.84,0,0,0,3.83,3.83h31.8a3.83,3.83,0,0,0,3.83-3.83V391.55a3.83,3.83,0,0,0-3.83-3.83Z" transform="translate(0 -93.4)"/><path class="cls-2" d="M223.76,407.89c0,2-1.46,3.7-4.55,3.7a7.21,7.21,0,0,1-4.33-1.33l.91-1.66a5.45,5.45,0,0,0,3.38,1.13c1.53,0,2.44-.67,2.44-1.76s-.71-1.79-3.09-1.79h-2.78l.59-6.26h6.76v1.79h-5l-.25,2.66H219C222.4,404.37,223.76,405.85,223.76,407.89Z" transform="translate(0 -93.4)"/><path class="cls-2" d="M225,405.67c0-3.78,2.07-5.92,4.8-5.92s4.82,2.14,4.82,5.92-2.08,5.92-4.82,5.92S225,409.45,225,405.67Zm7.46,0c0-2.78-1.08-4.06-2.66-4.06s-2.65,1.28-2.65,4.06,1.09,4.06,2.65,4.06S232.45,408.45,232.45,405.67Z" transform="translate(0 -93.4)"/><path class="cls-2" d="M236.05,405.67c0-3.78,2.07-5.92,4.8-5.92s4.81,2.14,4.81,5.92-2.07,5.92-4.81,5.92S236.05,409.45,236.05,405.67Zm7.46,0c0-2.78-1.09-4.06-2.66-4.06s-2.65,1.28-2.65,4.06,1.09,4.06,2.65,4.06S243.51,408.45,243.51,405.67Z" transform="translate(0 -93.4)"/><path class="cls-4" d="M253.56,505H118a5.73,5.73,0,0,1-5.72-5.72V473.65a5.73,5.73,0,0,1,5.72-5.72H253.56a5.73,5.73,0,0,1,5.72,5.72v25.58A5.73,5.73,0,0,1,253.56,505ZM118,468.9a4.75,4.75,0,0,0-4.75,4.75v25.58A4.75,4.75,0,0,0,118,504H253.56a4.76,4.76,0,0,0,4.75-4.75V473.65a4.76,4.76,0,0,0-4.75-4.75Z" transform="translate(0 -93.4)"/><rect class="cls-6" x="126.49" y="386.25" width="22.26" height="17.43"/><path class="cls-2" d="M162.08,490.14l-1.43-2-1.42,2h-1.11l1.95-2.69-1.85-2.58h1.11l1.35,1.87,1.33-1.87h1.06l-1.84,2.54,2,2.73Z" transform="translate(0 -93.4)"/><path class="cls-2" d="M167.18,490.14l-1.43-2-1.42,2h-1.11l2-2.69-1.86-2.58h1.11l1.35,1.87,1.33-1.87h1.06l-1.84,2.54,2,2.73Z" transform="translate(0 -93.4)"/><path class="cls-2" d="M172.28,490.14l-1.43-2-1.41,2h-1.12l2-2.69-1.85-2.58h1.1l1.35,1.87,1.33-1.87h1.07l-1.85,2.54,2,2.73Z" transform="translate(0 -93.4)"/><path class="cls-2" d="M179.58,490.14l-1.43-2-1.42,2h-1.11l1.95-2.69-1.85-2.58h1.11l1.35,1.87,1.33-1.87h1.06l-1.84,2.54,2,2.73Z" transform="translate(0 -93.4)"/><path class="cls-2" d="M184.68,490.14l-1.43-2-1.42,2h-1.11l2-2.69-1.86-2.58h1.11l1.35,1.87,1.33-1.87h1.06l-1.84,2.54,2,2.73Z" transform="translate(0 -93.4)"/><path class="cls-2" d="M189.78,490.14l-1.43-2-1.41,2h-1.12l2-2.69-1.85-2.58H187l1.35,1.87,1.33-1.87h1.07l-1.85,2.54,2,2.73Z" transform="translate(0 -93.4)"/><path class="cls-2" d="M197.07,490.14l-1.43-2-1.41,2h-1.12l2-2.69-1.85-2.58h1.11l1.34,1.87,1.34-1.87h1.06l-1.85,2.54,2,2.73Z" transform="translate(0 -93.4)"/><path class="cls-2" d="M202.18,490.14l-1.43-2-1.42,2h-1.11l1.95-2.69-1.85-2.58h1.11l1.35,1.87,1.33-1.87h1.06l-1.84,2.54,2,2.73Z" transform="translate(0 -93.4)"/><path class="cls-2" d="M207.28,490.14l-1.43-2-1.42,2h-1.11l2-2.69-1.86-2.58h1.11l1.35,1.87,1.33-1.87h1.06l-1.84,2.54,2,2.73Z" transform="translate(0 -93.4)"/><path class="cls-2" d="M212.7,484.87v5.27h-1v-4.45H210.6v-.82Z" transform="translate(0 -93.4)"/><path class="cls-2" d="M217.56,489.31v.83h-3.88v-.66l2.09-2a1.42,1.42,0,0,0,.6-1.09c0-.48-.33-.76-1-.76a1.49,1.49,0,0,0-1.23.55l-.69-.52a2.45,2.45,0,0,1,2-.88c1.14,0,1.88.58,1.88,1.52a2.13,2.13,0,0,1-.88,1.66l-1.4,1.34Z" transform="translate(0 -93.4)"/><path class="cls-2" d="M221.87,488.56c0,.89-.67,1.65-2.09,1.65a3.26,3.26,0,0,1-2-.61l.42-.76a2.45,2.45,0,0,0,1.55.52c.69,0,1.11-.31,1.11-.8s-.35-.78-1.15-.78h-.48v-.67l1.2-1.42h-2.39v-.82h3.59v.65L220.37,487A1.51,1.51,0,0,1,221.87,488.56Z" transform="translate(0 -93.4)"/><path class="cls-2" d="M227.2,488.94h-.93v1.2h-1v-1.2h-2.89v-.68l2.6-3.39h1l-2.44,3.24h1.72v-1.06h.92v1.06h.93Z" transform="translate(0 -93.4)"/><path class="cls-4" d="M245.57,489.5h0a.48.48,0,0,1-.36-.16l-3.32-3.67a.49.49,0,0,1,.72-.65l3,3.27,3-3.27a.49.49,0,0,1,.72.65l-3.32,3.67A.48.48,0,0,1,245.57,489.5Z" transform="translate(0 -93.4)"/><path class="cls-4" d="M126.82,550.46a2.72,2.72,0,0,1,2.86-2.75,2.69,2.69,0,0,1,2.11.89l-.64.61a1.88,1.88,0,0,0-1.42-.63,1.88,1.88,0,1,0,0,3.75,1.88,1.88,0,0,0,1.42-.63l.64.61a2.89,2.89,0,0,1-5-1.85Z" transform="translate(0 -93.4)"/><path class="cls-4" d="M136.09,551.89h-2.67l-.52,1.23h-1l2.4-5.33h1l2.41,5.33h-1Zm-.33-.78-1-2.33-1,2.33Z" transform="translate(0 -93.4)"/><path class="cls-4" d="M143.08,547.79v5.33h-.82l-2.94-3.61v3.61h-1v-5.33h.81l2.94,3.61v-3.61Z" transform="translate(0 -93.4)"/><path class="cls-4" d="M144.13,550.46a2.89,2.89,0,0,1,5-1.86l-.64.61a1.88,1.88,0,0,0-1.43-.63,1.88,1.88,0,1,0,0,3.75,1.88,1.88,0,0,0,1.43-.63l.64.61a2.89,2.89,0,0,1-5-1.85Z" transform="translate(0 -93.4)"/><path class="cls-4" d="M154.05,552.29v.83h-4v-5.33H154v.83H151V550h2.58v.81H151v1.47Z" transform="translate(0 -93.4)"/><path class="cls-4" d="M155.16,547.79h1v4.49h2.79v.84h-3.78Z" transform="translate(0 -93.4)"/><rect class="cls-7" x="179.84" y="441.53" width="76" height="32.06" rx="7.09"/><path class="cls-3" d="M203.53,553.71l-1.05-1.51h-1.15v1.51h-1.26v-5.43h2.35a3,3,0,0,1,1.25.24,1.81,1.81,0,0,1,.82.69,1.87,1.87,0,0,1,.29,1,1.76,1.76,0,0,1-1.12,1.72l1.22,1.74Zm-.32-4.16a1.34,1.34,0,0,0-.86-.24h-1v1.89h1a1.28,1.28,0,0,0,.86-.25,1,1,0,0,0,0-1.4Z" transform="translate(0 -93.4)"/><path class="cls-3" d="M210,552.7v1h-4.2v-5.43h4.1v1H207v1.18h2.52v1H207v1.25Z" transform="translate(0 -93.4)"/><path class="cls-3" d="M212.1,549.31h-1.74v-1h4.73v1h-1.73v4.4H212.1Z" transform="translate(0 -93.4)"/><path class="cls-3" d="M215.77,548.28H217v5.43h-1.26Z" transform="translate(0 -93.4)"/><path class="cls-3" d="M221.77,553.71l-1.05-1.51h-1.15v1.51h-1.26v-5.43h2.35a3.08,3.08,0,0,1,1.26.24,1.83,1.83,0,0,1,.81.69,1.87,1.87,0,0,1,.29,1,1.9,1.9,0,0,1-.29,1,1.86,1.86,0,0,1-.83.67l1.22,1.74Zm-.32-4.16a1.32,1.32,0,0,0-.86-.24h-1v1.89h1a1.26,1.26,0,0,0,.86-.25,1,1,0,0,0,0-1.4Z" transform="translate(0 -93.4)"/><path class="cls-3" d="M227.59,552.55h-2.52l-.48,1.16H223.3l2.42-5.43H227l2.43,5.43h-1.32Zm-.4-.95-.86-2.08-.86,2.08Z" transform="translate(0 -93.4)"/><path class="cls-3" d="M233.41,553.71l-1-1.51h-1.16v1.51H230v-5.43h2.35a3,3,0,0,1,1.25.24,1.79,1.79,0,0,1,1.1,1.73,1.82,1.82,0,0,1-.29,1,1.89,1.89,0,0,1-.82.67l1.21,1.74Zm-.31-4.16a1.35,1.35,0,0,0-.86-.24h-1v1.89h1a1.3,1.3,0,0,0,.86-.25,1,1,0,0,0,0-1.4Z" transform="translate(0 -93.4)"/><path class="cls-4" d="M266,523.64c0,.14-36.62.25-81.78.25s-81.8-.11-81.8-.25,36.62-.25,81.8-.25S266,523.5,266,523.64Z" transform="translate(0 -93.4)"/><path d="M116.47,458.39a3.07,3.07,0,0,1-1-.45l.42-.95a2.92,2.92,0,0,0,.83.41,3.22,3.22,0,0,0,1,.16,1.66,1.66,0,0,0,.8-.16.49.49,0,0,0,.25-.43.42.42,0,0,0-.15-.32,1.19,1.19,0,0,0-.39-.2c-.15-.05-.37-.11-.64-.17a8.58,8.58,0,0,1-1-.3,1.61,1.61,0,0,1-.68-.47,1.28,1.28,0,0,1-.28-.87,1.52,1.52,0,0,1,.25-.86,1.78,1.78,0,0,1,.77-.61,3.19,3.19,0,0,1,1.26-.22,4.31,4.31,0,0,1,1,.12,3.12,3.12,0,0,1,.87.36l-.39.95a3,3,0,0,0-1.5-.42,1.33,1.33,0,0,0-.78.17.52.52,0,0,0-.26.45.44.44,0,0,0,.29.41,4.86,4.86,0,0,0,.89.27,8.82,8.82,0,0,1,1,.3,1.65,1.65,0,0,1,.68.46,1.24,1.24,0,0,1,.28.86,1.52,1.52,0,0,1-.26.85,1.69,1.69,0,0,1-.78.61,3.19,3.19,0,0,1-1.26.22A4.34,4.34,0,0,1,116.47,458.39Z" transform="translate(0 -93.4)"/><path d="M125.08,457.46v1h-4.2V453H125v1h-2.85v1.18h2.52v1h-2.52v1.25Z" transform="translate(0 -93.4)"/><path d="M126.09,453h1.25v4.41h2.73v1h-4Z" transform="translate(0 -93.4)"/><path d="M135,457.46v1h-4.2V453h4.1v1H132v1.18h2.52v1H132v1.25Z" transform="translate(0 -93.4)"/><path d="M137.06,458.2a2.69,2.69,0,0,1-1.06-1,2.79,2.79,0,0,1-.38-1.44,2.83,2.83,0,0,1,.38-1.45,2.69,2.69,0,0,1,1.06-1,3.12,3.12,0,0,1,1.51-.36,3.06,3.06,0,0,1,1.27.25,2.51,2.51,0,0,1,1,.71l-.81.75a1.7,1.7,0,0,0-1.36-.64,1.77,1.77,0,0,0-.9.22,1.54,1.54,0,0,0-.62.62,1.77,1.77,0,0,0-.22.9,1.82,1.82,0,0,0,.22.9,1.52,1.52,0,0,0,.62.61,1.77,1.77,0,0,0,.9.22,1.7,1.7,0,0,0,1.36-.64l.81.74a2.56,2.56,0,0,1-1,.73,3.28,3.28,0,0,1-1.28.24A3.08,3.08,0,0,1,137.06,458.2Z" transform="translate(0 -93.4)"/><path d="M142.63,458.2a2.69,2.69,0,0,1-1.06-1,2.79,2.79,0,0,1-.38-1.44,2.83,2.83,0,0,1,.38-1.45,2.69,2.69,0,0,1,1.06-1,3.35,3.35,0,0,1,2.78-.11,2.51,2.51,0,0,1,1,.71l-.81.75a1.72,1.72,0,0,0-1.36-.64,1.77,1.77,0,0,0-.9.22,1.54,1.54,0,0,0-.62.62,1.77,1.77,0,0,0-.22.9,1.82,1.82,0,0,0,.22.9,1.52,1.52,0,0,0,.62.61,1.77,1.77,0,0,0,.9.22,1.72,1.72,0,0,0,1.36-.64l.81.74a2.56,2.56,0,0,1-1,.73,3.32,3.32,0,0,1-1.28.24A3.08,3.08,0,0,1,142.63,458.2Z" transform="translate(0 -93.4)"/><path d="M147.21,453h1.26v5.43h-1.26Z" transform="translate(0 -93.4)"/><path d="M150.86,458.2a2.76,2.76,0,0,1-1.06-1,2.92,2.92,0,0,1,0-2.88,2.78,2.78,0,0,1,1.06-1,3.23,3.23,0,0,1,1.53-.36,3.19,3.19,0,0,1,1.52.36,2.78,2.78,0,0,1,1.06,1,2.85,2.85,0,0,1,0,2.88,2.76,2.76,0,0,1-1.06,1,3.19,3.19,0,0,1-1.52.36A3.23,3.23,0,0,1,150.86,458.2Zm2.4-.93a1.62,1.62,0,0,0,.61-.61,1.93,1.93,0,0,0,.22-.9,1.87,1.87,0,0,0-.22-.9,1.65,1.65,0,0,0-.61-.62,1.83,1.83,0,0,0-1.74,0,1.58,1.58,0,0,0-.61.62,1.77,1.77,0,0,0-.22.9,1.82,1.82,0,0,0,.22.9,1.56,1.56,0,0,0,.61.61,1.83,1.83,0,0,0,1.74,0Z" transform="translate(0 -93.4)"/><path d="M161.28,453v5.43h-1l-2.7-3.3v3.3H156.3V453h1l2.7,3.3V453Z" transform="translate(0 -93.4)"/><path d="M166.78,457.46v1h-4.21V453h4.11v1h-2.86v1.18h2.52v1h-2.52v1.25Z" transform="translate(0 -93.4)"/><path d="M174.91,458.47v-3.26l-1.6,2.69h-.57l-1.59-2.62v3.19H170V453h1l2,3.38,2-3.38h1v5.43Z" transform="translate(0 -93.4)"/><path d="M181.58,457.46v1h-4.2V453h4.1v1h-2.85v1.18h2.52v1h-2.52v1.25Z" transform="translate(0 -93.4)"/><path d="M183.71,454.07H182v-1h4.73v1H185v4.4h-1.25Z" transform="translate(0 -93.4)"/><path d="M188.41,458.2a2.72,2.72,0,0,1-1.07-1,2.92,2.92,0,0,1,0-2.88,2.74,2.74,0,0,1,1.07-1,3.39,3.39,0,0,1,3,0,2.78,2.78,0,0,1,1.06,1,2.85,2.85,0,0,1,0,2.88,2.76,2.76,0,0,1-1.06,1,3.39,3.39,0,0,1-3,0Zm2.39-.93a1.56,1.56,0,0,0,.61-.61,1.93,1.93,0,0,0,.22-.9,1.87,1.87,0,0,0-.22-.9,1.58,1.58,0,0,0-.61-.62,1.83,1.83,0,0,0-1.74,0,1.58,1.58,0,0,0-.61.62,1.77,1.77,0,0,0-.22.9,1.82,1.82,0,0,0,.22.9,1.56,1.56,0,0,0,.61.61,1.83,1.83,0,0,0,1.74,0Z" transform="translate(0 -93.4)"/><path d="M193.85,453h2.46a3.38,3.38,0,0,1,1.56.34,2.45,2.45,0,0,1,1.06.95,2.68,2.68,0,0,1,.38,1.43,2.64,2.64,0,0,1-.38,1.42,2.45,2.45,0,0,1-1.06.95,3.38,3.38,0,0,1-1.56.34h-2.46Zm2.4,4.4a1.84,1.84,0,0,0,1.3-.45,1.63,1.63,0,0,0,.48-1.23,1.6,1.6,0,0,0-.48-1.23,1.8,1.8,0,0,0-1.3-.46H195.1v3.37Z" transform="translate(0 -93.4)"/><path d="M201.36,458.2a2.69,2.69,0,0,1-1.06-1,2.78,2.78,0,0,1,1.06-3.89,3.39,3.39,0,0,1,3,0,2.76,2.76,0,0,1,0,4.89,3.39,3.39,0,0,1-3,0Zm2.39-.93a1.56,1.56,0,0,0,.61-.61,1.82,1.82,0,0,0,.22-.9,1.77,1.77,0,0,0-.22-.9,1.58,1.58,0,0,0-.61-.62,1.83,1.83,0,0,0-1.74,0,1.49,1.49,0,0,0-.6.62,1.77,1.77,0,0,0-.23.9,1.83,1.83,0,0,0,.23.9,1.47,1.47,0,0,0,.6.61,1.83,1.83,0,0,0,1.74,0Z" transform="translate(0 -93.4)"/><path d="M209,453h2.47a3.38,3.38,0,0,1,1.56.34,2.45,2.45,0,0,1,1.06.95,2.68,2.68,0,0,1,.38,1.43,2.64,2.64,0,0,1-.38,1.42,2.45,2.45,0,0,1-1.06.95,3.38,3.38,0,0,1-1.56.34H209Zm2.41,4.4a1.85,1.85,0,0,0,1.3-.45,1.63,1.63,0,0,0,.48-1.23,1.6,1.6,0,0,0-.48-1.23,1.81,1.81,0,0,0-1.3-.46h-1.15v3.37Z" transform="translate(0 -93.4)"/><path d="M219.61,457.46v1H215.4V453h4.1v1h-2.85v1.18h2.52v1h-2.52v1.25Z" transform="translate(0 -93.4)"/><path d="M226.4,453.28a1.85,1.85,0,0,1,.82.68,2,2,0,0,1,0,2.1,1.85,1.85,0,0,1-.82.68,3,3,0,0,1-1.25.23h-1.09v1.5H222.8V453h2.35A3,3,0,0,1,226.4,453.28Zm-.46,2.43a.87.87,0,0,0,.3-.7.85.85,0,0,0-.3-.7,1.32,1.32,0,0,0-.86-.24h-1V456h1A1.32,1.32,0,0,0,225.94,455.71Z" transform="translate(0 -93.4)"/><path d="M231.71,457.31h-2.53l-.48,1.16h-1.28l2.42-5.43h1.24l2.42,5.43h-1.31Zm-.4-1-.86-2.07-.86,2.07Z" transform="translate(0 -93.4)"/><path d="M237.66,455.67h1.15v2.2a3.17,3.17,0,0,1-1,.52,4.3,4.3,0,0,1-1.17.17,3.2,3.2,0,0,1-1.53-.36,2.6,2.6,0,0,1-1.05-1,2.7,2.7,0,0,1-.39-1.44,2.74,2.74,0,0,1,.39-1.45,2.62,2.62,0,0,1,1.06-1,3.27,3.27,0,0,1,1.54-.36,3.33,3.33,0,0,1,1.29.24,2.48,2.48,0,0,1,1,.7l-.81.74a2,2,0,0,0-2.32-.39,1.54,1.54,0,0,0-.63.61,1.9,1.9,0,0,0,0,1.81,1.58,1.58,0,0,0,.62.61,1.83,1.83,0,0,0,.91.22,2,2,0,0,0,1-.23Z" transform="translate(0 -93.4)"/><path d="M241.08,458.2a2.69,2.69,0,0,1-1.06-1,2.78,2.78,0,0,1,1.06-3.89,3.39,3.39,0,0,1,3,0,2.76,2.76,0,0,1,0,4.89,3.39,3.39,0,0,1-3,0Zm2.39-.93a1.56,1.56,0,0,0,.61-.61,1.82,1.82,0,0,0,.22-.9,1.77,1.77,0,0,0-.22-.9,1.58,1.58,0,0,0-.61-.62,1.83,1.83,0,0,0-1.74,0,1.56,1.56,0,0,0-.6.62,1.77,1.77,0,0,0-.23.9,1.83,1.83,0,0,0,.23.9,1.53,1.53,0,0,0,.6.61,1.83,1.83,0,0,0,1.74,0Z" transform="translate(0 -93.4)"/><path d="M137.18,327.81a2.76,2.76,0,0,1-1.06-1,3,3,0,0,1,0-2.9,2.76,2.76,0,0,1,1.06-1,3.12,3.12,0,0,1,1.51-.36,3.06,3.06,0,0,1,1.27.25,2.51,2.51,0,0,1,1,.71l-.81.75a1.7,1.7,0,0,0-1.36-.64,1.87,1.87,0,0,0-.9.22,1.61,1.61,0,0,0-.62.62,2,2,0,0,0,0,1.8,1.61,1.61,0,0,0,.62.62,1.87,1.87,0,0,0,.9.22,1.71,1.71,0,0,0,1.36-.65l.81.75a2.64,2.64,0,0,1-1,.72,3.28,3.28,0,0,1-1.28.25A3.08,3.08,0,0,1,137.18,327.81Z" transform="translate(0 -93.4)"/><path d="M145.23,326.91h-2.52l-.48,1.16h-1.29l2.42-5.43h1.24l2.43,5.43h-1.32Zm-.39-1-.86-2.08-.87,2.08Z" transform="translate(0 -93.4)"/><path d="M152.58,322.64v5.43h-1l-2.71-3.29v3.29H147.6v-5.43h1l2.7,3.3v-3.3Z" transform="translate(0 -93.4)"/><path d="M155,323.67h-1.74v-1H158v1h-1.73v4.4H155Z" transform="translate(0 -93.4)"/><path d="M158.66,322.64h1.25v5.43h-1.25Z" transform="translate(0 -93.4)"/><path d="M161.2,322.64h2.47a3.51,3.51,0,0,1,1.56.34,2.57,2.57,0,0,1,1.06.95,2.95,2.95,0,0,1,0,2.86,2.57,2.57,0,0,1-1.06.95,3.51,3.51,0,0,1-1.56.33H161.2Zm2.41,4.4a1.85,1.85,0,0,0,1.3-.45,1.82,1.82,0,0,0,0-2.46,1.85,1.85,0,0,0-1.3-.45h-1.15V327Z" transform="translate(0 -93.4)"/><path d="M171.11,326.91h-2.52l-.48,1.16h-1.29l2.42-5.43h1.24l2.43,5.43h-1.32Zm-.4-1-.86-2.08L169,326Z" transform="translate(0 -93.4)"/><path d="M173.47,322.64h2.47a3.51,3.51,0,0,1,1.56.34,2.51,2.51,0,0,1,1.06.95,2.95,2.95,0,0,1,0,2.86,2.51,2.51,0,0,1-1.06.95,3.51,3.51,0,0,1-1.56.33h-2.47Zm2.41,4.4a1.85,1.85,0,0,0,1.3-.45,1.82,1.82,0,0,0,0-2.46,1.85,1.85,0,0,0-1.3-.45h-1.15V327Z" transform="translate(0 -93.4)"/><path d="M114.9,287.8h-1.74v-1h4.74v1h-1.74v4.4H114.9Z" transform="translate(0 -93.4)"/><path d="M119.08,291.65a2.49,2.49,0,0,1-.65-1.84v-3h1.26v3c0,1,.4,1.45,1.21,1.45a1.13,1.13,0,0,0,.9-.35,1.66,1.66,0,0,0,.31-1.1v-3h1.24v3a2.49,2.49,0,0,1-.65,1.84,2.88,2.88,0,0,1-3.62,0Z" transform="translate(0 -93.4)"/><path d="M125.13,292.12a3.24,3.24,0,0,1-1-.45l.43-.95a2.8,2.8,0,0,0,.83.41,3.22,3.22,0,0,0,1,.16,1.58,1.58,0,0,0,.79-.16.5.5,0,0,0,.26-.43.42.42,0,0,0-.15-.32,1.19,1.19,0,0,0-.39-.2,5.11,5.11,0,0,0-.64-.17,8.82,8.82,0,0,1-1-.3,1.67,1.67,0,0,1-.68-.47,1.33,1.33,0,0,1-.28-.87,1.53,1.53,0,0,1,.26-.86,1.78,1.78,0,0,1,.77-.61,3.13,3.13,0,0,1,1.26-.22,4.38,4.38,0,0,1,1,.12,2.93,2.93,0,0,1,.86.36l-.38.95a3.11,3.11,0,0,0-1.51-.42,1.37,1.37,0,0,0-.78.17.51.51,0,0,0-.25.45.44.44,0,0,0,.29.41,4.62,4.62,0,0,0,.89.27,8.58,8.58,0,0,1,1,.3,1.53,1.53,0,0,1,.68.46,1.24,1.24,0,0,1,.29.86,1.52,1.52,0,0,1-.26.85,1.8,1.8,0,0,1-.78.61,3.21,3.21,0,0,1-1.27.22A4.27,4.27,0,0,1,125.13,292.12Z" transform="translate(0 -93.4)"/><path d="M132.83,291.93a2.6,2.6,0,0,1-1.05-1,2.7,2.7,0,0,1-.39-1.44,2.74,2.74,0,0,1,.39-1.45,2.6,2.6,0,0,1,1.05-1,3.37,3.37,0,0,1,2.79-.11,2.48,2.48,0,0,1,.95.71l-.8.74a1.86,1.86,0,0,0-2.27-.41,1.61,1.61,0,0,0-.62.62,1.87,1.87,0,0,0-.22.9,1.93,1.93,0,0,0,.22.9,1.58,1.58,0,0,0,.62.61,1.77,1.77,0,0,0,.9.22,1.74,1.74,0,0,0,1.37-.64l.8.74a2.56,2.56,0,0,1-1,.73,3.28,3.28,0,0,1-1.28.24A3.14,3.14,0,0,1,132.83,291.93Z" transform="translate(0 -93.4)"/><path d="M140.88,292.2l-1-1.51h-1.16v1.51h-1.25v-5.43h2.35A3,3,0,0,1,141,287a1.87,1.87,0,0,1,0,3.45l1.22,1.74Zm-.32-4.16a1.34,1.34,0,0,0-.86-.24h-1v1.89h1a1.28,1.28,0,0,0,.86-.25.86.86,0,0,0,.29-.7A.85.85,0,0,0,140.56,288Z" transform="translate(0 -93.4)"/><path d="M147.32,291.19v1h-4.2v-5.43h4.1v1h-2.85V289h2.52v1h-2.52v1.25Z" transform="translate(0 -93.4)"/><path d="M148.32,286.77h2.47a3.38,3.38,0,0,1,1.56.34,2.45,2.45,0,0,1,1.06.95,2.93,2.93,0,0,1,0,2.85,2.45,2.45,0,0,1-1.06.95,3.38,3.38,0,0,1-1.56.34h-2.47Zm2.41,4.4a1.85,1.85,0,0,0,1.3-.45,1.63,1.63,0,0,0,.48-1.23,1.6,1.6,0,0,0-.48-1.23,1.81,1.81,0,0,0-1.3-.46h-1.15v3.37Z" transform="translate(0 -93.4)"/><path d="M154.73,286.77H156v5.43h-1.26Z" transform="translate(0 -93.4)"/><path d="M158.4,287.8h-1.74v-1h4.73v1h-1.73v4.4H158.4Z" transform="translate(0 -93.4)"/><path d="M163.1,291.93a2.67,2.67,0,0,1-1.07-1A2.77,2.77,0,0,1,163.1,287a3.39,3.39,0,0,1,3,0,2.78,2.78,0,0,1,1.06,1,2.84,2.84,0,0,1,0,2.87,2.71,2.71,0,0,1-1.06,1,3.39,3.39,0,0,1-3,0Zm2.39-.93a1.56,1.56,0,0,0,.61-.61,1.82,1.82,0,0,0,.22-.9,1.77,1.77,0,0,0-.22-.9,1.58,1.58,0,0,0-.61-.62,1.83,1.83,0,0,0-1.74,0,1.58,1.58,0,0,0-.61.62,1.87,1.87,0,0,0-.22.9,1.93,1.93,0,0,0,.22.9,1.56,1.56,0,0,0,.61.61,1.83,1.83,0,0,0,1.74,0Z" transform="translate(0 -93.4)"/><path d="M169.08,292.12a3.13,3.13,0,0,1-1-.45l.43-.95a2.8,2.8,0,0,0,.83.41,3.22,3.22,0,0,0,1,.16,1.58,1.58,0,0,0,.79-.16.5.5,0,0,0,.26-.43.4.4,0,0,0-.16-.32,1.13,1.13,0,0,0-.38-.2,5.11,5.11,0,0,0-.64-.17,8.82,8.82,0,0,1-1-.3,1.67,1.67,0,0,1-.68-.47,1.28,1.28,0,0,1-.28-.87,1.45,1.45,0,0,1,.26-.86,1.72,1.72,0,0,1,.77-.61,3.13,3.13,0,0,1,1.26-.22,4.29,4.29,0,0,1,1,.12,3.12,3.12,0,0,1,.87.36l-.39.95a3,3,0,0,0-1.5-.42,1.37,1.37,0,0,0-.78.17.51.51,0,0,0-.25.45.44.44,0,0,0,.29.41,4.62,4.62,0,0,0,.89.27,8.58,8.58,0,0,1,1,.3,1.58,1.58,0,0,1,.68.46,1.24,1.24,0,0,1,.28.86,1.51,1.51,0,0,1-.25.85,1.8,1.8,0,0,1-.78.61,3.21,3.21,0,0,1-1.27.22A4.27,4.27,0,0,1,169.08,292.12Z" transform="translate(0 -93.4)"/><path class="cls-8" d="M33.55,287.19A19.19,19.19,0,0,1,53.91,271l1,.07c10.65,1.41,15.4,11.23,13.7,21.83L64.9,330.5l-.18,7.78-25.35,2.3.54-16.42s-10.15-2.35-9.53-12.63C30.68,306.56,32.13,296.39,33.55,287.19Z" transform="translate(0 -93.4)"/><path class="cls-9" d="M39.83,324.14a25,25,0,0,0,13.75-3s-3.57,7.41-13.76,5.74Z" transform="translate(0 -93.4)"/><path class="cls-2" d="M37.53,297.44A1.46,1.46,0,0,0,38.84,299a1.4,1.4,0,0,0,1.6-1.21,1.46,1.46,0,0,0-1.3-1.58A1.4,1.4,0,0,0,37.53,297.44Z" transform="translate(0 -93.4)"/><path class="cls-2" d="M35.39,292.38c.17.21,1.34-.54,2.92-.42s2.68,1,2.86.82-.07-.44-.55-.85a4,4,0,0,0-2.27-.88,3.81,3.81,0,0,0-2.34.57C35.5,292,35.31,292.29,35.39,292.38Z" transform="translate(0 -93.4)"/><path class="cls-2" d="M52.32,298.85a1.47,1.47,0,0,0,1.31,1.58,1.41,1.41,0,0,0,1.61-1.21,1.47,1.47,0,0,0-1.31-1.58A1.41,1.41,0,0,0,52.32,298.85Z" transform="translate(0 -93.4)"/><path class="cls-2" d="M50.89,293.81c.16.2,1.34-.54,2.91-.42s2.68,1,2.87.81-.07-.44-.55-.84a4.06,4.06,0,0,0-2.27-.89,3.87,3.87,0,0,0-2.34.57C51,293.38,50.8,293.71,50.89,293.81Z" transform="translate(0 -93.4)"/><path class="cls-2" d="M44.3,305.1a10.26,10.26,0,0,0-2.53-.65c-.4-.07-.77-.18-.82-.46a2.11,2.11,0,0,1,.36-1.18l1.41-3c2-4.25,3.44-7.76,3.26-7.83s-1.91,3.3-3.88,7.55c-.48,1.05-.93,2.05-1.37,3a2.4,2.4,0,0,0-.32,1.57,1,1,0,0,0,.62.64,2.35,2.35,0,0,0,.68.14A10,10,0,0,0,44.3,305.1Z" transform="translate(0 -93.4)"/><path class="cls-2" d="M48.87,306.53c-.25,0-.38,1.68-1.94,2.79s-3.36.78-3.39,1,.38.36,1.15.44a4.3,4.3,0,0,0,2.83-.76A3.76,3.76,0,0,0,49,307.68C49.15,307,49,306.53,48.87,306.53Z" transform="translate(0 -93.4)"/><path class="cls-2" d="M50.93,287.59c.12.44,1.71.35,3.55.71s3.3,1,3.57.6c.12-.17-.11-.59-.68-1a5.93,5.93,0,0,0-2.6-1.13,6.15,6.15,0,0,0-2.83.12C51.24,287.07,50.88,287.38,50.93,287.59Z" transform="translate(0 -93.4)"/><path class="cls-2" d="M36.3,287.85c.25.38,1.37.09,2.68.17s2.4.41,2.68.06c.12-.18,0-.55-.48-.92a3.87,3.87,0,0,0-4.32-.18C36.37,287.31,36.19,287.67,36.3,287.85Z" transform="translate(0 -93.4)"/><path class="cls-8" d="M66.22,302.76a2.8,2.8,0,0,1,3.21-2.47c1.9.32,4,1.56,3.54,5.51-.74,7-7.62,4.83-7.61,4.62S65.89,305.69,66.22,302.76Z" transform="translate(0 -93.4)"/><path class="cls-9" d="M67.16,308s.12.1.31.21a1.18,1.18,0,0,0,.91.12,3,3,0,0,0,1.68-2.57,4,4,0,0,0-.15-1.78,1.42,1.42,0,0,0-.82-1,.62.62,0,0,0-.76.26c-.11.18-.08.33-.12.34s-.14-.14,0-.42a.75.75,0,0,1,.32-.41.94.94,0,0,1,.69-.11,1.72,1.72,0,0,1,1.16,1.22,4.12,4.12,0,0,1,.22,2,3.18,3.18,0,0,1-2.1,2.84,1.35,1.35,0,0,1-1.09-.3C67.16,308.12,67.14,308,67.16,308Z" transform="translate(0 -93.4)"/><path class="cls-2" d="M71.84,295.61c-.58,2-.37,5.35-2.17,4.9-3.56-.9-2.71,6.4-4.42,5.69s-3.18-2.79-3.28-7.28c-.14-5.71,2.16-9.83-.09-16.36a8.65,8.65,0,0,0-7.21-4.48,8.8,8.8,0,0,0-7.57,4c-.32-2-1.29-5-3.06-5.95a5.14,5.14,0,0,0-5.67.47,4.17,4.17,0,0,0-.74,5.45,2,2,0,0,1-2.25-.81,3.44,3.44,0,0,0,.9,2.57,3.2,3.2,0,0,1-1.81-1.26c.17.82.35,1.64.53,2.47-3,.08-5.95-2.83-6.78-5.42-1.27-3.93-.29-7.88,1.9-11.37a12.33,12.33,0,0,1,10.24-5.92c4.13,0,7.58,2,9.17,5.8,2.68-1.9,8.1-2.55,11.08-1.2a9.61,9.61,0,0,1,5.48,7.63,5.75,5.75,0,0,1,5.68,1.1l.38.33a8.57,8.57,0,0,1,2.49,7.91c-.22,1.14-.61,2.32-.84,3.24C73.1,289.86,71.84,295.61,71.84,295.61Z" transform="translate(0 -93.4)"/><path class="cls-10" d="M34.92,281.07s-.09-.06-.24-.19a4.57,4.57,0,0,1-.59-.65,6,6,0,0,1-1.18-3,5.68,5.68,0,0,1,1.4-4.5,6.16,6.16,0,0,1,5.36-2,6.89,6.89,0,0,1,2.84,1.12,9.44,9.44,0,0,1,2.1,1.91A11.19,11.19,0,0,1,46.76,278a11.07,11.07,0,0,1,.35,3.19,8.43,8.43,0,0,1-.09.87,1.21,1.21,0,0,1-.06.3,13.29,13.29,0,0,0-.42-4.31,11.14,11.14,0,0,0-2.15-4.12A7.89,7.89,0,0,0,39.62,271a5.9,5.9,0,0,0-5.1,1.91,5.5,5.5,0,0,0-1.39,4.28,6.17,6.17,0,0,0,1,2.94C34.61,280.77,34.94,281,34.92,281.07Z" transform="translate(0 -93.4)"/><path class="cls-10" d="M33.54,284.21a2.79,2.79,0,0,1-.21-.35c-.13-.23-.32-.57-.55-1a21,21,0,0,1-1.65-3.91,11.3,11.3,0,0,1-.46-2.91,8,8,0,0,1,.61-3.34,6.41,6.41,0,0,1,2.4-2.86,8,8,0,0,1,3.82-1.27,9.56,9.56,0,0,1,4,.64,12.27,12.27,0,0,1,3.25,1.85,9.77,9.77,0,0,1,3.55,5.15,7,7,0,0,1-.21,4.21,6.56,6.56,0,0,1-.52,1,3.84,3.84,0,0,1-.25.32,9.26,9.26,0,0,0,.66-1.4,7.17,7.17,0,0,0,.11-4.12,9.64,9.64,0,0,0-3.52-5,10.7,10.7,0,0,0-7-2.4,7.55,7.55,0,0,0-3.67,1.21,6.22,6.22,0,0,0-2.31,2.72,8,8,0,0,0-.62,3.22,11.45,11.45,0,0,0,.42,2.86,24.43,24.43,0,0,0,1.55,3.92l.49,1A1.33,1.33,0,0,1,33.54,284.21Z" transform="translate(0 -93.4)"/><path class="cls-10" d="M69.36,291.07s.65-.52,1.5-1.54a10.3,10.3,0,0,0,2-9.67c-.38-1.27-.82-2-.77-2a1.62,1.62,0,0,1,.33.48,8.48,8.48,0,0,1,.65,1.46,9.9,9.9,0,0,1-2,9.89,9.23,9.23,0,0,1-1.17,1.08A1.93,1.93,0,0,1,69.36,291.07Z" transform="translate(0 -93.4)"/><path class="cls-10" d="M63,290.87s.35-.15.91-.53a5.22,5.22,0,0,0,1.77-2.14l.29-.67-.06.73c-.09,1-.2,2.13-.31,3.36l-.23-.13a9.06,9.06,0,0,0,2.3-2.25,9.16,9.16,0,0,0,1.57-3.7,9.48,9.48,0,0,0,0-3.29,12.49,12.49,0,0,0-1-2.91.75.75,0,0,1,.14.18,5.44,5.44,0,0,1,.31.53,8.94,8.94,0,0,1,.76,2.15,9.19,9.19,0,0,1-3.89,9.53l-.26.18,0-.31c.13-1.24.25-2.37.36-3.36l.23.06A5,5,0,0,1,64,290.45a4.07,4.07,0,0,1-.71.35A.79.79,0,0,1,63,290.87Z" transform="translate(0 -93.4)"/><path class="cls-10" d="M61,276.09a6.56,6.56,0,0,0-1.62-2,6,6,0,0,0-2.53-1.18,6.34,6.34,0,0,0-3.38.31,7.3,7.3,0,0,0-2.83,1.91,8.41,8.41,0,0,0-1.52,2.37,17.77,17.77,0,0,0-.77,2.51,3.44,3.44,0,0,1,.05-.71,9,9,0,0,1,.52-1.88,8.26,8.26,0,0,1,1.51-2.48,7.33,7.33,0,0,1,2.93-2,6.36,6.36,0,0,1,3.55-.3,6,6,0,0,1,2.61,1.29,5.15,5.15,0,0,1,1.23,1.52,4.71,4.71,0,0,1,.21.49C61,276,61,276.09,61,276.09Z" transform="translate(0 -93.4)"/><path class="cls-10" d="M59.38,270.73a10.21,10.21,0,0,0-1.94-.74,7,7,0,0,0-4.82.68,8.76,8.76,0,0,0-3.41,3.55c-.61,1.13-.8,1.92-.86,1.9a1.71,1.71,0,0,1,.11-.56,8.67,8.67,0,0,1,.56-1.44,8.35,8.35,0,0,1,3.46-3.72,6.93,6.93,0,0,1,5-.63,5.48,5.48,0,0,1,1.43.62A1.66,1.66,0,0,1,59.38,270.73Z" transform="translate(0 -93.4)"/><path class="cls-2" d="M36.81,601.88l.71,19.23S18.21,628.29,18,631.85l37.34,0,.13-30Z" transform="translate(0 -93.4)"/><path class="cls-4" d="M49.06,619.48a1.54,1.54,0,0,1,1.06,1.74,1.47,1.47,0,0,1-1.72,1.06,1.6,1.6,0,0,1-1.11-1.85,1.52,1.52,0,0,1,1.91-.9" transform="translate(0 -93.4)"/><path class="cls-2" d="M55.33,631.82l-.11-3L19.46,630s-1.66.72-1.47,1.89Z" transform="translate(0 -93.4)"/><path class="cls-3" d="M36.91,620.92c0,.18.92.26,1.82.85s1.37,1.35,1.54,1.28-.11-1.13-1.2-1.82S36.87,620.75,36.91,620.92Z" transform="translate(0 -93.4)"/><path class="cls-3" d="M33,622.54c0,.18.74.49,1.36,1.26s.8,1.58,1,1.58.3-1-.49-2S33,622.37,33,622.54Z" transform="translate(0 -93.4)"/><path class="cls-3" d="M30.78,627.23c.16,0,.41-.87-.06-1.87s-1.32-1.39-1.39-1.24.45.68.82,1.51S30.59,627.21,30.78,627.23Z" transform="translate(0 -93.4)"/><path class="cls-3" d="M37.24,616.52c.07.16.91-.09,1.94,0s1.83.39,1.93.24-.68-.81-1.9-.87S37.15,616.38,37.24,616.52Z" transform="translate(0 -93.4)"/><path class="cls-2" d="M79.65,603.64l1.49,23.23L77,645.59a2.38,2.38,0,0,0,2,2.87h0a2.34,2.34,0,0,0,2.07-.7c3.41-3.55,15.89-16.67,15.69-18.37-.24-2,.06-24.61.06-24.61Z" transform="translate(0 -93.4)"/><path class="cls-2" d="M79,648.46l17.69-20.64,0,1a3.59,3.59,0,0,1-.75,2.36c-1.41,1.8-5.4,6.67-14.84,16.59a2.37,2.37,0,0,1-2.14.7Z" transform="translate(0 -93.4)"/><g class="cls-11"><path class="cls-3" d="M91.6,620.52a1.45,1.45,0,0,0-.32,1.9,1.4,1.4,0,0,0,1.88.33,1.52,1.52,0,0,0,.33-2,1.43,1.43,0,0,0-2-.12" transform="translate(0 -93.4)"/></g><path class="cls-3" d="M83.89,638.08a7.25,7.25,0,0,0-2.11-1.73,7.21,7.21,0,0,0-2.7-.4c0-.05.26-.25.81-.35a3.76,3.76,0,0,1,2.1.29,3.69,3.69,0,0,1,1.62,1.36C83.9,637.72,84,638.06,83.89,638.08Z" transform="translate(0 -93.4)"/><path class="cls-3" d="M82.36,641.26a19,19,0,0,0-2.1-.91,17.07,17.07,0,0,0-2.28-.2,2.63,2.63,0,0,1,2.41-.3C81.77,640.2,82.48,641.2,82.36,641.26Z" transform="translate(0 -93.4)"/><path class="cls-3" d="M86.81,634a23.45,23.45,0,0,0-3.14-1.63,22.19,22.19,0,0,0-3.49-.66A6.53,6.53,0,0,1,86.81,634Z" transform="translate(0 -93.4)"/><path class="cls-3" d="M87,626.86c0,.14-1.36-.34-3-.33s-3,.46-3,.32a5.89,5.89,0,0,1,6.08,0Z" transform="translate(0 -93.4)"/><path class="cls-3" d="M86.69,620a11.55,11.55,0,0,0-3.16-.43,11.37,11.37,0,0,0-3,.9s.2-.35.73-.68a5,5,0,0,1,2.29-.73,5.11,5.11,0,0,1,2.37.37C86.44,619.71,86.72,620,86.69,620Z" transform="translate(0 -93.4)"/><path class="cls-3" d="M83.52,618.29a2,2,0,0,1-.07-.87,6.12,6.12,0,0,1,.61-2.34,2.67,2.67,0,0,1,1.11-1.34,1,1,0,0,1,1.09.17,1.58,1.58,0,0,1,.41,1,3.37,3.37,0,0,1-2.83,3.24,3.92,3.92,0,0,1-3.92-1.88,1.38,1.38,0,0,1-.11-1.13,1,1,0,0,1,1-.54,3.38,3.38,0,0,1,1.57.74A6.81,6.81,0,0,1,84,617.11c.31.48.42.77.39.79a10.65,10.65,0,0,0-2.26-2.24,3.1,3.1,0,0,0-1.38-.6.48.48,0,0,0-.52.29.87.87,0,0,0,.11.73,3.5,3.5,0,0,0,3.42,1.6A2.94,2.94,0,0,0,86.2,615a1.13,1.13,0,0,0-.26-.73.52.52,0,0,0-.6-.1,2.45,2.45,0,0,0-1,1.12A9.17,9.17,0,0,0,83.52,618.29Z" transform="translate(0 -93.4)"/><path class="cls-2" d="M20.45,439.33a82.49,82.49,0,0,0-2.37,24.27C18.36,468.77,35,618.29,35,618.29l21.15-1.9-3.66-139.8.89.8S66,536.2,66.79,545.5C67.54,553.86,77.6,621,77.6,621l20.52-1-4.65-84.87-6.22-77-2.5-22.45Z" transform="translate(0 -93.4)"/><path class="cls-10" d="M56.54,464.54a3.9,3.9,0,0,1-1,.53,11.34,11.34,0,0,1-2.94.95,5.89,5.89,0,0,1-2.17,0,4.45,4.45,0,0,1-2.24-1.14,5.29,5.29,0,0,1-1.32-2.44c-.26-.92-.39-1.87-.57-2.84-.66-3.9-1.08-7.45-1.32-10-.12-1.29-.19-2.34-.23-3.06a4,4,0,0,1,0-1.12,5,5,0,0,1,.19,1.1c.11.83.24,1.84.39,3,.33,2.56.81,6.09,1.47,10,.33,1.92.54,3.88,1.71,5a4.85,4.85,0,0,0,4,1.15,12.44,12.44,0,0,0,2.91-.78A5.62,5.62,0,0,1,56.54,464.54Z" transform="translate(0 -93.4)"/><path class="cls-10" d="M49.88,446.16s.15-.12.49-.13a2.07,2.07,0,0,1,1.3.45,2.33,2.33,0,0,1,.95,1.84,2.21,2.21,0,0,1-1.55,2,2.18,2.18,0,0,1-2.45-.59,2.34,2.34,0,0,1-.41-2,2.19,2.19,0,0,1,.74-1.17c.27-.2.46-.22.47-.2a2.67,2.67,0,0,0-.86,1.44,2,2,0,0,0,.41,1.67,1.77,1.77,0,0,0,1.93.41,1.75,1.75,0,0,0,1.26-1.53,2,2,0,0,0-.71-1.56A2.67,2.67,0,0,0,49.88,446.16Z" transform="translate(0 -93.4)"/><path class="cls-10" d="M87,456.71a2.76,2.76,0,0,1-.8.11,15.31,15.31,0,0,1-2.21,0,21.33,21.33,0,0,1-13.09-5.87,15.19,15.19,0,0,1-1.48-1.63,3.15,3.15,0,0,1-.46-.67c.07-.06.81.82,2.18,2A23.73,23.73,0,0,0,84,456.44C85.8,456.66,87,456.62,87,456.71Z" transform="translate(0 -93.4)"/><path class="cls-10" d="M30,446.13a10.17,10.17,0,0,1-1.27,2.38,27.34,27.34,0,0,1-4.2,5,26.83,26.83,0,0,1-5.27,3.82,10.36,10.36,0,0,1-2.46,1.1A26.19,26.19,0,0,1,19,457a33.79,33.79,0,0,0,5.11-3.88,33.87,33.87,0,0,0,4.24-4.8A24.94,24.94,0,0,1,30,446.13Z" transform="translate(0 -93.4)"/><path class="cls-8" d="M9,361.67c-3.15,9.17-2.8,8.39-8.67,35.78-1.09,5.06.83,13,5.38,15.4s12.66-.24,15.37-4.64l4.37-41.35Z" transform="translate(0 -93.4)"/><path class="cls-12" d="M84.77,411.36l-.12-21.79.09-2.13,22.11-5.16S102.51,368,98.52,352.6c-2.29-8.87-10-13.33-11.8-14.3h0l-.4-.19h0l-21.28-9c-4.3,4.59-10.57,8.26-16.6,6.5a18.79,18.79,0,0,1-8.75-6l-14.34,4.92h0a18.51,18.51,0,0,0-9.92,8c-3,5.3-12.59,29.65-12.76,30.19l17.77,1.6s-3.16,57.61-2,67.91c0,0,4.31,3,15.2,3.49,22.07,1.05,54.92-.52,54.92-.52-.51-3.33-1-8.88-1.35-11.69Z" transform="translate(0 -93.4)"/><path class="cls-2" d="M21,352.92c.09,0-.38,13.74-1.05,30.69s-1.29,30.67-1.38,30.67.38-13.74,1.05-30.69S21,352.92,21,352.92Z" transform="translate(0 -93.4)"/><path class="cls-2" d="M82.34,356.76c-.16,0,.29,12.2,1,27.23s1.41,27.21,1.57,27.21-.29-12.2-1-27.24S82.5,356.75,82.34,356.76Z" transform="translate(0 -93.4)"/><path class="cls-8" d="M107,392.65c-.72-5.41-1.32-10.19-1.32-10.19L88,386.56l.75,2.85L75,375.53l-2.16.18L66,382.87s6,12.67,9.49,17.6c4.53,6.41,11.67,16.2,21.44,15.37C106,415.09,108.24,402.35,107,392.65Z" transform="translate(0 -93.4)"/><path class="cls-9" d="M97.37,395.88a15.59,15.59,0,0,0-3.89-3.57,15.28,15.28,0,0,0-4.62-2.55c-.07.15,2,1.33,4.29,3S97.25,396,97.37,395.88Z" transform="translate(0 -93.4)"/><path class="cls-8" d="M51.17,357.4l6.07-3.1,7.88,2.51,3.91,3.6,6,15.12,4.81,6.08-8.48,11.06L66,382.87s-4.56-2-6.38-4.87S57,373.56,57,373.56s-2.64-1.26-3.12-2.47a6,6,0,0,1-.47-2.16L54.71,367a4.81,4.81,0,0,1,.41-2.48,2.42,2.42,0,0,1,1-.84s-.39-1.64.23-2.22A18.59,18.59,0,0,1,60,359.78h0l-2.65-1.51S51.5,360.1,51.17,357.4Z" transform="translate(0 -93.4)"/><path class="cls-9" d="M60.19,362.89c0,.08-.93.1-2,.34s-2,.59-2,.52a4.62,4.62,0,0,1,2-.77A4.74,4.74,0,0,1,60.19,362.89Z" transform="translate(0 -93.4)"/><path class="cls-9" d="M58.37,366.29c0,.07-.8.07-1.76.22s-1.72.38-1.74.31a5.22,5.22,0,0,1,3.5-.53Z" transform="translate(0 -93.4)"/><path class="cls-9" d="M55.8,371.6c-.07,0-.13-.35-.12-.77s.08-.77.15-.77.12.35.11.77S55.87,371.6,55.8,371.6Z" transform="translate(0 -93.4)"/><path class="cls-9" d="M57,373.24A2.7,2.7,0,0,0,55.18,371s.19,0,.48,0a2,2,0,0,1,.94.68,2,2,0,0,1,.43,1.08C57.05,373.07,57,373.25,57,373.24Z" transform="translate(0 -93.4)"/><path class="cls-9" d="M61.71,368.39c-.07,0-.33-.64-1.06-1a3.76,3.76,0,0,0-1.44-.36s.16-.12.45-.14a2.13,2.13,0,0,1,1.12.27,2,2,0,0,1,.81.81C61.72,368.2,61.74,368.39,61.71,368.39Z" transform="translate(0 -93.4)"/><path class="cls-9" d="M64.48,365c-.07,0-.31-.6-1-1a4.31,4.31,0,0,0-1.33-.45s.16-.1.44-.09a2,2,0,0,1,1.75,1.12C64.49,364.85,64.51,365,64.48,365Z" transform="translate(0 -93.4)"/><path class="cls-9" d="M66.33,363.38s0-.21-.06-.52a2.34,2.34,0,0,0-.45-1.11,2.46,2.46,0,0,0-.93-.75c-.29-.13-.49-.17-.48-.21s.21-.05.54,0a2.17,2.17,0,0,1,1.08.77,2.05,2.05,0,0,1,.42,1.25C66.45,363.19,66.36,363.39,66.33,363.38Z" transform="translate(0 -93.4)"/><path class="cls-9" d="M63.76,359.43c0,.09-1.27.12-2.8.35s-2.7.77-2.73.7a6.39,6.39,0,0,1,2.68-1,12.36,12.36,0,0,1,2-.15A2.76,2.76,0,0,1,63.76,359.43Z" transform="translate(0 -93.4)"/><g class="cls-13"><path d="M46.46,393.58a10.9,10.9,0,0,0-1.5-5c-1.78-2.51-5.27-3-8.34-2.89s-6.25.75-9.14-.3l-8.61,25.59a12.8,12.8,0,0,0,7.78-5.67c.88-1.43,1.52-3.09,2.85-4.11,1.83-1.41,4.38-1.2,6.69-1.23a26.67,26.67,0,0,0,7.16-1.05,4.71,4.71,0,0,0,2.62-1.5C46.75,396.33,46.62,394.88,46.46,393.58Z" transform="translate(0 -93.4)"/></g><path class="cls-2" d="M24.27,363.63,27,392.1a4,4,0,0,0,1.76,3.28L46,395c.71-.63,1.48-2.67,1.32-4.84l-1.91-27.25c-.11-1.64-.73-2.82-1.47-2.84l-18.18-.42C24.8,359.64,24.08,361.61,24.27,363.63Z" transform="translate(0 -93.4)"/><path class="cls-8" d="M21.76,369.36a2.51,2.51,0,0,1,.06-3.09A3.8,3.8,0,0,1,24.77,365a8.48,8.48,0,0,1,3.24.75,21.57,21.57,0,0,1,3.65,1.93,3.54,3.54,0,0,1,1.79,2.19c.14,1-.93,2-1.76,1.54A4,4,0,0,1,34,374.25c.15,1.22-.51,1.86-1.7,2.18a1.83,1.83,0,0,1,1,2.36,2.1,2.1,0,0,1-2.65.74,6.07,6.07,0,0,1-2.25-2,6.94,6.94,0,0,1,.31,4.33c-2.58-.94-5.12-3.81-4.35-6.53a3.68,3.68,0,0,1-1-4.41,3.62,3.62,0,0,1-2.09-3.06" transform="translate(0 -93.4)"/><path class="cls-8" d="M21.47,366.87,21.27,379l-3.16,4.75L3.63,396.73s2.15,17.59,8.68,15.67,8.12-3.17,12-10.27c2.07-3.8,3.35-10,4.54-13.53.7-2.08.08-8.78.08-8.78Z" transform="translate(0 -93.4)"/><path class="cls-9" d="M32.28,376.44a9.85,9.85,0,0,1-1.1-.88A7.54,7.54,0,0,0,28.25,374a4.07,4.07,0,0,0-1.8,0,3.46,3.46,0,0,0-1.32.63,3.75,3.75,0,0,0-.88,1.06s0-.14.1-.37a2.68,2.68,0,0,1,.65-.84,3.22,3.22,0,0,1,1.39-.73,4.07,4.07,0,0,1,1.93,0,6.93,6.93,0,0,1,3,1.7A4.9,4.9,0,0,1,32.28,376.44Z" transform="translate(0 -93.4)"/><path class="cls-9" d="M32.11,371.48a5.78,5.78,0,0,1-1.35-.6c-.41-.2-.89-.45-1.44-.66a11.52,11.52,0,0,0-1.85-.53,5.35,5.35,0,0,0-1.9-.06,3.34,3.34,0,0,0-1.42.58,3.53,3.53,0,0,0-.94,1.07.93.93,0,0,1,.12-.39A2.56,2.56,0,0,1,24,370a3.54,3.54,0,0,1,1.49-.67,5.41,5.41,0,0,1,2,0,10.89,10.89,0,0,1,1.9.56,12.43,12.43,0,0,1,1.43.74A11.41,11.41,0,0,1,32.11,371.48Z" transform="translate(0 -93.4)"/><path class="cls-9" d="M5.2,403.73A11.7,11.7,0,0,1,5,399.19a13.76,13.76,0,0,1,1.71-4.6,22.24,22.24,0,0,1,3.82-4.69c1.56-1.5,3.16-2.82,4.59-4a47.28,47.28,0,0,0,3.66-3.45,20.39,20.39,0,0,0,2.11-2.66,5.26,5.26,0,0,0,.6-1.09,7.87,7.87,0,0,0-.76,1,25.6,25.6,0,0,1-2.2,2.54c-1,1-2.26,2.13-3.7,3.34s-3.06,2.52-4.63,4.05a21.86,21.86,0,0,0-3.88,4.81,13.7,13.7,0,0,0-1.66,4.77,9.74,9.74,0,0,0,.11,3.4,5.47,5.47,0,0,0,.27.89C5.13,403.63,5.18,403.73,5.2,403.73Z" transform="translate(0 -93.4)"/></g></g></svg>