<svg xmlns="http://www.w3.org/2000/svg" viewBox="0 0 176 176"><defs><style>.cls-1{isolation:isolate;}.cls-2{fill:#ef433f;mix-blend-mode:multiply;opacity:0.15;}.cls-3{fill:none;stroke:#ef433f;stroke-miterlimit:10;stroke-width:4px;}</style></defs><g class="cls-1"><g id="Capa_2" data-name="Capa 2"><g id="Grillas"><circle class="cls-2" cx="88" cy="88" r="88"/><circle class="cls-2" cx="87.64" cy="87.83" r="71.36"/><path class="cls-3" d="M92.37,42.67a8,8,0,0,0-5-1.19c-11.13,0-22.27,0-33.41,0-3.18,0-3.22,0-3.22,3.22v75.61c0,3.2,0,3.22,3.22,3.22h53.34c3.4,0,3.81-.41,3.81-3.81,0-18.36.12-36.73-.09-55.09-.05-4.19-.37-8.46-4.52-11.54-3.62-2.69-6.57-6.29-9.73-9.59-1.22-1.27-2.46-1.78-4.12-1.15"/><path class="cls-3" d="M127.54,123.55a6,6,0,0,0-1.43-3.54,17.25,17.25,0,0,1-3.9-14.93c.26-1.4-.22-2.92-.22-4.39,0-9.37,0-18.75,0-28.13,0-4,.07-8,0-12,0-1.78.6-2.64,2.38-2.63,2.15,0,4.3,0,6.44,0,1.49,0,2.21.59,2.05,2.07-.29,2.73.54,5.49-.51,8.23-.49,1.26.58,2.62.57,4.08-.1,9.57.11,19.15-.15,28.71-.08,3,.07,5.87.13,8.8.09,4.71-2.11,8.28-5.31,11.43"/><path class="cls-3" d="M92.37,43c-1.18,3.46-.45,7-.56,10.55-.24,7.92-.26,7,7,7,3.61,0,7.25.37,10.85-.27"/><path class="cls-3" d="M100,74.32H86.51"/><path class="cls-3" d="M100,90.73H86.51"/><path class="cls-3" d="M100,107.14H86.51"/><path class="cls-3" d="M76.26,85.16c-1-.15-1.31.49-1.78,1.16a69.43,69.43,0,0,1-7.35,9.3c-2.14-1.74-4.63-3-5.53-5.77"/><path class="cls-3" d="M75.67,101.72c-2.44,3-5,5.91-7.3,9-1.1,1.43-2.15,1.58-3.22.25-1.23-1.52-3.46-2.29-3.55-4.67"/><path class="cls-3" d="M76.26,68.75a1.5,1.5,0,0,0-1.46.59Q71,74.46,67.17,79.59"/><path class="cls-3" d="M131.94,104.5h-9.09"/><path class="cls-3" d="M131.94,68.75h-9.09"/><path class="cls-3" d="M67.39,79.67c-2.13-1.73-4.62-3-5.52-5.76"/></g></g></g></svg>