<svg xmlns="http://www.w3.org/2000/svg" viewBox="0 0 176 176"><defs><style>.cls-1{isolation:isolate;}.cls-2{fill:#ef433f;mix-blend-mode:multiply;opacity:0.15;}.cls-3{fill:none;stroke:#ef433f;stroke-miterlimit:10;stroke-width:4px;}</style></defs><g class="cls-1"><g id="Capa_2" data-name="Capa 2"><g id="Grillas"><circle class="cls-2" cx="88" cy="88" r="88"/><circle class="cls-2" cx="87.64" cy="87.83" r="71.36"/><path class="cls-3" d="M100.15,88.39c3.67-.5,5.92-3.34,8.45-5.49a10.21,10.21,0,0,1,8-2.79,70,70,0,0,0,7.1,0c2.91,0,4.26-1.38,4.26-4.25q0-12.07,0-24.15c0-3-.41-3.4-3.4-3.41H89.07c-2.75,0-3.66.91-3.68,3.69,0,3.13,0,6.25,0,9.38"/><path class="cls-3" d="M77.43,48.33H53.56c-3.53,0-5.1,1.58-5.11,5.11v53.41c0,3.31,1.12,3.7,4.52,4.37,7.21,1.43,14.45.07,21.61.85,3.47.38,6.81-.41,10.24-.16s6.62,0,9.94.07c1.15,0,2.38-.36,3.42.54.21.18.73.37.81.27,2.25-2.39,5-.51,7.42-.77a69.82,69.82,0,0,1,7.38,0c3.13,0,6.25,0,9.37,0s4.82-1.65,4.83-4.82c0-6.35,0-12.69,0-19"/><path class="cls-3" d="M77.43,67.08c-3.86,0-6,1.5-7.1,5.12A16.74,16.74,0,0,0,73,88.05c3.29,4.29,7,3.53,9.81-.56,3.3-4.81,3.38-10.37,2-15.85C84,68.51,81.43,67.08,78,67.08"/><path class="cls-3" d="M64.36,127.87c5.3.34,10.57-.57,15.92-.1a89.71,89.71,0,0,0,15.89,0c5.34-.47,10.61.44,15.92.1"/><path class="cls-3" d="M69.76,95.91a10.91,10.91,0,0,1-9.38,5.33c-4.21.09-5.89,2-6.26,6.18-.1,1.14-.37,2.27-.56,3.41"/><path class="cls-3" d="M85.52,95.49a10.14,10.14,0,0,0,9,5.72c5,.23,5.72,1.57,6.81,7.07.18.92.2,1.89.29,2.83"/><path class="cls-3" d="M98.73,91.8c2.34-3.25-.35-6.63.18-10,.16-1-1.12-1.77-2.45-1.71-1.51.07-3,0-4.54,0"/><path class="cls-3" d="M99,113.1c-.7,4.79,1.08,9.16,2.27,13.64"/><path class="cls-3" d="M77.43,113.1c.69,4.79-1.09,9.16-2.28,13.64"/><path class="cls-3" d="M115.78,58.84c-1.7-.09-2.42,1.34-3.4,2.29-2.69,2.61-5.32,5.29-8,8-2.32-1.52-3.75-3.44-5.48-5"/></g></g></g></svg>