<svg xmlns="http://www.w3.org/2000/svg" xmlns:xlink="http://www.w3.org/1999/xlink" viewBox="0 0 379.15 561.65"><defs><style>.cls-1{fill:#fbfbfb;stroke:#ccc;stroke-miterlimit:10;}.cls-2{fill:#fff;}.cls-3{fill:#1a2e35;}.cls-4{fill:url(#Degradado_sin_nombre_44);}.cls-5{fill:#ececec;}.cls-6{fill:#e1e1e1;}.cls-7{fill:#f5f5f5;}.cls-8{fill:#ff735d;}.cls-9{opacity:0.6;}.cls-10{fill:#375a64;}.cls-11{fill:#ef443f;}.cls-12{fill:#c9655f;}.cls-13{fill:#a24640;}</style><linearGradient id="Degradado_sin_nombre_44" x1="26.49" y1="405.44" x2="169.69" y2="405.44" gradientUnits="userSpaceOnUse"><stop offset="0.01" stop-color="#911a1d"/><stop offset="0.04" stop-color="#a82425"/><stop offset="0.09" stop-color="#c12f2e"/><stop offset="0.15" stop-color="#d53735"/><stop offset="0.21" stop-color="#e33d3a"/><stop offset="0.29" stop-color="#eb413d"/><stop offset="0.44" stop-color="#ed423e"/><stop offset="0.44" stop-color="#ed423e"/><stop offset="0.79" stop-color="#ef433f"/></linearGradient></defs><g id="Capa_2" data-name="Capa 2"><g id="Grillas"><path class="cls-1" d="M32.67,251.84Q38.52,212,55.16,182.38T96.47,133A167.66,167.66,0,0,1,153,103.59a233.88,233.88,0,0,1,68.37-9.69q39.48,0,70.19,11.15t51.92,30.17a127.35,127.35,0,0,1,32.17,44.05,130.33,130.33,0,0,1,11,52.83q0,25.23-5.12,44.42a101.71,101.71,0,0,1-15.17,33.27,92.44,92.44,0,0,1-24.86,23.76,152.89,152.89,0,0,1-33.82,16.27q88.47,31.08,88.48,120.65,0,42.42-15.36,73.85T339.59,596.6q-25.77,20.83-59.77,31.26a241,241,0,0,1-70.93,10.42q-38,0-67.64-8.23a155.55,155.55,0,0,1-52.64-25.59q-23-17.36-40.4-44.42T18.05,495.69L68.5,475.22q19.74-7.68,36.56-4T129.19,488q16.45,30.35,34.91,44.05t43.33,13.71q19,0,33.08-6.4a71.91,71.91,0,0,0,23.4-16.45A68.08,68.08,0,0,0,278,500.08a74.21,74.21,0,0,0,4.75-26,181.33,181.33,0,0,0-2.38-30.89A40.32,40.32,0,0,0,267,419.65q-11-9.87-33.09-15.17t-61.6-5.3V320.94q33.27,0,53.74-5.12t31.63-14.07A42.46,42.46,0,0,0,272.5,280a102.1,102.1,0,0,0,3.66-28.15q0-31.44-15.17-48.44t-46.25-17q-25.23,0-42.59,13.34a68.38,68.38,0,0,0-24,33.09q-7.68,20.11-20.11,26.69t-35.46,2.92Z" transform="translate(-17.42 -93.4)"/><path class="cls-2" d="M191.42,227.69l-27.83,0a6.93,6.93,0,0,0-6.76,7.09v5.06a6.93,6.93,0,0,1-6.76,7.09l-54.26,0a6.93,6.93,0,0,1-6.75-7.1v-5.06a6.94,6.94,0,0,0-6.76-7.1H72.51l-24.36,0a21.93,21.93,0,0,0-21.91,22l-.07,352.56a22,22,0,0,0,21.89,22l143.27.08a21.93,21.93,0,0,0,21.91-22l.07-352.57A22,22,0,0,0,191.42,227.69Z" transform="translate(-17.42 -93.4)"/><path class="cls-3" d="M191.42,227.69l.75,0a16.11,16.11,0,0,1,2.23.18,20.58,20.58,0,0,1,8.22,2.86,21,21,0,0,1,5,4.08,21.93,21.93,0,0,1,4.15,6.56,22.89,22.89,0,0,1,1.63,8.91v10.35c0,29.26,0,71.59.06,123.89s0,114.58,0,183.73v32.9c0,1.11-.06,2.24-.12,3.37a23.39,23.39,0,0,1-.62,3.32,22.25,22.25,0,0,1-7.15,11.37,23.37,23.37,0,0,1-5.86,3.56,22.29,22.29,0,0,1-6.7,1.58l-1.73.09h-40l-57.39,0H49.71a23,23,0,0,1-14.26-4,22.41,22.41,0,0,1-8.63-12,24.55,24.55,0,0,1-.9-7.42v-7.4q0-14.77,0-29.36,0-29.15,0-57.4c0-37.64,0-73.94,0-108.52s0-67.44,0-98.19q0-23.07,0-44.5c0-1.79,0-3.56,0-5.33,0-.88.06-1.77.1-2.66s.23-1.75.38-2.62A22.82,22.82,0,0,1,31,235.62a22.25,22.25,0,0,1,17.74-8.2l19.14,0H81.59a7.09,7.09,0,0,1,4.33,1.08A7.25,7.25,0,0,1,88.7,232a8,8,0,0,1,.49,2.15c0,.74,0,1.44,0,2.16,0,1.43,0,2.87,0,4.24a7.09,7.09,0,0,0,1.53,3.75,6.58,6.58,0,0,0,3.3,2.21,15.23,15.23,0,0,0,4,.25H106l29,0,12.76,0c1,0,2,0,3,0a6.25,6.25,0,0,0,2.7-.92,6.94,6.94,0,0,0,3.12-4.41,11.4,11.4,0,0,0,.19-2.67c0-.89,0-1.77,0-2.63a16.82,16.82,0,0,1,.1-2.56,7.33,7.33,0,0,1,.79-2.35,6.93,6.93,0,0,1,3.46-3.14,10.55,10.55,0,0,1,4.35-.49l14.24,0,8.76,0,3,0-3,0-8.76,0-14.24,0a10.35,10.35,0,0,0-4.29.49,6.82,6.82,0,0,0-3.37,3.07,7.33,7.33,0,0,0-.76,2.3,16.28,16.28,0,0,0-.1,2.53v2.63a11.88,11.88,0,0,1-.18,2.71,7.19,7.19,0,0,1-3.21,4.55,6.49,6.49,0,0,1-2.79.95c-1,.07-2,0-3,0H96.06a7.23,7.23,0,0,1-2.06-.26,7,7,0,0,1-3.46-2.31,7.47,7.47,0,0,1-1.6-3.9c-.08-1.44,0-2.84,0-4.28,0-.71,0-1.44,0-2.14a7,7,0,0,0-.47-2.06,6.7,6.7,0,0,0-6.81-4.3H48.73a21.84,21.84,0,0,0-17.45,8.08,22.55,22.55,0,0,0-4.38,9.2c-.14.85-.29,1.71-.37,2.58s-.12,1.73-.1,2.62v5.33q0,21.41,0,44.5V506.8q0,28.21,0,57.4V601a23.49,23.49,0,0,0,.88,7.28A21.86,21.86,0,0,0,35.74,620a22.41,22.41,0,0,0,14,3.88H64.53l29.35,0,57.39,0,28,0H191.3l1.7-.08a22.35,22.35,0,0,0,6.55-1.54,23.33,23.33,0,0,0,5.73-3.49,21.77,21.77,0,0,0,7-11.12,23.86,23.86,0,0,0,.61-3.25c.05-1.11.14-2.2.12-3.32v-6.66q0-13.28,0-26.24c0-69.15.06-131.43.09-183.73s.07-94.63.1-123.89c0-3.65,0-7.1,0-10.35a22.77,22.77,0,0,0-1.59-8.85,21.87,21.87,0,0,0-4.11-6.54,21.83,21.83,0,0,0-13.13-7,18.49,18.49,0,0,0-2.22-.2Z" transform="translate(-17.42 -93.4)"/><rect class="cls-4" x="26.49" y="389.83" width="143.2" height="31.22" rx="5.77"/><path d="M73.39,314.07h2.83v12.21H73.39Z" transform="translate(-17.42 -93.4)"/><path d="M90.32,314.07v12.21H88l-6.09-7.41v7.41H79.12V314.07h2.33l6.08,7.41v-7.41Z" transform="translate(-17.42 -93.4)"/><path d="M101.47,320h2.58v5a7.41,7.41,0,0,1-2.3,1.15,8.84,8.84,0,0,1-2.63.4,7.14,7.14,0,0,1-3.42-.81,6,6,0,0,1-2.39-2.25,6.59,6.59,0,0,1,0-6.51,6.05,6.05,0,0,1,2.4-2.25,7.33,7.33,0,0,1,3.46-.81,7.54,7.54,0,0,1,2.91.54,5.65,5.65,0,0,1,2.2,1.57l-1.81,1.67a4.22,4.22,0,0,0-3.16-1.38,4.4,4.4,0,0,0-2.08.49,3.6,3.6,0,0,0-1.41,1.38,4.06,4.06,0,0,0-.51,2,4,4,0,0,0,.51,2,3.67,3.67,0,0,0,1.4,1.39,4.17,4.17,0,0,0,2,.49,4.55,4.55,0,0,0,2.2-.52Z" transform="translate(-17.42 -93.4)"/><path d="M114.46,326.28l-2.36-3.4h-2.6v3.4h-2.83V314.07H112a6.82,6.82,0,0,1,2.82.54,4.17,4.17,0,0,1,1.84,1.53,4.26,4.26,0,0,1,.65,2.36,4,4,0,0,1-2.52,3.86l2.74,3.92Zm-.72-9.36a3,3,0,0,0-1.94-.55h-2.3v4.26h2.3a3,3,0,0,0,1.94-.56,2.21,2.21,0,0,0,0-3.15Z" transform="translate(-17.42 -93.4)"/><path d="M129,324v2.27H119.5V314.07h9.23v2.26h-6.42V319H128v2.2h-5.67V324Z" transform="translate(-17.42 -93.4)"/><path d="M132.42,326.1a6.54,6.54,0,0,1-2.17-1l1-2.13a6.53,6.53,0,0,0,1.87.92,6.78,6.78,0,0,0,2.16.35,3.55,3.55,0,0,0,1.78-.35,1.08,1.08,0,0,0,.58-1,.92.92,0,0,0-.34-.72,2.52,2.52,0,0,0-.88-.46c-.35-.12-.83-.25-1.43-.39a19.33,19.33,0,0,1-2.29-.66,3.85,3.85,0,0,1-1.53-1.06,2.9,2.9,0,0,1-.63-2,3.44,3.44,0,0,1,.57-1.93,3.89,3.89,0,0,1,1.74-1.37,7.2,7.2,0,0,1,2.83-.5,9.27,9.27,0,0,1,2.29.28,6.49,6.49,0,0,1,1.95.8l-.87,2.14a6.92,6.92,0,0,0-3.38-1,3.14,3.14,0,0,0-1.76.39,1.16,1.16,0,0,0-.57,1,1,1,0,0,0,.66.94,10.75,10.75,0,0,0,2,.6,19.67,19.67,0,0,1,2.28.66,3.69,3.69,0,0,1,1.53,1,2.76,2.76,0,0,1,.64,1.93,3.37,3.37,0,0,1-.59,1.92,4,4,0,0,1-1.75,1.37,7.31,7.31,0,0,1-2.85.5A10.07,10.07,0,0,1,132.42,326.1Z" transform="translate(-17.42 -93.4)"/><path d="M150.39,323.66h-5.67l-1.08,2.62h-2.9l5.44-12.21H149l5.46,12.21h-3Zm-.89-2.14-1.94-4.68-1.93,4.68Z" transform="translate(-17.42 -93.4)"/><path d="M163.5,326.28l-2.36-3.4h-2.6v3.4h-2.83V314.07H161a6.82,6.82,0,0,1,2.82.54,4.17,4.17,0,0,1,1.84,1.53,4.26,4.26,0,0,1,.65,2.36,4,4,0,0,1-2.52,3.86l2.74,3.92Zm-.72-9.36a3,3,0,0,0-1.94-.55h-2.3v4.26h2.3a3,3,0,0,0,1.94-.56,2.21,2.21,0,0,0,0-3.15Z" transform="translate(-17.42 -93.4)"/><path class="cls-3" d="M51.09,372.69v.52H47v-5.73H51V368H47.64v2h3v.52h-3v2.13Z" transform="translate(-17.42 -93.4)"/><path class="cls-3" d="M51.91,370.74h2.15v.51H51.91Z" transform="translate(-17.42 -93.4)"/><path class="cls-3" d="M62.48,370.72v2.49H61.9v-2.44c0-.91-.46-1.37-1.24-1.37A1.38,1.38,0,0,0,59.22,371v2.26h-.59v-2.44c0-.91-.45-1.37-1.24-1.37A1.38,1.38,0,0,0,56,371v2.26h-.59V368.9h.56v.79a1.73,1.73,0,0,1,1.58-.82,1.55,1.55,0,0,1,1.54.91,1.86,1.86,0,0,1,1.7-.91A1.63,1.63,0,0,1,62.48,370.72Z" transform="translate(-17.42 -93.4)"/><path class="cls-3" d="M67.31,370.54v2.67h-.55v-.67a1.62,1.62,0,0,1-1.49.72c-1,0-1.57-.51-1.57-1.26s.43-1.22,1.66-1.22h1.37v-.26c0-.74-.42-1.14-1.22-1.14a2.18,2.18,0,0,0-1.43.51l-.27-.44a2.76,2.76,0,0,1,1.76-.58A1.53,1.53,0,0,1,67.31,370.54Zm-.58,1.38v-.7H65.38c-.84,0-1.11.32-1.11.77s.41.81,1.09.81A1.37,1.37,0,0,0,66.73,371.92Z" transform="translate(-17.42 -93.4)"/><path class="cls-3" d="M68.77,367.54a.43.43,0,0,1,.85,0,.42.42,0,0,1-.43.43A.42.42,0,0,1,68.77,367.54Zm.13,1.36h.58v4.31H68.9Z" transform="translate(-17.42 -93.4)"/><path class="cls-3" d="M71.1,367.13h.58v6.08H71.1Z" transform="translate(-17.42 -93.4)"/><path d="M49.34,425.93c0,1.22-.89,2-2.35,2H45.45v1.81h-.6V424H47C48.45,424,49.34,424.7,49.34,425.93Zm-.61,0c0-.92-.61-1.44-1.75-1.44H45.45v2.86H47C48.12,427.35,48.73,426.83,48.73,425.93Z" transform="translate(-17.42 -93.4)"/><path d="M53.74,427v2.67h-.56V429a1.62,1.62,0,0,1-1.48.71c-1,0-1.58-.51-1.58-1.25s.43-1.22,1.67-1.22h1.37V427c0-.73-.42-1.14-1.23-1.14a2.2,2.2,0,0,0-1.43.51l-.26-.43a2.71,2.71,0,0,1,1.75-.58A1.53,1.53,0,0,1,53.74,427Zm-.58,1.37v-.7H51.8c-.83,0-1.1.33-1.1.77s.4.81,1.09.81A1.38,1.38,0,0,0,53.16,428.4Z" transform="translate(-17.42 -93.4)"/><path d="M54.72,429.21l.26-.46a2.64,2.64,0,0,0,1.54.48c.82,0,1.15-.28,1.15-.7,0-1.13-2.79-.24-2.79-1.94,0-.71.6-1.23,1.7-1.23a2.89,2.89,0,0,1,1.53.4l-.26.46a2.19,2.19,0,0,0-1.27-.36c-.78,0-1.12.3-1.12.71,0,1.16,2.79.29,2.79,1.94,0,.75-.65,1.23-1.77,1.23A2.9,2.9,0,0,1,54.72,429.21Z" transform="translate(-17.42 -93.4)"/><path d="M58.73,429.21l.26-.46a2.64,2.64,0,0,0,1.54.48c.81,0,1.15-.28,1.15-.7,0-1.13-2.79-.24-2.79-1.94,0-.71.6-1.23,1.7-1.23a2.86,2.86,0,0,1,1.52.4l-.25.46a2.23,2.23,0,0,0-1.27-.36c-.78,0-1.12.3-1.12.71,0,1.16,2.79.29,2.79,1.94,0,.75-.65,1.23-1.78,1.23A2.89,2.89,0,0,1,58.73,429.21Z" transform="translate(-17.42 -93.4)"/><path d="M69.58,425.39,68,429.7H67.4L66,426.17l-1.36,3.53h-.55l-1.62-4.31h.56l1.35,3.66,1.38-3.66h.5l1.38,3.66,1.37-3.66Z" transform="translate(-17.42 -93.4)"/><path d="M69.9,427.54a2.2,2.2,0,1,1,2.2,2.2A2.12,2.12,0,0,1,69.9,427.54Zm3.8,0a1.61,1.61,0,1,0-1.6,1.68A1.58,1.58,0,0,0,73.7,427.54Z" transform="translate(-17.42 -93.4)"/><path d="M77.65,425.36v.56h-.14a1.4,1.4,0,0,0-1.45,1.59v2.2h-.58v-4.31H76v.84A1.63,1.63,0,0,1,77.65,425.36Z" transform="translate(-17.42 -93.4)"/><path d="M82.59,423.62v6.08H82v-.85a1.86,1.86,0,0,1-1.66.89,2.19,2.19,0,0,1,0-4.38,1.87,1.87,0,0,1,1.64.85v-2.59ZM82,427.54a1.61,1.61,0,1,0-1.6,1.68A1.58,1.58,0,0,0,82,427.54Z" transform="translate(-17.42 -93.4)"/><rect class="cls-5" x="26.49" y="286.02" width="143.2" height="30.98" rx="6.79"/><path class="cls-3" d="M180.32,410.4l.22,0c.14,0,.36,0,.64-.06a6.75,6.75,0,0,0,5.83-6.26c0-.94,0-1.95,0-3,0-4.26,0-9.49-.08-15.51a6.74,6.74,0,0,0-2-4.05,6.57,6.57,0,0,0-4.38-1.89H169.74l-119,.07a6.58,6.58,0,0,0-6.26,4.64,15.17,15.17,0,0,0-.29,4.18v14.78a7,7,0,0,0,.22,2A6.54,6.54,0,0,0,50,410.12c1.3.07,2.69,0,4,0H77.5l53.52.05,36.07.08,9.81.05,2.55,0,.87,0s-.29,0-.87,0l-2.55,0-9.81.05-36.07.08-53.52.06H54c-1.35,0-2.67,0-4.07,0a7,7,0,0,1-6.07-5.22,7.31,7.31,0,0,1-.24-2.12V386.35a7.78,7.78,0,0,1,.31-2.19,7.09,7.09,0,0,1,6.74-5l119,.07,10.87,0a6.85,6.85,0,0,1,4.58,2,7,7,0,0,1,2,4.24c.06,6.08,0,11.27,0,15.54,0,1.06,0,2.06,0,3a6.86,6.86,0,0,1-3.56,5.53,6.69,6.69,0,0,1-2.43.77A6.32,6.32,0,0,1,180.32,410.4Z" transform="translate(-17.42 -93.4)"/><rect class="cls-5" x="26.49" y="341.93" width="143.2" height="30.98" rx="6.79"/><path class="cls-3" d="M180.32,466.31l.22,0a5.48,5.48,0,0,0,.64-.07,6.54,6.54,0,0,0,2.39-.8A6.75,6.75,0,0,0,187,460c0-.93,0-1.94,0-3,0-4.26,0-9.49-.08-15.51a6.8,6.8,0,0,0-2-4.06,6.62,6.62,0,0,0-4.38-1.89H169.74l-119,.07a6.58,6.58,0,0,0-6.26,4.63,15.28,15.28,0,0,0-.29,4.19v14.77a7,7,0,0,0,.22,2,6.56,6.56,0,0,0,2.07,3.32A6.68,6.68,0,0,0,50,466c1.3.07,2.69,0,4,0H77.5l53.52.05,36.07.08,9.81.05,2.55,0,.87,0-.87,0-2.55,0-9.81.05-36.07.08-53.52.05H54c-1.35,0-2.67,0-4.07,0a7.08,7.08,0,0,1-3.84-1.66,7,7,0,0,1-2.23-3.57,7.23,7.23,0,0,1-.24-2.12V442.26a7.78,7.78,0,0,1,.31-2.19,7.08,7.08,0,0,1,6.74-5l119,.07,10.87,0a6.9,6.9,0,0,1,4.58,2,7,7,0,0,1,2,4.24c.06,6.08,0,11.27,0,15.54,0,1.06,0,2.06,0,3a6.86,6.86,0,0,1-3.56,5.54,6.44,6.44,0,0,1-2.43.76A5.68,5.68,0,0,1,180.32,466.31Z" transform="translate(-17.42 -93.4)"/><path class="cls-6" d="M181.52,580.41s.3,0,.87-.1a5.6,5.6,0,0,0,4.53-4.36,14,14,0,0,0,.11-2.64c0-.95,0-2,0-3,0-4.29,0-9.54-.05-15.63a5.49,5.49,0,0,0-1.95-4,5.27,5.27,0,0,0-2.13-1.09,9.34,9.34,0,0,0-2.5-.18l-10.95,0-119.93.07A5.41,5.41,0,0,0,45.74,551a5.31,5.31,0,0,0-1.57,3.73q0,4.34,0,8.62v10.59a9,9,0,0,0,.13,2,5.34,5.34,0,0,0,2.15,3.23,5.41,5.41,0,0,0,1.78.81,7.65,7.65,0,0,0,2,.16H77.93l53.91.05,36.35.08,9.88.05,2.57,0,.88,0s-.3,0-.88,0l-2.57,0-9.88,0-36.35.08-53.91,0H50.21a7.91,7.91,0,0,1-2.1-.17,5.71,5.71,0,0,1-2-.89,5.8,5.8,0,0,1-2.35-3.53,9.66,9.66,0,0,1-.14-2.13V554.72a5.84,5.84,0,0,1,5.85-5.78l119.93.07,10.95,0a10.17,10.17,0,0,1,2.58.19,5.73,5.73,0,0,1,4.28,5.41c0,6.09,0,11.34,0,15.64,0,1.07,0,2.09,0,3a13.58,13.58,0,0,1-.13,2.67,5.69,5.69,0,0,1-2.29,3.44,5.5,5.5,0,0,1-2.39.94A4.07,4.07,0,0,1,181.52,580.41Z" transform="translate(-17.42 -93.4)"/><path class="cls-6" d="M147.36,564.8c0,.14-14.49.25-32.36.25s-32.37-.11-32.37-.25,14.49-.25,32.37-.25S147.36,564.66,147.36,564.8Z" transform="translate(-17.42 -93.4)"/><circle class="cls-7" cx="120.9" cy="289.87" r="12.14" transform="translate(-186.98 76.98) rotate(-45)"/><path class="cls-6" d="M128.75,299.08a7.74,7.74,0,0,0-7.85-6.9,8,8,0,0,0-7.85,6.92A10.82,10.82,0,0,0,120.9,302,11.22,11.22,0,0,0,128.75,299.08Z" transform="translate(-17.42 -93.4)"/><circle class="cls-6" cx="103.48" cy="194.85" r="4.76"/><path class="cls-3" d="M128.69,298.66a9.83,9.83,0,0,0-.74-2.24,7.5,7.5,0,0,0-1.72-2.11,9.4,9.4,0,0,0-3.1-1.74l-.25-.08.23-.12a4.73,4.73,0,0,0,1.89-1.9,4.62,4.62,0,0,0-1-5.65,4.61,4.61,0,0,0-6.17,0,4.66,4.66,0,0,0-1,5.65,4.8,4.8,0,0,0,.83,1.11,6.2,6.2,0,0,0,1,.8l.21.14-.24.06a7.21,7.21,0,0,0-3.1,1.72,7.75,7.75,0,0,0-1.63,2.19,10.17,10.17,0,0,0-.64,1.64c0,.19-.09.34-.11.44a.7.7,0,0,1,0,.16s0-.06,0-.16,0-.26.09-.46a8.15,8.15,0,0,1,.59-1.68,7.74,7.74,0,0,1,1.62-2.26,7.26,7.26,0,0,1,3.16-1.8l0,.2a6,6,0,0,1-1.1-.83,4.89,4.89,0,0,1,3.42-8.37,4.92,4.92,0,0,1,3.27,1.26,4.91,4.91,0,0,1,1,6,4.94,4.94,0,0,1-2,2l0-.2a9.35,9.35,0,0,1,3.16,1.82,7.46,7.46,0,0,1,1.71,2.18,7,7,0,0,1,.37.95,4,4,0,0,1,.18.73c0,.19,0,.34.07.46S128.7,298.66,128.69,298.66Z" transform="translate(-17.42 -93.4)"/><path class="cls-3" d="M133,289.87a.55.55,0,0,1,0-.2c0-.14,0-.33,0-.57s0-.27,0-.43-.05-.32-.08-.51a8.24,8.24,0,0,0-.26-1.25,11.25,11.25,0,0,0-1.35-3.21,12.07,12.07,0,0,0-3.07-3.41,12,12,0,0,0-5.07-2.25,12.24,12.24,0,0,0-6.32.53,12.42,12.42,0,0,0-4.4,2.8,13.23,13.23,0,0,0-1.18,1.4,11.45,11.45,0,0,0-1.72,3.31,11.89,11.89,0,0,0,0,7.58,11.58,11.58,0,0,0,1.72,3.31,12.19,12.19,0,0,0,1.18,1.39,11.43,11.43,0,0,0,1.36,1.16,12.25,12.25,0,0,0,1.47,1,12.06,12.06,0,0,0,16-4.44,11.14,11.14,0,0,0,1.35-3.21,7.77,7.77,0,0,0,.26-1.25c0-.18.06-.35.08-.51s0-.29,0-.42,0-.43,0-.58,0-.19,0-.19v.19l0,.58c0,.13,0,.28,0,.43s0,.33-.07.51a9.09,9.09,0,0,1-.23,1.27,11.78,11.78,0,0,1-1.33,3.26,12.18,12.18,0,0,1-8.23,5.8,12.3,12.3,0,0,1-6.45-.51,14.1,14.1,0,0,1-1.6-.7,14.31,14.31,0,0,1-1.51-1,14,14,0,0,1-1.39-1.18,13.73,13.73,0,0,1-1.21-1.42,12.14,12.14,0,0,1-1.76-3.39,12.23,12.23,0,0,1,0-7.75,12,12,0,0,1,1.76-3.38,13.85,13.85,0,0,1,1.21-1.43,14,14,0,0,1,1.39-1.18,12.78,12.78,0,0,1,1.51-1,11.25,11.25,0,0,1,1.6-.7,12.31,12.31,0,0,1,6.45-.52,12.18,12.18,0,0,1,8.23,5.8,11.83,11.83,0,0,1,1.33,3.27,9,9,0,0,1,.23,1.26c0,.19.06.36.07.51s0,.3,0,.43l0,.58Z" transform="translate(-17.42 -93.4)"/><path class="cls-6" d="M195.9,340.36c0,.13-34.1.25-76.15.25s-76.16-.12-76.16-.25,34.09-.26,76.16-.26S195.9,340.22,195.9,340.36Z" transform="translate(-17.42 -93.4)"/><path class="cls-6" d="M195.9,532c0,.14-34.1.25-76.15.25s-76.16-.11-76.16-.25,34.09-.25,76.16-.25S195.9,531.83,195.9,532Z" transform="translate(-17.42 -93.4)"/><path class="cls-2" d="M58.3,450.32l2.17,1.23-.57,1-2.2-1.3,0,2.49h-1.1l0-2.49-2.21,1.3-.56-1,2.19-1.23-2.19-1.2.56-1,2.21,1.29,0-2.46h1.1l0,2.46,2.2-1.29.57,1Z" transform="translate(-17.42 -93.4)"/><path class="cls-2" d="M66,450.32l2.17,1.23-.56,1-2.21-1.3,0,2.49h-1.1l0-2.49-2.2,1.3-.57-1,2.19-1.23-2.19-1.2.57-1,2.2,1.29,0-2.46h1.1l0,2.46,2.21-1.29.56,1Z" transform="translate(-17.42 -93.4)"/><path class="cls-2" d="M73.62,450.32l2.18,1.23-.57,1L73,451.25l0,2.49H72v-2.49l-2.2,1.3-.57-1,2.19-1.23-2.19-1.2.57-1,2.2,1.29v-2.46H73l0,2.46,2.21-1.29.57,1Z" transform="translate(-17.42 -93.4)"/><path class="cls-2" d="M81.29,450.32l2.17,1.23-.57,1-2.2-1.3v2.49H79.61l0-2.49-2.21,1.3-.57-1L79,450.32l-2.19-1.2.57-1,2.21,1.29,0-2.46H80.7v2.46l2.2-1.29.57,1Z" transform="translate(-17.42 -93.4)"/><path class="cls-2" d="M58.74,394.89v2.5h-.58v-2.45a1.2,1.2,0,0,0-1.3-1.37,1.41,1.41,0,0,0-1.51,1.55v2.27h-.58v-4.32h.56v.8A1.8,1.8,0,0,1,57,393,1.65,1.65,0,0,1,58.74,394.89Z" transform="translate(-17.42 -93.4)"/><path class="cls-2" d="M63.57,394.71v2.68H63v-.68a1.61,1.61,0,0,1-1.49.72c-1,0-1.57-.51-1.57-1.26s.43-1.22,1.66-1.22H63v-.26c0-.74-.41-1.14-1.22-1.14a2.18,2.18,0,0,0-1.43.51l-.26-.44a2.71,2.71,0,0,1,1.75-.58A1.53,1.53,0,0,1,63.57,394.71ZM63,396.09v-.7H61.64c-.84,0-1.11.32-1.11.77s.41.81,1.09.81A1.37,1.37,0,0,0,63,396.09Z" transform="translate(-17.42 -93.4)"/><path class="cls-2" d="M72.27,394.89v2.5h-.58v-2.45c0-.91-.46-1.37-1.24-1.37A1.38,1.38,0,0,0,69,395.12v2.27h-.58v-2.45c0-.91-.46-1.37-1.25-1.37a1.38,1.38,0,0,0-1.44,1.55v2.27h-.58v-4.32h.55v.79A1.75,1.75,0,0,1,67.3,393a1.54,1.54,0,0,1,1.53.91,1.86,1.86,0,0,1,1.7-.91A1.63,1.63,0,0,1,72.27,394.89Z" transform="translate(-17.42 -93.4)"/><path class="cls-2" d="M77.62,395.41H74a1.59,1.59,0,0,0,1.69,1.5,1.68,1.68,0,0,0,1.32-.57l.33.38a2.11,2.11,0,0,1-1.66.71,2.13,2.13,0,0,1-2.26-2.2,2.1,2.1,0,1,1,4.19,0S77.62,395.34,77.62,395.41ZM74,395h3a1.53,1.53,0,0,0-3,0Z" transform="translate(-17.42 -93.4)"/><path class="cls-2" d="M86.06,395.21c0,1.4-.52,2.22-1.36,2.22a.87.87,0,0,1-.93-.9,1.83,1.83,0,0,1-1.64.9,2.12,2.12,0,0,1,0-4.23,1.81,1.81,0,0,1,1.62.86v-.83h.54v3.11c0,.45.23.62.51.62.5,0,.83-.63.83-1.74a3.12,3.12,0,0,0-3.37-3.2,3.3,3.3,0,1,0,0,6.59,3.67,3.67,0,0,0,1.57-.36l.14.4a4,4,0,0,1-1.71.37,3.71,3.71,0,1,1,0-7.42A3.55,3.55,0,0,1,86.06,395.21Zm-2.3.09a1.56,1.56,0,1,0-3.12,0,1.56,1.56,0,1,0,3.12,0Z" transform="translate(-17.42 -93.4)"/><path class="cls-2" d="M94.4,394.89v2.5h-.58v-2.45c0-.91-.46-1.37-1.24-1.37a1.38,1.38,0,0,0-1.44,1.55v2.27h-.58v-2.45c0-.91-.46-1.37-1.25-1.37a1.39,1.39,0,0,0-1.44,1.55v2.27h-.58v-4.32h.55v.79a1.76,1.76,0,0,1,1.59-.82A1.54,1.54,0,0,1,91,394a1.87,1.87,0,0,1,1.7-.91A1.63,1.63,0,0,1,94.4,394.89Z" transform="translate(-17.42 -93.4)"/><path class="cls-2" d="M99.24,394.71v2.68h-.56v-.68a1.6,1.6,0,0,1-1.48.72c-1,0-1.58-.51-1.58-1.26s.43-1.22,1.67-1.22h1.37v-.26c0-.74-.42-1.14-1.23-1.14a2.2,2.2,0,0,0-1.43.51l-.26-.44a2.71,2.71,0,0,1,1.75-.58A1.53,1.53,0,0,1,99.24,394.71Zm-.58,1.38v-.7H97.3c-.83,0-1.1.32-1.1.77s.4.81,1.09.81A1.38,1.38,0,0,0,98.66,396.09Z" transform="translate(-17.42 -93.4)"/><path class="cls-2" d="M100.69,391.71a.42.42,0,0,1,.43-.41.41.41,0,0,1,.42.4.42.42,0,0,1-.42.43A.42.42,0,0,1,100.69,391.71Zm.13,1.36h.58v4.32h-.58Z" transform="translate(-17.42 -93.4)"/><path class="cls-2" d="M103,391.3h.58v6.09H103Z" transform="translate(-17.42 -93.4)"/><path class="cls-2" d="M104.85,397a.44.44,0,0,1,.44-.45.45.45,0,0,1,.44.45.45.45,0,0,1-.44.45A.45.45,0,0,1,104.85,397Z" transform="translate(-17.42 -93.4)"/><path class="cls-2" d="M106.41,395.23a2.12,2.12,0,0,1,2.22-2.19,1.89,1.89,0,0,1,1.69.85l-.43.3a1.47,1.47,0,0,0-1.26-.64,1.68,1.68,0,0,0,0,3.36,1.48,1.48,0,0,0,1.26-.63l.43.29a1.9,1.9,0,0,1-1.69.86A2.13,2.13,0,0,1,106.41,395.23Z" transform="translate(-17.42 -93.4)"/><path class="cls-2" d="M111,395.23a2.2,2.2,0,1,1,2.2,2.2A2.13,2.13,0,0,1,111,395.23Zm3.8,0a1.61,1.61,0,1,0-1.6,1.68A1.57,1.57,0,0,0,114.75,395.23Z" transform="translate(-17.42 -93.4)"/><path class="cls-2" d="M123.64,394.89v2.5h-.58v-2.45c0-.91-.46-1.37-1.24-1.37a1.38,1.38,0,0,0-1.44,1.55v2.27h-.58v-2.45c0-.91-.46-1.37-1.25-1.37a1.38,1.38,0,0,0-1.44,1.55v2.27h-.59v-4.32h.56v.79a1.74,1.74,0,0,1,1.58-.82,1.55,1.55,0,0,1,1.54.91,1.86,1.86,0,0,1,1.7-.91A1.63,1.63,0,0,1,123.64,394.89Z" transform="translate(-17.42 -93.4)"/><path class="cls-3" d="M49.62,267.21a.51.51,0,0,1-.32-.12l-4.55-4a.51.51,0,0,1-.16-.37.46.46,0,0,1,.17-.36l4.55-3.78a.48.48,0,1,1,.62.73l-4.13,3.43,4.14,3.62a.48.48,0,0,1,0,.68A.46.46,0,0,1,49.62,267.21Z" transform="translate(-17.42 -93.4)"/><path class="cls-3" d="M181.86,262.84a2.44,2.44,0,1,1-2.44-2.43A2.43,2.43,0,0,1,181.86,262.84Z" transform="translate(-17.42 -93.4)"/><path class="cls-3" d="M188.88,262.84a2.43,2.43,0,1,1-2.43-2.43A2.43,2.43,0,0,1,188.88,262.84Z" transform="translate(-17.42 -93.4)"/><path class="cls-3" d="M195.9,262.84a2.43,2.43,0,1,1-2.43-2.43A2.43,2.43,0,0,1,195.9,262.84Z" transform="translate(-17.42 -93.4)"/><path class="cls-2" d="M94.89,495.1h1.25v5.43H94.89Z" transform="translate(-17.42 -93.4)"/><path class="cls-2" d="M102.41,495.1v5.43h-1l-2.71-3.3v3.3H97.43V495.1h1l2.7,3.3v-3.3Z" transform="translate(-17.42 -93.4)"/><path class="cls-2" d="M107.37,497.73h1.14v2.2a3.07,3.07,0,0,1-1,.52,4.3,4.3,0,0,1-1.17.17,3.19,3.19,0,0,1-1.52-.36,2.68,2.68,0,0,1-1.44-2.44,2.73,2.73,0,0,1,.38-1.45,2.65,2.65,0,0,1,1.07-1,3.2,3.2,0,0,1,1.53-.36,3.38,3.38,0,0,1,1.3.24,2.56,2.56,0,0,1,1,.7l-.81.74a2,2,0,0,0-2.33-.39,1.54,1.54,0,0,0-.63.61,2,2,0,0,0,0,1.81,1.54,1.54,0,0,0,.63.61,1.8,1.8,0,0,0,.91.22,2,2,0,0,0,1-.23Z" transform="translate(-17.42 -93.4)"/><path class="cls-2" d="M113.14,500.53l-1-1.51h-1.16v1.51h-1.25V495.1H112a3,3,0,0,1,1.25.24,1.87,1.87,0,0,1,0,3.45l1.22,1.74Zm-.32-4.16a1.34,1.34,0,0,0-.86-.24h-1V498h1a1.28,1.28,0,0,0,.86-.25.86.86,0,0,0,.29-.7A.85.85,0,0,0,112.82,496.37Z" transform="translate(-17.42 -93.4)"/><path class="cls-2" d="M119.58,499.52v1h-4.2V495.1h4.1v1h-2.85v1.18h2.52v1h-2.52v1.25Z" transform="translate(-17.42 -93.4)"/><path class="cls-2" d="M121.12,500.45a3.07,3.07,0,0,1-1-.45l.42-.95a2.92,2.92,0,0,0,.83.41,3.23,3.23,0,0,0,1,.16,1.61,1.61,0,0,0,.79-.16.49.49,0,0,0,.25-.43.42.42,0,0,0-.15-.32,1.19,1.19,0,0,0-.39-.2c-.15-.05-.37-.11-.64-.17a8.58,8.58,0,0,1-1-.3,1.61,1.61,0,0,1-.68-.47,1.28,1.28,0,0,1-.28-.87,1.52,1.52,0,0,1,.25-.86,1.78,1.78,0,0,1,.77-.61,3.19,3.19,0,0,1,1.26-.22,4.31,4.31,0,0,1,1,.12,3.12,3.12,0,0,1,.87.36l-.39.95a3,3,0,0,0-1.5-.42,1.33,1.33,0,0,0-.78.17.52.52,0,0,0-.26.45.44.44,0,0,0,.29.41,4.86,4.86,0,0,0,.89.27,8.26,8.26,0,0,1,1,.3,1.65,1.65,0,0,1,.68.46,1.24,1.24,0,0,1,.28.86,1.52,1.52,0,0,1-.26.85,1.69,1.69,0,0,1-.78.61,3.16,3.16,0,0,1-1.26.22A4.34,4.34,0,0,1,121.12,500.45Z" transform="translate(-17.42 -93.4)"/><path class="cls-2" d="M129.11,499.37h-2.52l-.48,1.16h-1.29l2.42-5.43h1.24l2.43,5.43h-1.32Zm-.4-1-.86-2.08-.86,2.08Z" transform="translate(-17.42 -93.4)"/><path class="cls-2" d="M134.93,500.53,133.88,499h-1.15v1.51h-1.26V495.1h2.35a3.08,3.08,0,0,1,1.26.24,1.88,1.88,0,0,1,.81.68,1.92,1.92,0,0,1,.29,1.05,1.9,1.9,0,0,1-.29,1.05,1.86,1.86,0,0,1-.83.67l1.22,1.74Zm-.32-4.16a1.32,1.32,0,0,0-.86-.24h-1V498h1a1.26,1.26,0,0,0,.86-.25.87.87,0,0,0,.3-.7A.85.85,0,0,0,134.61,496.37Z" transform="translate(-17.42 -93.4)"/><path class="cls-3" d="M239,580s69.52-36.22,84.6-16.24-15.13,35.68-21,39.21-64.89,23.58-64.89,23.58l-15.58-16.62Z" transform="translate(-17.42 -93.4)"/><path class="cls-8" d="M266.39,599.39l27.72,14.93,25.33,5.48a3.23,3.23,0,0,1,2.41,4.05h0a3.19,3.19,0,0,1-2,2.15c-6.28,2.19-29.45,10.13-31.42,8.92-2.28-1.39-30.28-13.8-30.28-13.8Z" transform="translate(-17.42 -93.4)"/><g class="cls-9"><path class="cls-2" d="M321.85,623.85,286.51,634l1.19.6A4.81,4.81,0,0,0,291,635c3-.72,11.24-2.87,28.75-8.88a3.23,3.23,0,0,0,2.07-2.24Z" transform="translate(-17.42 -93.4)"/></g><g class="cls-9"><path class="cls-2" d="M280.39,623.59a2,2,0,0,1,2.52.68,1.88,1.88,0,0,1-.66,2.5,2.05,2.05,0,0,1-2.65-.73,2,2,0,0,1,1-2.53" transform="translate(-17.42 -93.4)"/></g><path class="cls-3" d="M306.33,624c.16-.12-1-1.5-.93-3.57s1.18-3.42,1-3.55-.46.19-.89.8a5.11,5.11,0,0,0-.83,2.74,5,5,0,0,0,.76,2.76C305.88,623.82,306.27,624.08,306.33,624Z" transform="translate(-17.42 -93.4)"/><path class="cls-3" d="M311.1,623.94c.19-.08-.26-1.44.06-3.1s1.2-2.79,1-2.92-1.38.89-1.72,2.79S311,624,311.1,623.94Z" transform="translate(-17.42 -93.4)"/><path class="cls-3" d="M299.62,625.29c.2-.07-.51-2.16-.23-4.79s1.33-4.56,1.15-4.66-1.58,1.77-1.84,4.59S299.47,625.38,299.62,625.29Z" transform="translate(-17.42 -93.4)"/><path class="cls-3" d="M290.81,621.45c.21,0,.35-1.87,1.3-3.92s2.26-3.4,2.11-3.55-1.73,1-2.73,3.26S290.64,621.48,290.81,621.45Z" transform="translate(-17.42 -93.4)"/><path class="cls-3" d="M282.56,617.28c.21,0,.07-2,1.25-4.12s2.94-3.07,2.83-3.25-.54.06-1.25.51a7.07,7.07,0,0,0-3.06,5.53C282.32,616.79,282.48,617.29,282.56,617.28Z" transform="translate(-17.42 -93.4)"/><path class="cls-3" d="M282.22,612.41a2.7,2.7,0,0,0-1-.58,8.23,8.23,0,0,0-3.21-.57,3.72,3.72,0,0,0-2.28.6,1.32,1.32,0,0,0-.4,1.44,2.13,2.13,0,0,0,1,1.09,4.57,4.57,0,0,0,5.57-1.65,5.26,5.26,0,0,0-.11-5.88,1.81,1.81,0,0,0-1.32-.77,1.27,1.27,0,0,0-1.2.88,4.45,4.45,0,0,0,0,2.33,9.28,9.28,0,0,0,1.2,3c.41.65.72.95.75.92a15.14,15.14,0,0,1-1.47-4,4.26,4.26,0,0,1,0-2,.69.69,0,0,1,.66-.49,1.25,1.25,0,0,1,.83.56,4.7,4.7,0,0,1,0,5.1,4,4,0,0,1-4.71,1.47,1.51,1.51,0,0,1-.76-.73.69.69,0,0,1,.21-.79,3.29,3.29,0,0,1,1.92-.55A12.13,12.13,0,0,1,282.22,612.41Z" transform="translate(-17.42 -93.4)"/><path class="cls-3" d="M276.33,602.94S210.81,563.25,202,558.33c-7.61-4.23-31.65-13.6-40.12,9.45S199,624.83,199,624.83l38.72,1.73,12.92-4.93,14.68,4.52Z" transform="translate(-17.42 -93.4)"/><path class="cls-8" d="M230.26,627.37l-29.37,11.35L180.25,654.4a3.22,3.22,0,0,1-4.64-.8h0a3.2,3.2,0,0,1-.32-2.94c2.43-6.2,11.46-29,13.66-29.67,2.54-.82,30.18-14,30.18-14Z" transform="translate(-17.42 -93.4)"/><g class="cls-9"><path class="cls-2" d="M175.61,653.6l15.3-33.42-1.23.51a4.82,4.82,0,0,0-2.47,2.26c-1.41,2.75-5.14,10.41-12,27.63a3.22,3.22,0,0,0,.36,3Z" transform="translate(-17.42 -93.4)"/></g><g class="cls-9"><path class="cls-2" d="M202.76,622.27a2,2,0,0,1-2.15,1.47,1.87,1.87,0,0,1-1.47-2.12,2.05,2.05,0,0,1,2.29-1.54,1.94,1.94,0,0,1,1.28,2.37" transform="translate(-17.42 -93.4)"/></g><path class="cls-3" d="M185.57,641.7c0,.19,1.78.22,3.32,1.61s1.83,3.13,2,3.09.16-.47,0-1.19a5,5,0,0,0-1.53-2.42,5,5,0,0,0-2.6-1.21C186,641.48,185.57,641.62,185.57,641.7Z" transform="translate(-17.42 -93.4)"/><path class="cls-3" d="M182.53,645.38c-.07.19,1.26.73,2.32,2.06s1.34,2.72,1.54,2.69.22-1.63-1-3.13S182.55,645.2,182.53,645.38Z" transform="translate(-17.42 -93.4)"/><path class="cls-3" d="M189,635.78c-.08.19,2,1,3.79,2.93s2.59,4,2.79,3.91-.31-2.35-2.29-4.38S189,635.6,189,635.78Z" transform="translate(-17.42 -93.4)"/><path class="cls-3" d="M197.61,631.58c-.14.15,1.2,1.48,2.13,3.54s1.13,3.93,1.33,3.91.34-2-.7-4.2S197.71,631.43,197.61,631.58Z" transform="translate(-17.42 -93.4)"/><path class="cls-3" d="M206.15,628c-.13.16,1.5,1.37,2.32,3.63s.42,4.22.62,4.25.32-.44.43-1.27a7,7,0,0,0-.41-3.23,6.89,6.89,0,0,0-1.8-2.69C206.68,628.16,206.19,628,206.15,628Z" transform="translate(-17.42 -93.4)"/><path class="cls-3" d="M210.07,630.93a2.73,2.73,0,0,0,1.12-.41,8.29,8.29,0,0,0,2.52-2.07,3.69,3.69,0,0,0,1-2.12,1.31,1.31,0,0,0-.83-1.24,2.09,2.09,0,0,0-1.5.08,4.54,4.54,0,0,0-2.37,5.3,5.28,5.28,0,0,0,4.54,3.75,1.83,1.83,0,0,0,1.44-.5,1.27,1.27,0,0,0,.11-1.49,4.46,4.46,0,0,0-1.78-1.5,9.24,9.24,0,0,0-3.09-1.06,2.83,2.83,0,0,0-1.19,0,14.61,14.61,0,0,1,4,1.51,4.15,4.15,0,0,1,1.53,1.35.68.68,0,0,1-.06.81,1.23,1.23,0,0,1-1,.27,4.73,4.73,0,0,1-3.9-3.29,4,4,0,0,1,1.95-4.53,1.51,1.51,0,0,1,1.05-.1.69.69,0,0,1,.46.68,3.26,3.26,0,0,1-.82,1.81A12.12,12.12,0,0,1,210.07,630.93Z" transform="translate(-17.42 -93.4)"/><path class="cls-3" d="M217.5,634.7c.82-.43,34-13.93,34-13.93l-33-16.32-19.87,10.28Z" transform="translate(-17.42 -93.4)"/><path class="cls-10" d="M176.49,594.79l.46.13,1.31.44,5,1.74,18.43,6.46L262.43,625l2.95.9-.31.14c3.88-8.14,7.6-16,11-23.2l.09.31L238,579.78,227,573l-2.93-1.83-.74-.47a1.35,1.35,0,0,1-.25-.18l.27.14.77.45,3,1.75,11.07,6.66,38.3,23.22.18.11-.09.19-11,23.21-.09.2-.21-.06-3-.91c-1.52-.44-3-1-4.44-1.5l-4.36-1.56-8.52-3-16.11-5.74-27.27-9.75-18.37-6.62-5-1.82-1.29-.49Z" transform="translate(-17.42 -93.4)"/><path class="cls-10" d="M217.5,634.7a10.63,10.63,0,0,1-1.23-1.17L213,630.2c-2.7-2.82-6.42-6.74-10.49-11.1l-4.11-4.39-.22-.24.29-.15,10.07-4.87,2.94-1.38a5.53,5.53,0,0,1,1.09-.44,7.7,7.7,0,0,1-1,.59l-2.87,1.5-10,5,.07-.38,4.11,4.38c4.08,4.35,7.75,8.31,10.39,11.2l3.11,3.43A10.24,10.24,0,0,1,217.5,634.7Z" transform="translate(-17.42 -93.4)"/><path class="cls-10" d="M284.4,570.4c.05.13-8.11,3.67-18.23,7.92s-18.37,7.58-18.42,7.45,8.1-3.68,18.23-7.92S284.34,570.27,284.4,570.4Z" transform="translate(-17.42 -93.4)"/><path class="cls-11" d="M234,470.5c-.69,0-24.61-.23-29.43,4.6s-14.86,78.78-14.86,78.78c5.16,1,8.51,2.88,11.64,4.44L242,582l17.6-9.15a4.42,4.42,0,0,0,1.24-6.71h0l23.41-84.64a43.36,43.36,0,0,0-11.39-6.2C265.94,472.8,234,470.5,234,470.5Z" transform="translate(-17.42 -93.4)"/><path class="cls-11" d="M276.32,478.35s7.2,1.59,9.95,6c6.45,10.41,26.3,47.36,29.63,56.21,3.53,9.37-.26,14.71-2.81,18.66-2.75,4.26-17.82,4.25-24.66-3.06-2.93-3.13-19.25-17.94-19.25-17.94Z" transform="translate(-17.42 -93.4)"/><path class="cls-3" d="M284.5,492.07a4.14,4.14,0,0,1-.27.73c-.22.51-.51,1.2-.88,2.05-.73,1.8-1.75,4.4-2.91,7.67-2.34,6.51-5.21,15.65-8.26,25.77s-5.69,19.28-7.66,26c-1,3.32-1.8,6-2.39,7.86-.29.88-.52,1.59-.7,2.12a4.69,4.69,0,0,1-.27.72,3.91,3.91,0,0,1,.17-.75c.16-.54.36-1.26.61-2.15.54-1.92,1.31-4.6,2.24-7.9,1.89-6.66,4.48-15.88,7.51-26s6-19.25,8.42-25.75c1.2-3.25,2.28-5.84,3.06-7.61l1-2A4.89,4.89,0,0,1,284.5,492.07Z" transform="translate(-17.42 -93.4)"/><path class="cls-11" d="M205.65,474.26s-7.55,4.29-10.31,6.82-31.32,43.19-35,55.85c-2.12,7.35,6,22.55,14.7,21.82,11.41-1,54.22-17.38,54.22-17.38l-9.6-20.88-24.2,3.87,17.6-17.68-6.57-32.88" transform="translate(-17.42 -93.4)"/><path class="cls-3" d="M307.21,536.25s-.16-.07-.44-.25l-1.18-.82-4.29-3.09c-3.61-2.63-8.58-6.28-14-10.34L283.6,519l.35,0c-3.49,4.54-6.59,8.5-8.85,11.31a33.16,33.16,0,0,1-3.77,4.35l3.52-4.55,8.7-11.41.15-.2.2.15,3.66,2.71c5.46,4.06,10.4,7.76,13.95,10.46l4.2,3.22,1.12.89A2.13,2.13,0,0,1,307.21,536.25Z" transform="translate(-17.42 -93.4)"/><polygon class="cls-12" points="222.01 419.68 202.82 428.28 210.48 444.93 222.48 437 222.01 419.68"/><path class="cls-6" d="M257.58,514.71,270.43,506a2.33,2.33,0,0,1,1.54-.4l16.79,1.43a1.29,1.29,0,0,1,1.18,1.32,2.29,2.29,0,0,1-.7,1.78L262,529.09l-20.33-3.23Z" transform="translate(-17.42 -93.4)"/><path class="cls-12" d="M239.44,513.08s6.93-5.14,8.56-5.42,8.95-.25,8.95-.25l6.16,3.52-3.81,2.59c-2.65-.58-3.41-1.61-3.41-1.61l-4.26.28Z" transform="translate(-17.42 -93.4)"/><path class="cls-12" d="M247.23,510.85l11,3.76,15.74,2.22a3.44,3.44,0,0,1-3.13,3.54c-1.9.2-5.23.43-5.23.43s-.8,2.9-3.25,3.54a8.09,8.09,0,0,1-2.37,2.8,2.5,2.5,0,0,1-.48.21c-1.51.44-4.53,4.54-6.55,5.09s-13-2-13-2l-.46-17.32Z" transform="translate(-17.42 -93.4)"/><path class="cls-13" d="M250.46,519.79s.87.19,2.27.46a40.68,40.68,0,0,0,5.5.73,42.31,42.31,0,0,0,5.56,0c1.42-.1,2.29-.23,2.3-.18a2.72,2.72,0,0,1-.6.15c-.4.08-1,.16-1.68.24a33.07,33.07,0,0,1-5.6.1,34,34,0,0,1-5.53-.82c-.69-.16-1.25-.32-1.63-.45A2.66,2.66,0,0,1,250.46,519.79Z" transform="translate(-17.42 -93.4)"/><path class="cls-13" d="M252.58,524.28a2.55,2.55,0,0,1-.11,1.08,2.19,2.19,0,0,1-.59,1.06,1.86,1.86,0,0,1-1.42.47,3.47,3.47,0,0,1-1.42-.4c-.4-.2-.73-.41-1-.58-.56-.33-.94-.46-.93-.5a2.11,2.11,0,0,1,1,.32,6.52,6.52,0,0,0,2.35.86,1.66,1.66,0,0,0,1.22-.37,2.23,2.23,0,0,0,.57-.92A9.25,9.25,0,0,1,252.58,524.28Z" transform="translate(-17.42 -93.4)"/><path class="cls-13" d="M260.67,525.36a4.62,4.62,0,0,1-1.2.3,24.48,24.48,0,0,1-3,.36,25.42,25.42,0,0,1-3,0,4.17,4.17,0,0,1-1.23-.14c0-.09,1.88,0,4.18-.19S260.65,525.27,260.67,525.36Z" transform="translate(-17.42 -93.4)"/><path class="cls-13" d="M252.36,529.9a3,3,0,0,1-1.8.79,3,3,0,0,1-2-.2c0-.09.88.07,1.92-.09S252.32,529.83,252.36,529.9Z" transform="translate(-17.42 -93.4)"/><path class="cls-13" d="M256.31,529.71a4.92,4.92,0,0,1-2.4.32,2.64,2.64,0,0,1,1.18-.31C255.76,529.63,256.3,529.62,256.31,529.71Z" transform="translate(-17.42 -93.4)"/><path class="cls-13" d="M258.2,514.61a29.79,29.79,0,0,1-5.13-1.71c-1.4-.54-2.65-1.06-3.54-1.47a7.38,7.38,0,0,1-1.41-.73,10.44,10.44,0,0,1,1.49.54l3.56,1.38,3.56,1.39C257.64,514.37,258.2,514.58,258.2,514.61Z" transform="translate(-17.42 -93.4)"/><path class="cls-12" d="M274.27,518.57s-1.22-.42.09-2.33,5,.4,5,.4l4.69,2.79s1.05,2.44-.26,3.08l-1,1.19s1.83,1.85,1.09,3.47a2.51,2.51,0,0,1-2.55,1.39s.22,3.28-.85,4.54a3.58,3.58,0,0,1-2,1.38,5.83,5.83,0,0,1-4,3.52c-3.14.8-4.78.86-5.64-.46a14.8,14.8,0,0,1-1.39-3s-6.74-3.54-6.88-5.33.16-2,.16-2a3.37,3.37,0,0,1,.14-2.59c.68-1.09,3.36-.14,3.36-.14l8.59,2s-6.88-3.23-7.7-4.29.06-2.35,2.83-2,11.1,1.89,11.1,1.89a2.51,2.51,0,0,0-1-1.06c-.56-.24-2.28-1.24-2.28-1.24Z" transform="translate(-17.42 -93.4)"/><path class="cls-13" d="M276.32,531.6c0,.08-3.51-.81-7.79-2s-7.73-2.2-7.7-2.28,3.5.81,7.78,2S276.34,531.52,276.32,531.6Z" transform="translate(-17.42 -93.4)"/><path class="cls-13" d="M272.22,536.29a10.3,10.3,0,0,1-2.51-.65A18.21,18.21,0,0,1,268,535a2.44,2.44,0,0,1-.5-.27.44.44,0,0,1-.12-.11s0-.08,0-.06,1.07.37,2.42.82A12.82,12.82,0,0,1,272.22,536.29Z" transform="translate(-17.42 -93.4)"/><path class="cls-13" d="M279.59,527.82c0,.08-1.7-.26-3.77-.6s-3.78-.57-3.77-.65a17.88,17.88,0,0,1,3.82.35A17.37,17.37,0,0,1,279.59,527.82Z" transform="translate(-17.42 -93.4)"/><path class="cls-13" d="M281.69,523.37c-.05.07-.74-.41-1.68-.75s-1.78-.42-1.78-.51a3.13,3.13,0,0,1,1.88.23A3.21,3.21,0,0,1,281.69,523.37Z" transform="translate(-17.42 -93.4)"/><path class="cls-3" d="M289.17,508.57a.91.91,0,0,1-.31,0l-.9-.11-3.29-.4c-2.79-.32-6.64-.66-10.91-.76a6.1,6.1,0,0,0-3,.35,12.42,12.42,0,0,0-1.23.81l-1.16.82c-1.5,1.07-2.86,2-4,2.84l-2.73,1.9-.75.5-.27.16s.07-.08.24-.21l.71-.55,2.68-2,4-2.89,1.16-.83a11.83,11.83,0,0,1,1.25-.84,3.69,3.69,0,0,1,1.54-.39c.53,0,1.06,0,1.59,0a102.72,102.72,0,0,1,10.93.85c1.39.18,2.52.36,3.29.5l.89.16Z" transform="translate(-17.42 -93.4)"/><path class="cls-2" d="M278.69,510.07a.83.83,0,0,0-.81-.31h0l-.13,0h-.06a1.23,1.23,0,0,0-.66.38.69.69,0,0,0,0,.88.82.82,0,0,0,.47.22,1.15,1.15,0,0,0,1-.25A.79.79,0,0,0,278.69,510.07Z" transform="translate(-17.42 -93.4)"/><path class="cls-3" d="M240.51,416.83l-1.86-1a4,4,0,0,0-2.84-.66c-.92.27-1.56,1.15-2.51,1.25-1.1.12-2-.87-3.12-.82s-1.87,1-2.92,1c-.78,0-1.59-.54-2.27-.17-.14.08-.25.19-.38.28a2.76,2.76,0,0,1-2.58-.15,3.58,3.58,0,0,0-2.57-.45,4.12,4.12,0,0,0-1.34,1.08,1.86,1.86,0,0,1-1.57.64c-.32-.06-.58-.27-.89-.35-1-.25-1.84.82-2.86,1.09s-2-.21-2.9.21a1.49,1.49,0,0,0-.72,1.83,2.28,2.28,0,0,0,1.68,1.27,4.7,4.7,0,0,0,2.29-.17,5.6,5.6,0,0,1,1.83-.42c1.44.05,2.57,1.54,4,1.24a5.11,5.11,0,0,0,1.74-1.11,4.86,4.86,0,0,1,2.82-.91,5.51,5.51,0,0,0,2-.11c.76-.31,1.2-1.11,2-1.33s1.71.3,2.59.22c.58,0,1.11-.37,1.69-.4.82-.05,1.57.48,2.39.41s1.56-.76,2.39-.69a6.33,6.33,0,0,1,1,.25,1,1,0,0,0,.93-.14c.19-.17.24-.45.46-.58a1,1,0,0,1,.57-.06l2.73.28Z" transform="translate(-17.42 -93.4)"/><path class="cls-3" d="M243.45,416.73c-.91-.67-2.15-1.38-3.19-.81-.37.2-.65.54-1,.73-.87.41-1.92-.13-2.85.12-.78.22-1.3,1-2,1.31-1.17.59-2.88.24-3.62,1.28-.4.56-.47,1.46-1.17,1.61a1.67,1.67,0,0,1-.73-.09,6.13,6.13,0,0,0-2.56-.07,2.57,2.57,0,0,0-1.32.56c-.7.63-.72,1.71-1.39,2.36-1,1-2.78.52-4.07,1.15a8,8,0,0,0-1.56,1.29,18,18,0,0,1-3.29,2,7.16,7.16,0,0,0-2.89,2.45,2.6,2.6,0,0,0,.37,3.33,1.33,1.33,0,0,0,1.63.08c.15-.15.24-.34.39-.49a2.94,2.94,0,0,1,1.13-.57c.4-.16.81-.46.81-.86s-.15-.56.06-.73a.51.51,0,0,1,.3-.1c1-.11,2.29-.06,2.84-.9a6.28,6.28,0,0,0,.42-1.22,2.31,2.31,0,0,1,1.62-1.38c.62-.14,1.34-.05,1.84-.43s.59-1.27,1.11-1.76c.86-.82,2.57-.22,3.34-1.11.19-.22.3-.51.55-.67.69-.46,1.54.48,2.36.33s1-.94,1.46-1.43,1.6-.72,2.4-1.11c1-.49,1.75-1.45,2.83-1.77s2.07-.09,2.77-.75c.26-.25.44-.61.79-.72a1.43,1.43,0,0,1,.65,0,4.86,4.86,0,0,0,3.07-.63Z" transform="translate(-17.42 -93.4)"/><path class="cls-3" d="M241.89,419.2a7.8,7.8,0,0,0-6.58,2,5.23,5.23,0,0,1-1.24,1,6.74,6.74,0,0,1-2.42.28,4.77,4.77,0,0,0-4,3.23c-.37,1.12-.51,2.58-1.58,3a3.19,3.19,0,0,0-.59.21c-.72.45-.22,1.6-.23,2.48,0,1.45-1.63,2.45-1.69,3.9a3.89,3.89,0,0,0,.38,1.55c.56,1.38,1.18,2.74,1.85,4.06.29.6.7,1.26,1.34,1.34.92.13,1.49-1,1.76-1.9a2.77,2.77,0,0,0,.06-2c-.27-.51-.83-.82-1.06-1.34-.39-.86.22-1.79.66-2.6a7.84,7.84,0,0,0,.75-5.34c1-.19,1.48-1.56,2.49-1.76a3.86,3.86,0,0,0,.84-.11c.68-.26.75-1.28,1.34-1.7s2-.1,2.27-.92c.1-.26.05-.57.21-.79a.89.89,0,0,1,.53-.28l2.45-.6a2.9,2.9,0,0,0,1.3-.58c.63-.6.73-1.75,1.52-2.06Z" transform="translate(-17.42 -93.4)"/><path class="cls-3" d="M244.48,414.34c-.1-1.44-.38-3.16-1.65-3.74-.75-.35-1.65-.17-2.39-.54-1.41-.72-1.53-3-2.94-3.73s-3.22.4-4.32-.67c-.57-.55-.65-1.47-1.12-2.12a3.25,3.25,0,0,0-2.49-1.07,7.64,7.64,0,0,1-2.74-.37c-1.45-.64-2.38-2.44-4-2.56-1.32-.1-2.36,1.06-3.19,2.13a2.09,2.09,0,0,0-.48.89,1.59,1.59,0,0,0,.87,1.47c1,.62,2.41.52,3.39,1.25a9.3,9.3,0,0,0,1.05.85c.57.3,1.27.23,1.82.57,1.06.65,1,2.42,2.09,3.09s2.3-.13,3.43.14c1.56.37,2.41,2.53,4,2.59a17.35,17.35,0,0,0,2.06-.46,2.26,2.26,0,0,1,2.19,1.3c.26.54.3,1.18.6,1.71a2.49,2.49,0,0,0,1.83,1.15,7.41,7.41,0,0,0,2.2-.12Z" transform="translate(-17.42 -93.4)"/><path class="cls-3" d="M243.27,418.81c-1-1.83-2.16-3.79-4.15-4.64a26.06,26.06,0,0,1-3.08-1.08c-.8-.46-1.36-1.21-2.11-1.74-1.73-1.24-4.12-1.16-6.26-.82s-4.34.87-6.43.36c-1.88-.46-3.52-1.74-5.45-1.85a9.34,9.34,0,0,0-3.09.53l-3.51,1a1.59,1.59,0,0,0-1,.58c-.37.63.36,1.35,1.06,1.65a6.48,6.48,0,0,0,3.62.39,8.94,8.94,0,0,1,2.87-.44,19.48,19.48,0,0,1,1.92.62,7,7,0,0,0,2.5,0l3.89-.39a5.38,5.38,0,0,1,3,.24c.7.34,1.25,1,2,1.07s1.69-.55,2.55-.41c1,.15,1.54,1.3,2.47,1.74,1.12.52,2.56-.09,3.64.5.72.4,1,1.22,1.49,1.88a4.8,4.8,0,0,0,1.49,1.38,10.16,10.16,0,0,0,2.49.91Z" transform="translate(-17.42 -93.4)"/><path class="cls-3" d="M245.32,410.67c-.46-.64-1.17-1.3-1-2.07.1-.38.41-.69.48-1.08.11-.7-.59-1.24-.85-1.9s0-1.74-.44-2.46-1.48-.86-2.34-1.08a2.89,2.89,0,0,1-2.17-1.69,9,9,0,0,1-.11-1.95,3.68,3.68,0,0,0-3.51-3.09,3.72,3.72,0,0,1-1.46-.16c-.83-.39-1-1.45-1.48-2.23a3.08,3.08,0,0,0-3.17-1.39c-.58.11-1.22.72-.88,1.2.13.2.38.28.57.43.66.56.18,1.7.57,2.47s1.63,1,2,1.78c.28.63-.05,1.41.22,2.05.33.79,1.36.95,2.21,1s1.87.23,2.19,1a5,5,0,0,1,.16,1.1,2.16,2.16,0,0,0,1.13,1.54c.82.41,2,.34,2.46,1.12s-.24,2.14.25,3.05c.36.68,1.23.85,1.88,1.26a.72.72,0,0,1,.33.38.74.74,0,0,1-.11.52c-.51,1.05-1.16,2.25-.67,3.3a4.83,4.83,0,0,0,.89,1.08,9.07,9.07,0,0,1,2.25,3.87l.91-3.94A4.05,4.05,0,0,0,245.32,410.67Z" transform="translate(-17.42 -93.4)"/><path class="cls-3" d="M250.33,397.3a2.66,2.66,0,0,0-1.15-3.05,2.1,2.1,0,0,0-2.89,1.09c-.38,1.29.7,2.81,0,4a4.35,4.35,0,0,0-.59.92c-.24.86.83,1.58.84,2.47s-1.23,1.52-1.49,2.47.81,2.24.41,3.3a3.94,3.94,0,0,1-.51.79c-1.14,1.67-.56,3.91.06,5.83l2.57-.38c-.47-1.79,2-3.57,1.19-5.2-.41-.78-1.53-1.33-1.28-2.18a1.61,1.61,0,0,1,.39-.58c.8-.87,1.6-1.74,2.39-2.62a2.41,2.41,0,0,0,.78-1.33c.1-1.14-1.32-1.87-1.5-3C249.43,398.93,250.07,398.15,250.33,397.3Z" transform="translate(-17.42 -93.4)"/><path class="cls-8" d="M251.21,411.87c-.24-.85-1.34-1.1-2.21-1-2.38.37-4.12,2.36-5.65,4.23a50.66,50.66,0,0,0-4.71,6.4,4.35,4.35,0,0,0-.66,1.63,1.69,1.69,0,0,0,.6,1.58,1.05,1.05,0,0,0,1.51-.35l.71-.18a34.44,34.44,0,0,1,9-10.11C250.6,413.55,251.46,412.76,251.21,411.87Z" transform="translate(-17.42 -93.4)"/><path class="cls-3" d="M238.09,448.37a83.65,83.65,0,0,1-.88-14.22,28.77,28.77,0,0,1,3.8-13.59c.38-.61,3.35-4.65,4-4.45.49.15-1.61,4.05-1.44,4.54,1.61,4.64,1.29,9.78,0,14.51a64.09,64.09,0,0,1-5.49,13.21" transform="translate(-17.42 -93.4)"/><path class="cls-12" d="M259.22,479.33c.68-3.29,1.22-5.88,1.25-5.87s11.53,1.06,14.45-10c1.42-5.34,3.43-16.58,5.14-26.78a21.32,21.32,0,0,0-15.83-24.18l-1.07-.27c-11.71-2.23-20.15,6.48-22.05,18.25l-8,40.95,18.29,19.13Z" transform="translate(-17.42 -93.4)"/><path class="cls-13" d="M260.47,473.46a27.61,27.61,0,0,1-13.37-7.91s1.49,9,12.81,10.74Z" transform="translate(-17.42 -93.4)"/><path class="cls-3" d="M274.4,445.49a1.64,1.64,0,0,1-1.93,1.21,1.56,1.56,0,0,1-1.28-1.84,1.64,1.64,0,0,1,1.93-1.21A1.57,1.57,0,0,1,274.4,445.49Z" transform="translate(-17.42 -93.4)"/><path class="cls-3" d="M276.53,440.69c-.25.16-1.23-1-2.93-1.45s-3.17.11-3.3-.14.22-.44.87-.7a4.39,4.39,0,0,1,2.7-.14,4.27,4.27,0,0,1,2.27,1.41C276.57,440.21,276.65,440.63,276.53,440.69Z" transform="translate(-17.42 -93.4)"/><path class="cls-3" d="M258.93,442.52a1.63,1.63,0,0,1-1.93,1.21,1.57,1.57,0,0,1-1.28-1.84,1.64,1.64,0,0,1,1.93-1.21A1.56,1.56,0,0,1,258.93,442.52Z" transform="translate(-17.42 -93.4)"/><path class="cls-3" d="M259.65,437.19c-.24.15-1.22-1-2.93-1.46s-3.17.11-3.3-.14.22-.44.87-.7a4.51,4.51,0,0,1,2.71-.14,4.38,4.38,0,0,1,2.27,1.41C259.69,436.7,259.77,437.12,259.65,437.19Z" transform="translate(-17.42 -93.4)"/><path class="cls-3" d="M262.48,451.82a11.8,11.8,0,0,1,2.89.2c.45.06.88.08,1-.2a2.24,2.24,0,0,0,0-1.36c-.14-1.16-.29-2.37-.45-3.64-.6-5.17-.92-9.37-.71-9.4s.86,4.15,1.47,9.32c.13,1.27.27,2.49.39,3.65a2.62,2.62,0,0,1-.2,1.76,1.14,1.14,0,0,1-.88.46,3.28,3.28,0,0,1-.76-.08A11.42,11.42,0,0,1,262.48,451.82Z" transform="translate(-17.42 -93.4)"/><path class="cls-3" d="M257.16,451.74c.28.06-.18,1.91,1.08,3.62s3.27,2,3.22,2.26-.53.25-1.37.07a4.73,4.73,0,0,1-2.71-1.79,4.16,4.16,0,0,1-.79-3C256.72,452.11,257,451.7,257.16,451.74Z" transform="translate(-17.42 -93.4)"/><path class="cls-3" d="M261.3,430.24c-.28.42-1.93-.22-4-.48s-3.82-.13-4-.61c-.07-.23.32-.59,1.09-.88a7,7,0,0,1,6.07.83C261.15,429.58,261.43,430,261.3,430.24Z" transform="translate(-17.42 -93.4)"/><path class="cls-3" d="M277.25,434.85c-.4.31-1.47-.39-2.88-.76s-2.67-.4-2.85-.87c-.07-.23.22-.57.83-.8a4.12,4.12,0,0,1,2.51-.05,4.21,4.21,0,0,1,2.11,1.36C277.37,434.25,277.43,434.69,277.25,434.85Z" transform="translate(-17.42 -93.4)"/><path class="cls-12" d="M240,438.92c-.17-.13-7.06-4.17-8.72,3.47s6.35,7.74,6.41,7.53S240,438.92,240,438.92Z" transform="translate(-17.42 -93.4)"/><path class="cls-13" d="M235.94,446.51s-.15.07-.4.12a1.36,1.36,0,0,1-1-.2c-.75-.47-1.15-1.9-.88-3.28a4.54,4.54,0,0,1,.78-1.83,1.57,1.57,0,0,1,1.23-.8.7.7,0,0,1,.71.53c.05.24,0,.38,0,.4s.19-.09.2-.42a.85.85,0,0,0-.2-.54,1,1,0,0,0-.69-.36,1.91,1.91,0,0,0-1.65.88,4.63,4.63,0,0,0-.93,2c-.29,1.55.19,3.17,1.22,3.73a1.47,1.47,0,0,0,1.27.06C235.89,446.69,236,446.53,235.94,446.51Z" transform="translate(-17.42 -93.4)"/><path class="cls-3" d="M277.75,423c1.38-.42-1.5-5.21-4.26-7.23-4.17-3.05-10.93-5.8-15.43-5.48-5.41.38-10.19,2-13.73,6.15a30.88,30.88,0,0,0-6.59,14.68,9.39,9.39,0,0,0,.11,4.91c.71,1.92,2.54,3.41,2,5.73a3.25,3.25,0,0,0,.31,2.5c1.09,1.79,3.09.74,4.17-.5,2.31-2.65,3.25-6.19,4.11-9.6a22.69,22.69,0,0,0,1-7.38c-.11-1.36-.46-2.69-.5-4.05a4.74,4.74,0,0,1,1.34-3.71,4.33,4.33,0,0,1,.76-.5,8.16,8.16,0,0,1,8.24.14c4,2.43,10.88,6.24,13.11,5.18,3.21-1.53,4.16-2.76,4.16-2.76Z" transform="translate(-17.42 -93.4)"/><path class="cls-3" d="M196.23,553.38l.62-.27,1.82-.7,6.84-2.56,23.7-8.71-.13.33c-2-4.28-4.12-8.93-6.34-13.75l-3.28-7.13.27.14L196,524.33h0a48.32,48.32,0,0,0-12.27,5.39c-1.35.83-2.37,1.55-3.06,2l-.78.56-.28.18s.07-.09.24-.23l.75-.61c.67-.51,1.67-1.26,3-2.13A46.76,46.76,0,0,1,195.9,524h0l23.72-3.7.19,0,.08.17c1.06,2.32,2.16,4.7,3.28,7.13l6.31,13.76.11.23-.24.09-23.77,8.54-6.88,2.43-1.85.63A4.06,4.06,0,0,1,196.23,553.38Z" transform="translate(-17.42 -93.4)"/><path class="cls-3" d="M210.44,509.76a17.55,17.55,0,0,1-1.95,2.39c-1.26,1.43-3,3.37-5,5.47s-3.87,4-5.29,5.23a15.33,15.33,0,0,1-1.76,1.42c-.24.14-.41.28-.62.23a.14.14,0,0,1,0-.19s0,0,0,0,0,.13.06.14a1.17,1.17,0,0,0,.46-.29c.41-.33,1-.86,1.63-1.52,1.35-1.33,3.17-3.22,5.17-5.32l5.14-5.36A20,20,0,0,1,210.44,509.76Z" transform="translate(-17.42 -93.4)"/><path class="cls-3" d="M215.05,500.23c-.1,0,.2-1.52.21-4a25.75,25.75,0,0,0-.37-4.27,25.95,25.95,0,0,0-3.75-9.74,25.71,25.71,0,0,0-2.59-3.42c-1.65-1.82-2.88-2.73-2.82-2.81a4,4,0,0,1,.89.6,9.64,9.64,0,0,1,1,.81,14.06,14.06,0,0,1,1.21,1.16,23.47,23.47,0,0,1,2.72,3.4,27.19,27.19,0,0,1,2.45,4.76,26.78,26.78,0,0,1,1.37,5.16,23,23,0,0,1,.26,4.36,13.48,13.48,0,0,1-.12,1.67,10.34,10.34,0,0,1-.18,1.25A3.69,3.69,0,0,1,215.05,500.23Z" transform="translate(-17.42 -93.4)"/><path class="cls-3" d="M239.79,572.53c0-.08,1.22,0,3.18,0a29.05,29.05,0,0,0,14.46-4.27c1.67-1,2.62-1.78,2.68-1.71a3.2,3.2,0,0,1-.61.6,18.5,18.5,0,0,1-1.87,1.41,25.56,25.56,0,0,1-7,3.27,25.91,25.91,0,0,1-7.65,1.06,19.64,19.64,0,0,1-2.34-.17A2.62,2.62,0,0,1,239.79,572.53Z" transform="translate(-17.42 -93.4)"/><path class="cls-3" d="M254.19,551.12a4.38,4.38,0,0,1-.65.83c-.44.51-1.1,1.24-1.93,2.11-1.67,1.76-4,4.11-6.79,6.57s-5.35,4.56-7.27,6c-1,.73-1.76,1.31-2.32,1.69a4,4,0,0,1-.89.55,4.26,4.26,0,0,1,.78-.71l2.2-1.81c1.87-1.53,4.43-3.66,7.17-6.11s5.14-4.76,6.86-6.45l2-2A4.47,4.47,0,0,1,254.19,551.12Z" transform="translate(-17.42 -93.4)"/></g></g></svg>