<svg xmlns="http://www.w3.org/2000/svg" viewBox="0 0 176 176"><defs><style>.cls-1{isolation:isolate;}.cls-2{fill:#ef433f;mix-blend-mode:multiply;opacity:0.15;}.cls-3{fill:none;stroke:#ef433f;stroke-miterlimit:10;stroke-width:4px;}</style></defs><g class="cls-1"><g id="Capa_2" data-name="Capa 2"><g id="Grillas"><circle class="cls-2" cx="88" cy="88" r="88"/><circle class="cls-2" cx="87.64" cy="87.83" r="71.36"/><path class="cls-3" d="M47.21,85.28c1.17-.1,2.35-.28,3.52-.28q37.06,0,74.14,0c3.51,0,3.52,0,3.52-3.52,0-10.55-.06-21.1,0-31.65,0-2.28-.69-3-3-3q-38.1.1-76.2,0c-2.28,0-3,.69-3,3,.1,10.36,0,20.71,0,31.07q0,22.41,0,44.83c0,3.21,0,3.22,3.22,3.23h37.8"/><path class="cls-3" d="M119.3,71.51H55.42"/><path class="cls-3" d="M117.55,111.66v-2.93c0-3.6,0-3.58,3.51-4.41a2.3,2.3,0,0,0,2-2.33c0-1.08,0-2.15,0-3.23a2.33,2.33,0,0,0-2.63-2.64h-17c-1.78,0-2.55.86-2.36,2.64a10.86,10.86,0,0,1,0,2.35c-.24,2.22.48,3.42,2.95,3.24,1.75-.12,2.65.86,2.63,2.62a16.43,16.43,0,0,1-.29,4.69"/><path class="cls-3" d="M102,119.57c-1,1-2.39,1-3.52,1.08-3,.14-3,2.08-2.92,4.19s1.47,4.06,3.51,4.07c8.6.08,17.2.12,25.79,0,2.11,0,3.39-1.51,3.52-3.75.21-3.33,0-3.65-2.93-4.41a15.27,15.27,0,0,0-5.89-.24,62.34,62.34,0,0,1-15.5-.06,6.47,6.47,0,0,1-1.47-.57"/><path class="cls-3" d="M92.64,60.37H55.42"/><path class="cls-3" d="M84.72,98.91,74.17,111.36c-.58.69-1.14,1.39-1.76,2-1.15,1.23-2.33,1.21-3.51,0l-6.3-6.31"/><path class="cls-3" d="M102.31,119.57c.58-1.86,1.1-3.74,1.78-5.56a2.63,2.63,0,0,1,3.5-1.82,18.32,18.32,0,0,0,8.77,0,2.75,2.75,0,0,1,3.7,2.14c.37,1.83,1.39,3.41,1.59,5.25"/></g></g></g></svg>